<?xml version="1.0" encoding="UTF-8"?>
<svg width="133px" height="132px" viewBox="0 0 133 132" version="1.1" xmlns="http://www.w3.org/2000/svg" xmlns:xlink="http://www.w3.org/1999/xlink">
    <!-- Generator: sketchtool 58 (101010) - https://sketch.com -->
    <title>1FE6C67A-3CB7-4005-AC1D-F42488D3B336</title>
    <desc>Created with sketchtool.</desc>
    <g id="site" stroke="none" stroke-width="1" fill="none" fill-rule="evenodd">
        <g id="how-it-works" transform="translate(-628.000000, -936.000000)" fill="#E5C66B">
            <g id="bg_circle_yellow" transform="translate(628.000000, 936.000000)">
                <circle id="Oval" cx="2" cy="2" r="2"></circle>
                <circle id="Oval-Copy-9" cx="2" cy="14" r="2"></circle>
                <circle id="Oval-Copy-18" cx="2" cy="26" r="2"></circle>
                <circle id="Oval-Copy-27" cx="2" cy="38" r="2"></circle>
                <circle id="Oval-Copy-36" cx="2" cy="51" r="2"></circle>
                <circle id="Oval-Copy-45" cx="2" cy="63" r="2"></circle>
                <circle id="Oval-Copy" cx="18" cy="2" r="2"></circle>
                <circle id="Oval-Copy-10" cx="18" cy="14" r="2"></circle>
                <circle id="Oval-Copy-19" cx="18" cy="26" r="2"></circle>
                <circle id="Oval-Copy-28" cx="18" cy="38" r="2"></circle>
                <circle id="Oval-Copy-37" cx="18" cy="51" r="2"></circle>
                <circle id="Oval-Copy-54" cx="18" cy="63" r="2"></circle>
                <circle id="Oval-Copy-2" cx="34" cy="2" r="2"></circle>
                <circle id="Oval-Copy-11" cx="34" cy="14" r="2"></circle>
                <circle id="Oval-Copy-20" cx="34" cy="26" r="2"></circle>
                <circle id="Oval-Copy-29" cx="34" cy="38" r="2"></circle>
                <circle id="Oval-Copy-38" cx="34" cy="51" r="2"></circle>
                <circle id="Oval-Copy-63" cx="34" cy="63" r="2"></circle>
                <circle id="Oval-Copy-3" cx="50" cy="2" r="2"></circle>
                <circle id="Oval-Copy-12" cx="50" cy="14" r="2"></circle>
                <circle id="Oval-Copy-21" cx="50" cy="26" r="2"></circle>
                <circle id="Oval-Copy-30" cx="50" cy="38" r="2"></circle>
                <circle id="Oval-Copy-39" cx="50" cy="51" r="2"></circle>
                <circle id="Oval-Copy-64" cx="50" cy="63" r="2"></circle>
                <circle id="Oval-Copy-4" cx="67" cy="2" r="2"></circle>
                <circle id="Oval-Copy-13" cx="67" cy="14" r="2"></circle>
                <circle id="Oval-Copy-22" cx="67" cy="26" r="2"></circle>
                <circle id="Oval-Copy-31" cx="67" cy="38" r="2"></circle>
                <circle id="Oval-Copy-40" cx="67" cy="51" r="2"></circle>
                <circle id="Oval-Copy-65" cx="67" cy="63" r="2"></circle>
                <circle id="Oval-Copy-5" cx="83" cy="2" r="2"></circle>
                <circle id="Oval-Copy-14" cx="83" cy="14" r="2"></circle>
                <circle id="Oval-Copy-23" cx="83" cy="26" r="2"></circle>
                <circle id="Oval-Copy-32" cx="83" cy="38" r="2"></circle>
                <circle id="Oval-Copy-41" cx="83" cy="51" r="2"></circle>
                <circle id="Oval-Copy-66" cx="83" cy="63" r="2"></circle>
                <circle id="Oval-Copy-6" cx="99" cy="2" r="2"></circle>
                <circle id="Oval-Copy-15" cx="99" cy="14" r="2"></circle>
                <circle id="Oval-Copy-24" cx="99" cy="26" r="2"></circle>
                <circle id="Oval-Copy-33" cx="99" cy="38" r="2"></circle>
                <circle id="Oval-Copy-42" cx="99" cy="51" r="2"></circle>
                <circle id="Oval-Copy-67" cx="99" cy="63" r="2"></circle>
                <circle id="Oval-Copy-7" cx="115" cy="2" r="2"></circle>
                <circle id="Oval-Copy-16" cx="115" cy="14" r="2"></circle>
                <circle id="Oval-Copy-25" cx="115" cy="26" r="2"></circle>
                <circle id="Oval-Copy-34" cx="115" cy="38" r="2"></circle>
                <circle id="Oval-Copy-43" cx="115" cy="51" r="2"></circle>
                <circle id="Oval-Copy-68" cx="115" cy="63" r="2"></circle>
                <circle id="Oval-Copy-8" cx="131" cy="2" r="2"></circle>
                <circle id="Oval-Copy-17" cx="131" cy="14" r="2"></circle>
                <circle id="Oval-Copy-26" cx="131" cy="26" r="2"></circle>
                <circle id="Oval-Copy-35" cx="131" cy="38" r="2"></circle>
                <circle id="Oval-Copy-44" cx="131" cy="51" r="2"></circle>
                <circle id="Oval-Copy-69" cx="131" cy="63" r="2"></circle>
                <circle id="Oval-Copy-45" cx="2" cy="76" r="2"></circle>
                <circle id="Oval-Copy-54" cx="18" cy="76" r="2"></circle>
                <circle id="Oval-Copy-63" cx="34" cy="76" r="2"></circle>
                <circle id="Oval-Copy-64" cx="50" cy="76" r="2"></circle>
                <circle id="Oval-Copy-65" cx="67" cy="76" r="2"></circle>
                <circle id="Oval-Copy-66" cx="83" cy="76" r="2"></circle>
                <circle id="Oval-Copy-67" cx="99" cy="76" r="2"></circle>
                <circle id="Oval-Copy-68" cx="115" cy="76" r="2"></circle>
                <circle id="Oval-Copy-69" cx="131" cy="76" r="2"></circle>
                <circle id="Oval-Copy-46" cx="2" cy="90" r="2"></circle>
                <circle id="Oval-Copy-55" cx="18" cy="90" r="2"></circle>
                <circle id="Oval-Copy-76" cx="34" cy="90" r="2"></circle>
                <circle id="Oval-Copy-75" cx="50" cy="90" r="2"></circle>
                <circle id="Oval-Copy-74" cx="67" cy="90" r="2"></circle>
                <circle id="Oval-Copy-73" cx="83" cy="90" r="2"></circle>
                <circle id="Oval-Copy-72" cx="99" cy="90" r="2"></circle>
                <circle id="Oval-Copy-71" cx="115" cy="90" r="2"></circle>
                <circle id="Oval-Copy-70" cx="131" cy="90" r="2"></circle>
                <circle id="Oval-Copy-47" cx="2" cy="103" r="2"></circle>
                <circle id="Oval-Copy-56" cx="18" cy="103" r="2"></circle>
                <circle id="Oval-Copy-83" cx="34" cy="103" r="2"></circle>
                <circle id="Oval-Copy-82" cx="50" cy="103" r="2"></circle>
                <circle id="Oval-Copy-81" cx="67" cy="103" r="2"></circle>
                <circle id="Oval-Copy-80" cx="83" cy="103" r="2"></circle>
                <circle id="Oval-Copy-79" cx="99" cy="103" r="2"></circle>
                <circle id="Oval-Copy-78" cx="115" cy="103" r="2"></circle>
                <circle id="Oval-Copy-77" cx="131" cy="103" r="2"></circle>
                <circle id="Oval-Copy-48" cx="2" cy="117" r="2"></circle>
                <circle id="Oval-Copy-57" cx="18" cy="117" r="2"></circle>
                <circle id="Oval-Copy-90" cx="34" cy="117" r="2"></circle>
                <circle id="Oval-Copy-89" cx="50" cy="117" r="2"></circle>
                <circle id="Oval-Copy-88" cx="67" cy="117" r="2"></circle>
                <circle id="Oval-Copy-87" cx="83" cy="117" r="2"></circle>
                <circle id="Oval-Copy-86" cx="99" cy="117" r="2"></circle>
                <circle id="Oval-Copy-85" cx="115" cy="117" r="2"></circle>
                <circle id="Oval-Copy-84" cx="131" cy="117" r="2"></circle>
                <circle id="Oval-Copy-49" cx="2" cy="130" r="2"></circle>
                <circle id="Oval-Copy-58" cx="18" cy="130" r="2"></circle>
                <circle id="Oval-Copy-97" cx="34" cy="130" r="2"></circle>
                <circle id="Oval-Copy-96" cx="50" cy="130" r="2"></circle>
                <circle id="Oval-Copy-95" cx="67" cy="130" r="2"></circle>
                <circle id="Oval-Copy-94" cx="83" cy="130" r="2"></circle>
                <circle id="Oval-Copy-93" cx="99" cy="130" r="2"></circle>
                <circle id="Oval-Copy-92" cx="115" cy="130" r="2"></circle>
                <circle id="Oval-Copy-91" cx="131" cy="130" r="2"></circle>
            </g>
        </g>
    </g>
</svg>