<?xml version="1.0" encoding="UTF-8"?>
<svg width="100px" height="100px" viewBox="0 0 100 100" version="1.1" xmlns="http://www.w3.org/2000/svg" xmlns:xlink="http://www.w3.org/1999/xlink">
    <!-- Generator: sketchtool 58 (101010) - https://sketch.com -->
    <title>01D4AF57-0350-4CD5-BB8D-60349CF60AD4</title>
    <desc>Created with sketchtool.</desc>
    <g id="site" stroke="none" stroke-width="1" fill="none" fill-rule="evenodd">
        <g id="how-it-works" transform="translate(-157.000000, -1981.000000)" fill="#2B9E8E" fill-rule="nonzero">
            <g id="Blockchain-Agnostic_icon" transform="translate(157.000000, 1981.000000)">
                <path d="M99.1666603,36.446521 C99.6833483,36.1482093 100.001171,35.5964632 100.000003,34.9998387 L100.000003,21.6663621 C100.001171,21.0697376 99.6833483,20.5179915 99.1666603,20.2196798 L87.5000032,13.5529415 C86.9877258,13.2603217 86.3589313,13.2603217 85.846662,13.5529415 L74.1799969,20.2196798 C73.658173,20.514579 73.334887,21.0669714 73.3333303,21.6663621 L73.3333303,25.6364047 L63.3333316,20.636351 L63.3333316,8.33288538 C63.334509,7.7362609 63.0166864,7.18451483 62.5000032,6.88620316 L50.8333332,0.219464825 C50.3210639,-0.0731549416 49.6922694,-0.0731549416 49.1800001,0.219464825 L37.513335,6.88620316 C36.9915111,7.18110234 36.6682251,7.73349473 36.6666684,8.33288538 L36.6666684,20.636351 L26.6666697,25.6364047 L26.6666697,21.6663621 C26.6678471,21.0697376 26.3500245,20.5179915 25.8333365,20.2196798 L14.1666713,13.5529415 C13.654402,13.2603217 13.0256075,13.2603217 12.5133382,13.5529415 L0.846673059,20.2196798 C0.324849209,20.514579 0.00156317066,21.0669714 3.24205931e-06,21.6663621 L3.24205931e-06,34.9998387 C-0.00117090904,35.5964632 0.31665171,36.1482093 0.833339727,36.446521 L11.6666717,42.6332541 L11.6666717,57.3667459 L0.833339727,63.553479 C0.31665171,63.8517907 -0.00117090904,64.4035368 3.24205931e-06,65.0001613 L3.24205931e-06,78.3336379 C-0.00117090904,78.9302624 0.31665171,79.4820085 0.833339727,79.7803202 L12.5000032,86.4470585 C13.0122742,86.7396783 13.6410687,86.7396783 14.153338,86.4470585 L24.9550033,80.2803255 L36.6666684,87.5920708 L36.6666684,91.6671146 C36.665491,92.2637391 36.9833136,92.8154852 37.5000032,93.1137968 L49.1666668,99.7805352 C49.6789361,100.073155 50.3077306,100.073155 50.8199999,99.7805352 L62.486665,93.1137968 C63.0084889,92.8188977 63.3317749,92.2665053 63.3333316,91.6671146 L63.3333316,87.5920708 L75.0383301,80.2753255 L85.8399953,86.4420584 C86.3522646,86.7346782 86.9810592,86.7346782 87.4933285,86.4420584 L99.1599936,79.7753201 C99.6777005,79.4795987 99.9980107,78.9298539 100.000003,78.3336379 L100.000003,65.0001613 C100.001171,64.4035368 99.6833483,63.8517907 99.1666603,63.553479 L88.3333283,57.3667459 L88.3333283,42.6332541 L99.1666603,36.446521 Z M88.3333283,38.7948795 L88.3333283,29.2947774 L96.6666606,24.5330595 L96.6666606,34.0331617 L88.3333283,38.7948795 Z M86.6666619,69.746879 L78.3583296,65.0001613 L86.6666619,60.2534436 L94.9749942,65.0001613 L86.6666619,69.746879 Z M76.6666632,24.5380596 L84.9999954,29.2997775 L84.9999954,38.7998796 L76.6666632,34.0331617 L76.6666632,24.5380596 Z M86.6666619,16.9196444 L94.9749942,21.6663621 L86.6666619,26.4130798 L78.3583296,21.6663621 L86.6666619,16.9196444 Z M50,83.0870224 L41.6916677,78.3336379 L50,73.5869202 L58.3083323,78.3336379 L50,83.0870224 Z M40.0000013,46.2049592 L48.3333336,50.9666771 L48.3333336,60.4667792 L40.0000013,55.7000613 L40.0000013,46.2049592 Z M51.6666664,50.9666771 L59.9999987,46.2049592 L59.9999987,55.7050613 L51.6666664,60.4667792 L51.6666664,50.9666771 Z M50,48.0799794 L41.6916677,43.3332617 L50,38.586544 L58.3083323,43.3332617 L50,48.0799794 Z M40.0000013,11.2045829 L48.3333336,15.9663008 L48.3333336,25.4664029 L40.0000013,20.699685 L40.0000013,11.2045829 Z M51.6666664,15.9663008 L59.9999987,11.2045829 L59.9999987,20.7046851 L51.6666664,25.4664029 L51.6666664,15.9663008 Z M50,3.58616769 L58.3083323,8.33288538 L50,13.0796031 L41.6916677,8.33288538 L50,3.58616769 Z M15.0000046,29.2997775 L23.3333368,24.5380596 L23.3333368,34.0381617 L15.0000046,38.7998796 L15.0000046,29.2997775 Z M13.3333381,16.9196444 L21.6416704,21.6663621 L13.3333381,26.4130798 L5.02500585,21.6663621 L13.3333381,16.9196444 Z M3.3333394,24.5380596 L11.6666717,29.2997775 L11.6666717,38.7998796 L3.3333394,34.0331617 L3.3333394,24.5380596 Z M13.3333381,69.746879 L5.02500585,65.0001613 L13.3333381,60.2534436 L21.6416704,65.0001613 L13.3333381,69.746879 Z M3.3333394,67.8718588 L11.6666717,72.6335767 L11.6666717,82.1336788 L3.3333394,77.3669609 L3.3333394,67.8718588 Z M15.0000046,82.1286787 L15.0000046,72.6285766 L23.3333368,67.8668587 L23.3333368,77.3669609 L15.0000046,82.1286787 Z M26.6666697,77.408628 L26.6666697,65.0001613 C26.6678471,64.4035368 26.3500245,63.8517907 25.8333365,63.553479 L15.0000046,57.3667459 L15.0000046,42.6332541 L25.8333365,36.446521 C26.3500245,36.1482093 26.6678471,35.5964632 26.6666697,34.9998387 L26.6666697,29.3631115 L38.2816682,23.5563824 L48.3333336,29.2997775 L48.3333336,35.6998463 L37.5000046,41.8865794 C36.9833136,42.1848911 36.665491,42.7366372 36.6666684,43.3332617 L36.6666684,56.6667383 C36.665491,57.2633628 36.9833136,57.8151089 37.5000046,58.1134206 L48.3333336,64.3001537 L48.3333336,70.7002225 L37.5000046,76.8869557 C36.9833136,77.1852674 36.665491,77.7370135 36.6666684,78.3336379 L36.6666684,83.6670286 L26.6666697,77.408628 Z M40.0000013,81.2053355 L48.3333336,85.9670533 L48.3333336,95.4671555 L40.0000013,90.7004376 L40.0000013,81.2053355 Z M51.6666664,95.4621554 L51.6666664,85.9620533 L59.9999987,81.2003354 L59.9999987,90.7004376 L51.6666664,95.4621554 Z M62.4999984,76.8869557 L51.6666664,70.7002225 L51.6666664,64.3001537 L62.4999984,58.1134206 C63.0166864,57.8151089 63.334509,57.2633628 63.3333316,56.6667383 L63.3333316,43.3332617 C63.334509,42.7366372 63.0166864,42.1848911 62.4999984,41.8865794 L51.6666664,35.6998463 L51.6666664,29.2997775 L61.7183318,23.5563824 L73.3333303,29.3631115 L73.3333303,34.9998387 C73.3321529,35.5964632 73.6499755,36.1482093 74.1666664,36.446521 L84.9999954,42.6332541 L84.9999954,57.3667459 L74.1666664,63.553479 C73.6499755,63.8517907 73.3321529,64.4035368 73.3333303,65.0001613 L73.3333303,77.408628 L63.3333316,83.6670286 L63.3333316,78.3336379 C63.334509,77.7370135 63.0166864,77.1852674 62.4999984,76.8869557 Z M76.6666632,67.8718588 L84.9999954,72.6335767 L84.9999954,82.1336788 L76.6666632,77.3669609 L76.6666632,67.8718588 Z M88.3333283,82.1286787 L88.3333283,72.6285766 L96.6666606,67.8668587 L96.6666606,77.3669609 L88.3333283,82.1286787 Z" id="Shape"></path>
            </g>
        </g>
    </g>
</svg>