<?xml version="1.0" encoding="UTF-8"?>
<svg width="100px" height="111px" viewBox="0 0 100 111" version="1.1" xmlns="http://www.w3.org/2000/svg" xmlns:xlink="http://www.w3.org/1999/xlink">
    <!-- Generator: sketchtool 58 (101010) - https://sketch.com -->
    <title>3C2511C4-73BE-471D-9552-B059F0101A9D</title>
    <desc>Created with sketchtool.</desc>
    <g id="site" stroke="none" stroke-width="1" fill="none" fill-rule="evenodd">
        <g id="how-it-works" transform="translate(-157.000000, -1733.000000)" fill="#2B9E8E" fill-rule="nonzero">
            <g id="High-Level-Language_icon" transform="translate(157.000000, 1733.000000)">
                <path d="M13.1578947,7.5 C10.043507,7.5 7.51879699,10.0183983 7.51879699,13.125 C7.51879699,16.2316017 10.043507,18.75 13.1578947,18.75 C16.2722824,18.75 18.7969925,16.2316017 18.7969925,13.125 C18.7969925,10.0183983 16.2722824,7.5 13.1578947,7.5 Z M13.1578947,15 C12.1197655,15 11.2781955,14.1605339 11.2781955,13.125 C11.2781955,12.0894661 12.1197655,11.25 13.1578947,11.25 C14.196024,11.25 15.037594,12.0894661 15.037594,13.125 C15.037594,14.1605339 14.196024,15 13.1578947,15 Z" id="Shape"></path>
                <path d="M13.1578947,21 C10.043507,21 7.51879699,23.5183983 7.51879699,26.625 C7.51879699,29.7316017 10.043507,32.25 13.1578947,32.25 C16.2722824,32.25 18.7969925,29.7316017 18.7969925,26.625 C18.7969925,23.5183983 16.2722824,21 13.1578947,21 Z M13.1578947,28.5 C12.1197655,28.5 11.2781955,27.6605339 11.2781955,26.625 C11.2781955,25.5894661 12.1197655,24.75 13.1578947,24.75 C14.196024,24.75 15.037594,25.5894661 15.037594,26.625 C15.037594,27.6605339 14.196024,28.5 13.1578947,28.5 Z" id="Shape"></path>
                <path d="M50,7.5 C46.8856123,7.5 44.3609023,10.0183983 44.3609023,13.125 C44.3609023,16.2316017 46.8856123,18.75 50,18.75 C53.1143877,18.75 55.6390977,16.2316017 55.6390977,13.125 C55.6390977,10.0183983 53.1143877,7.5 50,7.5 Z M50,15 C48.9618708,15 48.1203008,14.1605339 48.1203008,13.125 C48.1203008,12.0894661 48.9618708,11.25 50,11.25 C51.0381292,11.25 51.8796992,12.0894661 51.8796992,13.125 C51.8796992,14.1605339 51.0381292,15 50,15 Z" id="Shape"></path>
                <path d="M50,21 C46.8856123,21 44.3609023,23.5183983 44.3609023,26.625 C44.3609023,29.7316017 46.8856123,32.25 50,32.25 C53.1143877,32.25 55.6390977,29.7316017 55.6390977,26.625 C55.6390977,23.5183983 53.1143877,21 50,21 Z M50,28.5 C48.9618708,28.5 48.1203008,27.6605339 48.1203008,26.625 C48.1203008,25.5894661 48.9618708,24.75 50,24.75 C51.0381292,24.75 51.8796992,25.5894661 51.8796992,26.625 C51.8796992,27.6605339 51.0381292,28.5 50,28.5 Z" id="Shape"></path>
                <path d="M98.2142857,0 L76.7857143,0 C75.7994915,0 75,0.801565135 75,1.79034584 L75,37.5972626 C75,38.5860433 75.7994915,39.3876084 76.7857143,39.3876084 L85.7142857,39.3876084 L85.7142857,53.7103752 L66.0714286,53.7103752 C65.0852058,53.7103752 64.2857143,54.5119403 64.2857143,55.500721 L64.2857143,68.0420936 L51.6803571,63.1813046 C51.7418662,63.0146906 51.7774022,62.8395693 51.7857143,62.6621043 L51.7857143,39.3876084 L60.7142857,39.3876084 C61.7005085,39.3876084 62.5,38.5860433 62.5,37.5972626 L62.5,1.79034584 C62.5,0.801565135 61.7005085,0 60.7142857,0 L39.2857143,0 C38.2994915,0 37.5,0.801565135 37.5,1.79034584 L37.5,37.5972626 C37.5,38.5860433 38.2994915,39.3876084 39.2857143,39.3876084 L48.2142857,39.3876084 L48.2142857,62.6621043 C48.2225978,62.8395693 48.2581338,63.0146906 48.3196429,63.1813046 L35.7142857,68.0420936 L35.7142857,55.500721 C35.7142857,54.5119403 34.9147942,53.7103752 33.9285714,53.7103752 L14.2857143,53.7103752 L14.2857143,39.3876084 L23.2142857,39.3876084 C24.2005085,39.3876084 25,38.5860433 25,37.5972626 L25,1.79034584 C25,0.801565135 24.2005085,0 23.2142857,0 L1.78571429,0 C0.799491518,0 0,0.801565135 0,1.79034584 L0,37.5972626 C0,38.5860433 0.799491518,39.3876084 1.78571429,39.3876084 L10.7142857,39.3876084 L10.7142857,55.500721 C10.7142857,56.4895017 11.5137772,57.2910668 12.5,57.2910668 L32.1428571,57.2910668 L32.1428571,69.4206599 L26.1446429,71.7319964 C25.9990599,71.7987616 25.8587715,71.8765692 25.725,71.9647413 C25.2692897,72.3021008 25.0002635,72.836234 25,73.4041794 L25,102.049713 C24.9998474,102.835871 25.5112435,103.530153 26.2607143,103.761283 L49.4428571,110.911925 L49.4428571,110.911925 L49.4714286,110.920876 C49.8135198,111.026375 50.1793374,111.026375 50.5214286,110.920876 L50.55,110.911925 L50.55,110.911925 L73.7321429,103.761283 C74.4844418,103.53273 74.9991928,102.837831 75,102.049713 L75,73.4041794 C74.9974777,72.8387581 74.7286936,72.3077606 74.275,71.9719027 C74.1412285,71.8837306 74.0009401,71.805923 73.8553571,71.7391577 L67.8571429,69.4206599 L67.8571429,57.2910668 L87.5,57.2910668 C88.4862228,57.2910668 89.2857143,56.4895017 89.2857143,55.500721 L89.2857143,39.3876084 L98.2142857,39.3876084 C99.2005085,39.3876084 100,38.5860433 100,37.5972626 L100,1.79034584 C100,0.801565135 99.2005085,0 98.2142857,0 Z M41.0714286,35.8069168 L41.0714286,3.58069168 L58.9285714,3.58069168 L58.9285714,35.8069168 L41.0714286,35.8069168 Z M3.57142857,35.8069168 L3.57142857,3.58069168 L21.4285714,3.58069168 L21.4285714,35.8069168 L3.57142857,35.8069168 Z M48.2142857,106.786968 L28.5714286,100.726647 L28.5714286,75.8283076 L48.2142857,81.8886283 L48.2142857,106.786968 Z M50,78.692861 L32.2482143,73.2251448 L50,66.3699106 L67.7517857,73.2251448 L50,78.692861 Z M71.4285714,100.726647 L51.7857143,106.786968 L51.7857143,81.8886283 L71.4285714,75.8283076 L71.4285714,100.726647 Z M96.4285714,35.8069168 L78.5714286,35.8069168 L78.5714286,3.58069168 L96.4285714,3.58069168 L96.4285714,35.8069168 Z" id="Shape"></path>
                <path d="M88.3458647,18.75 C91.4602523,18.75 93.9849624,16.2316017 93.9849624,13.125 C93.9849624,10.0183983 91.4602523,7.5 88.3458647,7.5 C85.231477,7.5 82.7067669,10.0183983 82.7067669,13.125 C82.7067669,16.2316017 85.231477,18.75 88.3458647,18.75 L88.3458647,18.75 Z M88.3458647,11.25 C89.3839939,11.25 90.2255639,12.0894661 90.2255639,13.125 C90.2255639,14.1605339 89.3839939,15 88.3458647,15 C87.3077354,15 86.4661654,14.1605339 86.4661654,13.125 C86.4661654,12.0894661 87.3077354,11.25 88.3458647,11.25 Z" id="Shape"></path>
                <path d="M82.1428571,33 L85.5263158,33 C86.4606321,33 87.2180451,32.1605339 87.2180451,31.125 C87.2180451,30.0894661 86.4606321,29.25 85.5263158,29.25 L82.1428571,29.25 C81.2085408,29.25 80.4511278,30.0894661 80.4511278,31.125 C80.4511278,32.1605339 81.2085408,33 82.1428571,33 Z" id="Path"></path>
                <path d="M91.2280702,29.25 C90.2591496,29.25 89.4736842,30.0894661 89.4736842,31.125 C89.4736842,32.1605339 90.2591496,33 91.2280702,33 L92.9824561,33 C93.9513768,33 94.7368421,32.1605339 94.7368421,31.125 C94.7368421,30.0894661 93.9513768,29.25 92.9824561,29.25 L91.2280702,29.25 Z" id="Path"></path>
            </g>
        </g>
    </g>
</svg>