<?xml version="1.0" encoding="UTF-8"?>
<svg width="61px" height="40px" viewBox="0 0 61 40" version="1.1" xmlns="http://www.w3.org/2000/svg" xmlns:xlink="http://www.w3.org/1999/xlink">
    <!-- Generator: sketchtool 58 (101010) - https://sketch.com -->
    <title>C8254CC2-472F-417A-9DD4-7C357AEBBD50</title>
    <desc>Created with sketchtool.</desc>
    <g id="site" stroke="none" stroke-width="1" fill="none" fill-rule="evenodd">
        <g id="resources" transform="translate(-113.000000, -2378.000000)" fill-rule="nonzero">
            <g id="footer" transform="translate(0.000000, 2316.000000)">
                <g id="Reach_vertical_dark_bg" transform="translate(113.000000, 62.000000)">
                    <path d="M8.592,39 L11.67,39 L8.106,34.086 C8.34600018,34.014 8.62199982,33.9030002 8.934,33.753 C9.24596338,33.6029998 9.53996301,33.4080002 9.816,33.168 C10.1639601,32.8559998 10.4399597,32.475 10.644,32.025 C10.8479996,31.575 10.95,31.08 10.95,30.54 C10.95,30.0839998 10.869,29.6340004 10.707,29.19 C10.545,28.7459996 10.2719996,28.3319996 9.888,27.948 C9.61200037,27.6720004 9.312,27.4560004 8.988,27.3 C8.664,27.1439996 8.322,27.03 7.962,26.958 C7.602,26.886 7.23599982,26.841 6.864,26.823 C6.49200018,26.805 6.11999982,26.796 5.748,26.796 L0.942,26.796 L0.942,39 L3.606,39 L3.606,34.392 L5.316,34.392 L8.592,39 Z M8.25,30.558 C8.25,30.9659998 8.16600018,31.2809998 7.998,31.503 C7.82999982,31.7250002 7.611,31.89 7.341,31.998 C7.071,32.106 6.76799982,32.169 6.432,32.187 C6.09600018,32.205 5.75999982,32.214 5.424,32.214 L3.606,32.214 L3.606,28.974 L5.658,28.974 C6.07800018,28.974 6.47999982,28.9950004 6.864,29.037 C7.24800018,29.0789996 7.57799982,29.2380004 7.854,29.514 C7.98600018,29.6459996 8.08500018,29.793 8.151,29.955 C8.21699982,30.117 8.25,30.3179998 8.25,30.558 Z M13.1383077,39 L22.4263077,39 L22.4263077,36.75 L15.8023077,36.75 L15.8023077,33.942 L21.7243077,33.942 L21.7243077,31.746 L15.8023077,31.746 L15.8023077,29.028 L22.1743077,29.028 L22.1743077,26.796 L13.1383077,26.796 L13.1383077,39 Z M33.8466154,39 L36.6906154,39 L31.7046154,26.796 L28.9326154,26.796 L23.9286154,39 L26.6826154,39 L27.6546154,36.642 L32.8746154,36.642 L33.8466154,39 Z M30.2646154,29.622 L32.1006154,34.464 L28.4286154,34.464 L30.2646154,29.622 Z M48.356615,37.2 L46.862615,35.598 L46.529615,35.904 L46.529615,35.904 C46.3556926,36.0600001 46.1186923,36.2220001 45.818615,36.39 C45.5186322,36.5579999 45.161632,36.7079998 44.747615,36.84 C44.333615,36.9720002 43.8686148,37.038 43.352615,37.038 C42.776615,37.038 42.2516152,36.9329998 41.777615,36.723 C41.3036247,36.5129999 40.9016245,36.2220001 40.571615,35.85 C40.2416151,35.4779999 39.986615,35.04 39.806615,34.536 C39.626615,34.032 39.536615,33.4800002 39.536615,32.88 C39.536615,32.34 39.6146149,31.818 39.770615,31.314 C39.9266151,30.81 40.1636149,30.369 40.481615,29.991 C40.7996148,29.613 41.1956148,29.3100004 41.669615,29.082 C42.1436152,28.8539996 42.704615,28.74 43.352615,28.74 C43.856615,28.74 44.3036152,28.8089996 44.693615,28.947 C45.0836148,29.0849246 45.413615,29.2409249 45.683615,29.415 C45.953615,29.5890004 46.160615,29.7510004 46.304615,29.901 L46.556615,30.162 L46.556615,30.162 L48.158615,28.614 L48.0716151,28.5059999 C47.995615,28.418 47.8836148,28.2980002 47.735615,28.146 C47.5136154,27.9179996 47.204615,27.6839996 46.808615,27.444 C46.412615,27.2040004 45.9236146,26.9880004 45.341615,26.796 C44.7596148,26.6039996 44.0666148,26.508 43.262615,26.508 C42.218615,26.508 41.2946148,26.679 40.490615,27.021 C39.6866149,27.363 39.0116149,27.8250004 38.465615,28.407 C37.9196148,28.9889996 37.5056148,29.667 37.223615,30.441 C36.9416149,31.215 36.800615,32.0400002 36.800615,32.916 C36.800615,33.8040002 36.9386151,34.6350003 37.214615,35.409 C37.4906152,36.183 37.898615,36.858 38.438615,37.434 C38.978615,38.01 39.6476151,38.4630001 40.445615,38.793 C41.2436152,39.1229999 42.1706152,39.288 43.226615,39.288 C44.0666148,39.288 44.8046148,39.1830001 45.440615,38.973 C46.0766146,38.7629999 46.6076146,38.5289999 47.033615,38.271 C47.4596154,38.0130001 47.7836154,37.776 48.005615,37.56 L48.2331862,37.3351837 C48.3086147,37.2587756 48.3497576,37.2137144 48.356615,37.2 Z M58.112615,39 L58.112615,33.942 L52.730615,33.942 L52.730615,39 L50.066615,39 L50.066615,26.796 L52.730615,26.796 L52.730615,31.71 L58.112615,31.71 L58.112615,26.796 L60.776615,26.796 L60.776615,39 L58.112615,39 Z" id="REACH" fill="#FFFFFF"></path>
                    <g id="Group-5" transform="translate(13.000000, 0.000000)">
                        <path d="M10.7308526,6.98965444 L14.5007132,13.5012318 L14.5007132,13.5012318 C12.4417285,17.6197984 10.6081574,19.7860544 9,20 C7.90223265,20.1460444 5.84524953,20.6583713 2.82905062,21.5369807 C1.76855755,21.8459032 0.65842909,21.2366308 0.34951043,20.1761367 C0.19672827,19.6516472 0.26513841,19.0874882 0.53884899,18.6147154 L7.26914743,6.98965444 C7.82257681,6.03373096 9.0461491,5.70744503 10.0020725,6.26087441 C10.3044956,6.43596143 10.5557655,6.6872314 10.7308526,6.98965444 Z" id="Triangle" fill="#F3A261"></path>
                        <path d="M19.2118311,1.83337559 L27.5941132,15.7074977 C28.1653034,16.6529159 27.8619316,17.8823699 26.9165134,18.4535601 C26.2665658,18.8462368 25.4503023,18.8369666 24.8094404,18.4296302 L22.8857143,17.2068966 L22.8857143,17.2068966 L7.92257497,21.5659562 C6.86208944,21.8748967 5.75195031,21.265649 5.44300982,20.2051635 C5.2865796,19.6681928 5.36213883,19.090253 5.65135764,18.611546 L15.7881689,1.83337559 C16.3593591,0.88795739 17.5888131,0.58458562 18.5342313,1.15577578 C18.8116705,1.3233953 19.0442116,1.55593639 19.2118311,1.83337559 Z" id="Triangle-Copy-3" fill="#E5C66B"></path>
                        <path d="M24.1046455,3.77794075 L33.0662313,18.3820066 C33.6439391,19.3234563 33.349068,20.5549767 32.4076183,21.1326845 C31.909159,21.4385572 31.3017942,21.5109324 30.7454161,21.3307568 L22.8354839,18.7692308 L22.8354839,18.7692308 L13.9410129,21.4695643 C12.8840793,21.790446 11.7671393,21.1937581 11.4462575,20.1368244 C11.2801001,19.5895283 11.3562139,18.997281 11.6553597,18.5097842 L20.6953545,3.77794075 C21.2730623,2.83649106 22.5045827,2.54161996 23.4460324,3.11932773 C23.7143435,3.28397315 23.94,3.50962968 24.1046455,3.77794075 Z" id="Triangle-Copy-4" fill="#2B9E8E"></path>
                    </g>
                </g>
            </g>
        </g>
    </g>
</svg>