<?xml version="1.0" encoding="UTF-8"?>
<svg width="61px" height="37px" viewBox="0 0 61 37" version="1.1" xmlns="http://www.w3.org/2000/svg" xmlns:xlink="http://www.w3.org/1999/xlink">
    <!-- Generator: sketchtool 58 (101010) - https://sketch.com -->
    <title>D6A3449D-E6D9-43CE-99CC-848D28101F2D</title>
    <desc>Created with sketchtool.</desc>
    <g id="site" stroke="none" stroke-width="1" fill="none" fill-rule="evenodd">
        <g id="reach_home" transform="translate(-103.000000, -12.000000)" fill-rule="nonzero">
            <g id="header">
                <g id="Reach_vertical">
                    <g transform="translate(103.000000, 11.250000)">
                        <path d="M8.592,36.5625 L11.67,36.5625 L8.106,31.955625 C8.34600018,31.888125 8.62199982,31.7840627 8.934,31.6434375 C9.24596338,31.5028123 9.53996301,31.3200002 9.816,31.095 C10.1639601,30.8024998 10.4399597,30.4453125 10.644,30.0234375 C10.8479996,29.6015625 10.95,29.1375 10.95,28.63125 C10.95,28.2037498 10.869,27.7818754 10.707,27.365625 C10.545,26.9493746 10.2719996,26.5612496 9.888,26.20125 C9.61200037,25.9425004 9.312,25.7400004 8.988,25.59375 C8.664,25.4474996 8.322,25.340625 7.962,25.273125 C7.602,25.205625 7.23599982,25.1634375 6.864,25.1465625 C6.49200018,25.1296875 6.11999982,25.12125 5.748,25.12125 L0.942,25.12125 L0.942,36.5625 L3.606,36.5625 L3.606,32.2425 L5.316,32.2425 L8.592,36.5625 Z M8.25,28.648125 C8.25,29.0306248 8.16600018,29.3259373 7.998,29.5340625 C7.82999982,29.7421877 7.611,29.896875 7.341,29.998125 C7.071,30.099375 6.76799982,30.1584375 6.432,30.1753125 C6.09600018,30.1921875 5.75999982,30.200625 5.424,30.200625 L3.606,30.200625 L3.606,27.163125 L5.658,27.163125 C6.07800018,27.163125 6.47999982,27.1828129 6.864,27.2221875 C7.24800018,27.2615621 7.57799982,27.4106254 7.854,27.669375 C7.98600018,27.7931246 8.08500018,27.9309375 8.151,28.0828125 C8.21699982,28.2346875 8.25,28.4231248 8.25,28.648125 Z M13.1383077,36.5625 L22.4263077,36.5625 L22.4263077,34.453125 L15.8023077,34.453125 L15.8023077,31.820625 L21.7243077,31.820625 L21.7243077,29.761875 L15.8023077,29.761875 L15.8023077,27.21375 L22.1743077,27.21375 L22.1743077,25.12125 L13.1383077,25.12125 L13.1383077,36.5625 Z M33.8466154,36.5625 L36.6906154,36.5625 L31.7046154,25.12125 L28.9326154,25.12125 L23.9286154,36.5625 L26.6826154,36.5625 L27.6546154,34.351875 L32.8746154,34.351875 L33.8466154,36.5625 Z M30.2646154,27.770625 L32.1006154,32.31 L28.4286154,32.31 L30.2646154,27.770625 Z M48.356615,34.875 L46.862615,33.373125 L46.529615,33.66 L46.529615,33.66 C46.3556926,33.8062501 46.1186923,33.9581251 45.818615,34.115625 C45.5186322,34.2731249 45.161632,34.4137498 44.747615,34.5375 C44.333615,34.6612502 43.8686148,34.723125 43.352615,34.723125 C42.776615,34.723125 42.2516152,34.6246873 41.777615,34.4278125 C41.3036247,34.2309374 40.9016245,33.9581251 40.571615,33.609375 C40.2416151,33.2606249 39.986615,32.85 39.806615,32.3775 C39.626615,31.905 39.536615,31.3875002 39.536615,30.825 C39.536615,30.31875 39.6146149,29.829375 39.770615,29.356875 C39.9266151,28.884375 40.1636149,28.4709375 40.481615,28.1165625 C40.7996148,27.7621875 41.1956148,27.4781254 41.669615,27.264375 C42.1436152,27.0506246 42.704615,26.94375 43.352615,26.94375 C43.856615,26.94375 44.3036152,27.0084371 44.693615,27.1378125 C45.0836148,27.2671168 45.413615,27.4133671 45.683615,27.5765625 C45.953615,27.7396879 46.160615,27.8915629 46.304615,28.0321875 L46.556615,28.276875 L46.556615,28.276875 L48.158615,26.825625 L48.0716151,26.7243749 C47.995615,26.641875 47.8836148,26.5293752 47.735615,26.386875 C47.5136154,26.1731246 47.204615,25.9537496 46.808615,25.72875 C46.412615,25.5037504 45.9236146,25.3012504 45.341615,25.12125 C44.7596148,24.9412496 44.0666148,24.85125 43.262615,24.85125 C42.218615,24.85125 41.2946148,25.0115625 40.490615,25.3321875 C39.6866149,25.6528125 39.0116149,26.0859379 38.465615,26.6315625 C37.9196148,27.1771871 37.5056148,27.8128125 37.223615,28.5384375 C36.9416149,29.2640625 36.800615,30.0375002 36.800615,30.85875 C36.800615,31.6912502 36.9386151,32.4703128 37.214615,33.1959375 C37.4906152,33.9215625 37.898615,34.554375 38.438615,35.094375 C38.978615,35.634375 39.6476151,36.0590626 40.445615,36.3684375 C41.2436152,36.6778124 42.1706152,36.8325 43.226615,36.8325 C44.0666148,36.8325 44.8046148,36.7340626 45.440615,36.5371875 C46.0766146,36.3403124 46.6076146,36.1209374 47.033615,35.8790625 C47.4596154,35.6371876 47.7836154,35.415 48.005615,35.2125 L48.2331862,35.0017347 C48.3086147,34.9301021 48.3497576,34.8878573 48.356615,34.875 Z M58.112615,36.5625 L58.112615,31.820625 L52.730615,31.820625 L52.730615,36.5625 L50.066615,36.5625 L50.066615,25.12125 L52.730615,25.12125 L52.730615,29.728125 L58.112615,29.728125 L58.112615,25.12125 L60.776615,25.12125 L60.776615,36.5625 L58.112615,36.5625 Z" id="REACH" fill="#254858"></path>
                        <g id="Group-5" transform="translate(13.000000, 0.000000)">
                            <path d="M10.7308526,6.55280104 L14.5007132,12.6574048 L14.5007132,12.6574048 C12.4417285,16.518561 10.6081574,18.549426 9,18.75 C7.90223265,18.8869166 5.84524953,19.3672231 2.82905062,20.1909194 C1.76855755,20.4805343 0.65842909,19.9093414 0.34951043,18.9151282 C0.19672827,18.4234193 0.26513841,17.8945202 0.53884899,17.4512957 L7.26914743,6.55280104 C7.82257681,5.65662277 9.0461491,5.35072972 10.0020725,5.86956976 C10.3044956,6.03371384 10.5557655,6.26927944 10.7308526,6.55280104 Z" id="Triangle" fill="#F3A261"></path>
                            <path d="M19.2118311,1.71878962 L27.5941132,14.7257791 C28.1653034,15.6121087 27.8619316,16.7647218 26.9165134,17.3002126 C26.2665658,17.668347 25.4503023,17.6596562 24.8094404,17.2777783 L22.8857143,16.1314656 L22.8857143,16.1314656 L7.92257497,20.2180839 C6.86208944,20.5077157 5.75195031,19.9365459 5.44300982,18.9423408 C5.2865796,18.4389308 5.36213883,17.8971122 5.65135764,17.4483244 L15.7881689,1.71878962 C16.3593591,0.832460053 17.5888131,0.548049019 18.5342313,1.08353979 C18.8116705,1.24068309 19.0442116,1.45869037 19.2118311,1.71878962 Z" id="Triangle-Copy-3" fill="#E5C66B"></path>
                            <path d="M24.1046455,3.54181945 L33.0662313,17.2331312 C33.6439391,18.1157403 33.349068,19.2702907 32.4076183,19.8118917 C31.909159,20.0986474 31.3017942,20.1664991 30.7454161,19.9975845 L22.8354839,17.5961539 L22.8354839,17.5961539 L13.9410129,20.1277165 C12.8840793,20.4285431 11.7671393,19.8691482 11.4462575,18.8782729 C11.2801001,18.3651828 11.3562139,17.8099509 11.6553597,17.3529227 L20.6953545,3.54181945 C21.2730623,2.65921037 22.5045827,2.38276871 23.4460324,2.92436975 C23.7143435,3.07872483 23.94,3.29027782 24.1046455,3.54181945 Z" id="Triangle-Copy-4" fill="#2B9E8E"></path>
                        </g>
                    </g>
                </g>
            </g>
        </g>
    </g>
</svg>