<?xml version="1.0" encoding="UTF-8"?>
<svg width="100px" height="100px" viewBox="0 0 100 100" version="1.1" xmlns="http://www.w3.org/2000/svg" xmlns:xlink="http://www.w3.org/1999/xlink">
    <!-- Generator: sketchtool 58 (101010) - https://sketch.com -->
    <title>98A5613E-27D5-4701-8D03-7DF41497E6F4</title>
    <desc>Created with sketchtool.</desc>
    <g id="site" stroke="none" stroke-width="1" fill="none" fill-rule="evenodd">
        <g id="how-it-works" transform="translate(-157.000000, -2181.000000)" fill="#2B9E8E" fill-rule="nonzero">
            <g id="Safety-Guarantees_icon" transform="translate(157.000000, 2181.000000)">
                <path d="M63.7844612,65.4135338 L37.7192982,65.4135338 C36.8195862,65.4135338 36.0902256,64.6841732 36.0902256,63.7844612 L36.0902256,37.7192982 C36.0902256,36.8195862 36.8195862,36.0902256 37.7192982,36.0902256 L63.7844612,36.0902256 C64.6841732,36.0902256 65.4135338,36.8195862 65.4135338,37.7192982 L65.4135338,63.7844612 C65.4135338,64.6841732 64.6841732,65.4135338 63.7844612,65.4135338 Z M39.3483709,62.1553885 L62.1553885,62.1553885 L62.1553885,39.3483709 L39.3483709,39.3483709 L39.3483709,62.1553885 Z" id="Shape"></path>
                <path d="M27.6942356,29.3233083 L1.62907268,29.3233083 C0.729360683,29.3233083 0,28.5939476 0,27.6942356 L0,1.62907268 C0,0.729360683 0.729360683,0 1.62907268,0 L27.6942356,0 C28.5939476,0 29.3233083,0.729360683 29.3233083,1.62907268 L29.3233083,27.6942356 C29.3233083,28.5939476 28.5939476,29.3233083 27.6942356,29.3233083 Z M3.25814536,26.0651629 L26.0651629,26.0651629 L26.0651629,3.25814536 L3.25814536,3.25814536 L3.25814536,26.0651629 Z" id="Shape"></path>
                <path d="M98.3709273,100 L72.3057644,100 C71.4060524,100 70.6766917,99.2706393 70.6766917,98.3709273 L70.6766917,72.3057644 C70.6766917,71.4060524 71.4060524,70.6766917 72.3057644,70.6766917 L98.3709273,70.6766917 C99.2706393,70.6766917 100,71.4060524 100,72.3057644 L100,98.3709273 C100,99.2706393 99.2706393,100 98.3709273,100 Z M73.9348371,96.7418546 L96.7418546,96.7418546 L96.7418546,73.9348371 L73.9348371,73.9348371 L73.9348371,96.7418546 Z" id="Shape"></path>
                <path d="M98.3709273,29.3233083 L72.3057644,29.3233083 C71.4060524,29.3233083 70.6766917,28.5939476 70.6766917,27.6942356 L70.6766917,1.62907268 C70.6766917,0.729360683 71.4060524,0 72.3057644,0 L98.3709273,0 C99.2706393,0 100,0.729360683 100,1.62907268 L100,27.6942356 C100,28.5939476 99.2706393,29.3233083 98.3709273,29.3233083 Z M73.9348371,26.0651629 L96.7418546,26.0651629 L96.7418546,3.25814536 L73.9348371,3.25814536 L73.9348371,26.0651629 Z" id="Shape"></path>
                <path d="M27.6942356,100 L1.62907268,100 C0.729360683,100 0,99.2706393 0,98.3709273 L0,72.3057644 C0,71.4060524 0.729360683,70.6766917 1.62907268,70.6766917 L27.6942356,70.6766917 C28.5939476,70.6766917 29.3233083,71.4060524 29.3233083,72.3057644 L29.3233083,98.3709273 C29.3233083,99.2706393 28.5939476,100 27.6942356,100 Z M3.25814536,96.7418546 L26.0651629,96.7418546 L26.0651629,73.9348371 L3.25814536,73.9348371 L3.25814536,96.7418546 Z" id="Shape"></path>
                <path d="M53.2581454,19.5488722 L46.7418546,19.5488722 C45.8421426,19.5488722 45.112782,18.8195115 45.112782,17.9197995 L45.112782,11.4035088 C45.112782,10.5037968 45.8421426,9.77443609 46.7418546,9.77443609 L53.2581454,9.77443609 C54.1578574,9.77443609 54.887218,10.5037968 54.887218,11.4035088 L54.887218,17.9197995 C54.887218,18.8195115 54.1578574,19.5488722 53.2581454,19.5488722 Z M48.3709273,16.2907268 L51.6290727,16.2907268 L51.6290727,13.0325815 L48.3709273,13.0325815 L48.3709273,16.2907268 Z" id="Shape"></path>
                <path d="M50.3759398,37.593985 C49.5454365,37.593985 48.8721805,36.8926766 48.8721805,36.0275689 L48.8721805,20.3634085 C48.8721805,19.4983008 49.5454365,18.7969925 50.3759398,18.7969925 C51.2064432,18.7969925 51.8796992,19.4983008 51.8796992,20.3634085 L51.8796992,36.0275689 C51.8796992,36.8926766 51.2064432,37.593985 50.3759398,37.593985 Z" id="Path"></path>
                <path d="M70.6140351,16.5413534 L54.9498747,16.5413534 C54.084767,16.5413534 53.3834586,15.8680974 53.3834586,15.037594 C53.3834586,14.2070906 54.084767,13.5338346 54.9498747,13.5338346 L70.6140351,13.5338346 C71.4791428,13.5338346 72.1804511,14.2070906 72.1804511,15.037594 C72.1804511,15.8680974 71.4791428,16.5413534 70.6140351,16.5413534 Z" id="Path"></path>
                <path d="M53.2581454,90.2255639 L46.7418546,90.2255639 C45.8421426,90.2255639 45.112782,89.4962032 45.112782,88.5964912 L45.112782,82.0802005 C45.112782,81.1804885 45.8421426,80.4511278 46.7418546,80.4511278 L53.2581454,80.4511278 C54.1578574,80.4511278 54.887218,81.1804885 54.887218,82.0802005 L54.887218,88.5964912 C54.887218,89.4962032 54.1578574,90.2255639 53.2581454,90.2255639 Z M48.3709273,86.9674185 L51.6290727,86.9674185 L51.6290727,83.7092732 L48.3709273,83.7092732 L48.3709273,86.9674185 Z" id="Shape"></path>
                <path d="M50.3759398,81.2030075 C49.5454365,81.2030075 48.8721805,80.5016992 48.8721805,79.6365915 L48.8721805,63.9724311 C48.8721805,63.1073234 49.5454365,62.406015 50.3759398,62.406015 C51.2064432,62.406015 51.8796992,63.1073234 51.8796992,63.9724311 L51.8796992,79.6365915 C51.8796992,80.5016992 51.2064432,81.2030075 50.3759398,81.2030075 Z" id="Path"></path>
                <path d="M45.0501253,86.4661654 L29.3859649,86.4661654 C28.5208572,86.4661654 27.8195489,85.7929094 27.8195489,84.962406 C27.8195489,84.1319026 28.5208572,83.4586466 29.3859649,83.4586466 L45.0501253,83.4586466 C45.915233,83.4586466 46.6165414,84.1319026 46.6165414,84.962406 C46.6165414,85.7929094 45.915233,86.4661654 45.0501253,86.4661654 Z" id="Path"></path>
                <path d="M17.9197995,54.887218 L11.4035088,54.887218 C10.5037968,54.887218 9.77443609,54.1578574 9.77443609,53.2581454 L9.77443609,46.7418546 C9.77443609,45.8421426 10.5037968,45.112782 11.4035088,45.112782 L17.9197995,45.112782 C18.8195115,45.112782 19.5488722,45.8421426 19.5488722,46.7418546 L19.5488722,53.2581454 C19.5488722,54.1578574 18.8195115,54.887218 17.9197995,54.887218 Z M13.0325815,51.6290727 L16.2907268,51.6290727 L16.2907268,48.3709273 L13.0325815,48.3709273 L13.0325815,51.6290727 Z" id="Shape"></path>
                <path d="M36.0275689,51.8796992 L20.3634085,51.8796992 C19.4983008,51.8796992 18.7969925,51.2064432 18.7969925,50.3759398 C18.7969925,49.5454365 19.4983008,48.8721805 20.3634085,48.8721805 L36.0275689,48.8721805 C36.8926766,48.8721805 37.593985,49.5454365 37.593985,50.3759398 C37.593985,51.2064432 36.8926766,51.8796992 36.0275689,51.8796992 Z" id="Path"></path>
                <path d="M15.037594,46.6165414 C14.2070906,46.6165414 13.5338346,45.915233 13.5338346,45.0501253 L13.5338346,29.3859649 C13.5338346,28.5208572 14.2070906,27.8195489 15.037594,27.8195489 C15.8680974,27.8195489 16.5413534,28.5208572 16.5413534,29.3859649 L16.5413534,45.0501253 C16.5413534,45.915233 15.8680974,46.6165414 15.037594,46.6165414 Z" id="Path"></path>
                <path d="M88.5964912,54.887218 L82.0802005,54.887218 C81.1804885,54.887218 80.4511278,54.1578574 80.4511278,53.2581454 L80.4511278,46.7418546 C80.4511278,45.8421426 81.1804885,45.112782 82.0802005,45.112782 L88.5964912,45.112782 C89.4962032,45.112782 90.2255639,45.8421426 90.2255639,46.7418546 L90.2255639,53.2581454 C90.2255639,54.1578574 89.4962032,54.887218 88.5964912,54.887218 Z M83.7092732,51.6290727 L86.9674185,51.6290727 L86.9674185,48.3709273 L83.7092732,48.3709273 L83.7092732,51.6290727 Z" id="Shape"></path>
                <path d="M79.6365915,51.8796992 L63.9724311,51.8796992 C63.1073234,51.8796992 62.406015,51.2064432 62.406015,50.3759398 C62.406015,49.5454365 63.1073234,48.8721805 63.9724311,48.8721805 L79.6365915,48.8721805 C80.5016992,48.8721805 81.2030075,49.5454365 81.2030075,50.3759398 C81.2030075,51.2064432 80.5016992,51.8796992 79.6365915,51.8796992 Z" id="Path"></path>
                <path d="M84.962406,72.1804511 C84.1319026,72.1804511 83.4586466,71.4791428 83.4586466,70.6140351 L83.4586466,54.9498747 C83.4586466,54.084767 84.1319026,53.3834586 84.962406,53.3834586 C85.7929094,53.3834586 86.4661654,54.084767 86.4661654,54.9498747 L86.4661654,70.6140351 C86.4661654,71.4791428 85.7929094,72.1804511 84.962406,72.1804511 Z" id="Path"></path>
                <path d="M50,54.887218 C47.300864,54.887218 45.112782,52.699136 45.112782,50 C45.112782,47.300864 47.300864,45.112782 50,45.112782 C52.699136,45.112782 54.887218,47.300864 54.887218,50 C54.887218,52.699136 52.699136,54.887218 50,54.887218 Z M50,48.3709273 C49.100288,48.3709273 48.3709273,49.100288 48.3709273,50 C48.3709273,50.899712 49.100288,51.6290727 50,51.6290727 C50.899712,51.6290727 51.6290727,50.899712 51.6290727,50 C51.6290727,49.100288 50.899712,48.3709273 50,48.3709273 Z" id="Shape"></path>
                <path d="M14.6616541,19.5488722 C11.9625181,19.5488722 9.77443609,17.3607901 9.77443609,14.6616541 C9.77443609,11.9625181 11.9625181,9.77443609 14.6616541,9.77443609 C17.3607901,9.77443609 19.5488722,11.9625181 19.5488722,14.6616541 C19.5488722,15.957825 19.0339703,17.200908 18.1174392,18.1174392 C17.200908,19.0339703 15.957825,19.5488722 14.6616541,19.5488722 Z M14.6616541,13.0325815 C13.7619421,13.0325815 13.0325815,13.7619421 13.0325815,14.6616541 C13.0325815,15.5613661 13.7619421,16.2907268 14.6616541,16.2907268 C15.5613661,16.2907268 16.2907268,15.5613661 16.2907268,14.6616541 C16.2907268,13.7619421 15.5613661,13.0325815 14.6616541,13.0325815 Z" id="Shape"></path>
                <path d="M14.6616541,90.2255639 C11.9625181,90.2255639 9.77443609,88.0374819 9.77443609,85.3383459 C9.77443609,82.6392099 11.9625181,80.4511278 14.6616541,80.4511278 C17.3607901,80.4511278 19.5488722,82.6392099 19.5488722,85.3383459 C19.5488722,88.0374819 17.3607901,90.2255639 14.6616541,90.2255639 Z M14.6616541,83.7092732 C13.7619421,83.7092732 13.0325815,84.4386339 13.0325815,85.3383459 C13.0325815,86.2380579 13.7619421,86.9674185 14.6616541,86.9674185 C15.5613661,86.9674185 16.2907268,86.2380579 16.2907268,85.3383459 C16.2907268,84.4386339 15.5613661,83.7092732 14.6616541,83.7092732 Z" id="Shape"></path>
                <path d="M85.3383459,19.5488722 C82.6392099,19.5488722 80.4511278,17.3607901 80.4511278,14.6616541 C80.4511278,11.9625181 82.6392099,9.77443609 85.3383459,9.77443609 C88.0374819,9.77443609 90.2255639,11.9625181 90.2255639,14.6616541 C90.2255639,15.957825 89.7106621,17.200908 88.7941309,18.1174392 C87.8775997,19.0339703 86.6345167,19.5488722 85.3383459,19.5488722 Z M85.3383459,13.0325815 C84.4386339,13.0325815 83.7092732,13.7619421 83.7092732,14.6616541 C83.7092732,15.5613661 84.4386339,16.2907268 85.3383459,16.2907268 C86.2380579,16.2907268 86.9674185,15.5613661 86.9674185,14.6616541 C86.9674185,13.7619421 86.2380579,13.0325815 85.3383459,13.0325815 Z" id="Shape"></path>
                <path d="M85.3383459,90.2255639 C82.6392099,90.2255639 80.4511278,88.0374819 80.4511278,85.3383459 C80.4511278,82.6392099 82.6392099,80.4511278 85.3383459,80.4511278 C88.0374819,80.4511278 90.2255639,82.6392099 90.2255639,85.3383459 C90.2255639,88.0374819 88.0374819,90.2255639 85.3383459,90.2255639 Z M85.3383459,83.7092732 C84.4386339,83.7092732 83.7092732,84.4386339 83.7092732,85.3383459 C83.7092732,86.2380579 84.4386339,86.9674185 85.3383459,86.9674185 C86.2380579,86.9674185 86.9674185,86.2380579 86.9674185,85.3383459 C86.9674185,84.4386339 86.2380579,83.7092732 85.3383459,83.7092732 Z" id="Shape"></path>
                <path d="M87.7819549,94.7368421 L77.6315789,94.7368421 C76.6972626,94.7368421 75.9398496,94.0635861 75.9398496,93.2330827 C75.9398496,92.4025793 76.6972626,91.7293233 77.6315789,91.7293233 L87.7819549,91.7293233 C88.7162712,91.7293233 89.4736842,92.4025793 89.4736842,93.2330827 C89.4736842,94.0635861 88.7162712,94.7368421 87.7819549,94.7368421 Z" id="Path"></path>
                <path d="M93.7343358,94.7368421 L91.9799499,94.7368421 C91.0110293,94.7368421 90.2255639,94.0635861 90.2255639,93.2330827 C90.2255639,92.4025793 91.0110293,91.7293233 91.9799499,91.7293233 L93.7343358,91.7293233 C94.7032565,91.7293233 95.4887218,92.4025793 95.4887218,93.2330827 C95.4887218,94.0635861 94.7032565,94.7368421 93.7343358,94.7368421 Z" id="Path"></path>
            </g>
        </g>
    </g>
</svg>