<?xml version="1.0" encoding="UTF-8"?>
<svg width="18px" height="19px" viewBox="0 0 18 19" version="1.1" xmlns="http://www.w3.org/2000/svg" xmlns:xlink="http://www.w3.org/1999/xlink">
    <!-- Generator: sketchtool 58 (101010) - https://sketch.com -->
    <title>9B8D1CE7-2AB6-4214-AC91-2636A2269EF4</title>
    <desc>Created with sketchtool.</desc>
    <defs>
        <path d="M20,13 C20.5128358,13 20.9355072,13.3860402 20.9932723,13.8833789 L21,14 L21,16.5714286 C21,18.916483 19.3460333,20.8777929 17.2023678,20.9945067 L17,21 L7,21 C4.82686524,21 3.10704601,19.1097524 3.00481007,16.7901086 L3,16.5714286 L3,14 C3,13.4477153 3.44771525,13 4,13 C4.51283584,13 4.93550716,13.3860402 4.99327227,13.8833789 L5,14 L5,16.5714286 C5,17.8806754 5.84845174,18.9072583 6.86097583,18.9940514 L7,19 L17,19 C18.0260257,19 18.9190873,18.0303409 18.9948053,16.7481485 L19,16.5714286 L19,14 C19,13.4477153 19.4477153,13 20,13 Z M12,2 C12.5522847,2 13,2.44771525 13,3 L13,10.585 L14.8284271,8.75735931 C15.2189514,8.36683502 15.8521164,8.36683502 16.2426407,8.75735931 C16.633165,9.1478836 16.633165,9.78104858 16.2426407,10.1715729 L12.7071068,13.7071068 C12.6786405,13.7355731 12.6484659,13.7623312 12.6167501,13.787214 L12.7071068,13.7071068 C12.6717127,13.7425008 12.6343256,13.774687 12.5953066,13.8036654 C12.5711307,13.8215099 12.546275,13.8382813 12.5206602,13.8539326 C12.5086131,13.8613931 12.4963944,13.8685012 12.4840621,13.8753288 C12.4642939,13.8862061 12.4438914,13.8966234 12.4230991,13.9063462 C12.4060985,13.914321 12.3887956,13.9218036 12.371336,13.9287745 C12.3515792,13.9366843 12.3317977,13.9438775 12.3117364,13.9504533 C12.2968513,13.9552713 12.2814633,13.9599023 12.265993,13.9641549 C12.2444365,13.9701664 12.2227461,13.9753602 12.2007941,13.9798348 C12.1833753,13.9832978 12.165949,13.9863719 12.1484669,13.9889822 C12.1281144,13.9920941 12.1070574,13.994564 12.085811,13.9963697 C12.0679231,13.997855 12.050591,13.9988772 12.0332468,13.9994506 C12.0224019,13.9998151 12.0112225,14 12,14 L11.9677454,13.9994829 C11.9497336,13.9989053 11.9317345,13.9978436 11.9137692,13.9962979 L12,14 C11.9493797,14 11.8996379,13.9962388 11.8510388,13.9889807 C11.834051,13.9863719 11.8166247,13.9832978 11.7992742,13.9797599 C11.7772539,13.9753602 11.7555635,13.9701664 11.7341604,13.964279 C11.7185367,13.9599023 11.7031487,13.9552713 11.6878575,13.9502619 C11.6682023,13.9438775 11.6484208,13.9366843 11.6289415,13.928896 C11.6112044,13.9218036 11.5939015,13.914321 11.5767785,13.9063266 C11.5561086,13.8966234 11.5357061,13.8862061 11.515723,13.8751242 C11.5036056,13.8685012 11.4913869,13.8613931 11.4792912,13.8540045 C11.453725,13.8382813 11.4288693,13.8215099 11.4048407,13.8036865 C11.397397,13.7982466 11.3901576,13.7927155 11.3829777,13.7870723 C11.3515341,13.7623312 11.3213595,13.7355731 11.2928932,13.7071068 L7.75735931,10.1715729 C7.36683502,9.78104858 7.36683502,9.1478836 7.75735931,8.75735931 C8.1478836,8.36683502 8.78104858,8.36683502 9.17157288,8.75735931 L11,10.585 L11,3 C11,2.44771525 11.4477153,2 12,2 Z" id="path-1"></path>
    </defs>
    <g id="site" stroke="none" stroke-width="1" fill="none" fill-rule="evenodd">
        <g id="resources" transform="translate(-532.000000, -240.000000)">
            <g id="Group" transform="translate(500.000000, 229.000000)">
                <g id="Group-5" transform="translate(29.000000, 9.000000)">
                    <g id="Icons/My-set/Share">
                        <rect id="Base" x="0" y="0" width="24" height="24"></rect>
                        <mask id="mask-2" fill="white">
                            <use xlink:href="#path-1"></use>
                        </mask>
                        <use id="Combined-Shape" fill="#222222" fill-rule="nonzero" xlink:href="#path-1"></use>
                        <g id="Color/Primary" mask="url(#mask-2)" fill="#FFFFFF">
                            <rect id="Rectangle" x="0" y="0" width="24" height="24"></rect>
                        </g>
                    </g>
                </g>
            </g>
        </g>
    </g>
</svg>