<?xml version="1.0" encoding="UTF-8"?>
<svg width="18px" height="22px" viewBox="0 0 18 22" version="1.1" xmlns="http://www.w3.org/2000/svg" xmlns:xlink="http://www.w3.org/1999/xlink">
    <!-- Generator: Sketch 58 (84663) - https://sketch.com -->
    <title>Youtube</title>
    <desc>Created with Sketch.</desc>
    <defs>
        <path d="M18.22536,16.79968 L17.04,16.79968 L17.04552,16.11112 C17.04552,15.80512 17.2968,15.5548 17.60376,15.5548 L17.67936,15.5548 C17.98704,15.5548 18.23904,15.80512 18.23904,16.11112 L18.22536,16.79968 Z M13.77912,15.32416 C13.4784,15.32416 13.2324,15.52624 13.2324,15.77368 L13.2324,19.1224 C13.2324,19.36936 13.4784,19.57096 13.77912,19.57096 C14.08104,19.57096 14.32728,19.36936 14.32728,19.1224 L14.32728,15.77368 C14.32728,15.526 14.08104,15.32416 13.77912,15.32416 Z M21,13.45096 L21,19.82152 C21,21.3496 19.67496,22.6 18.0552,22.6 L5.94504,22.6 C4.3248,22.6 3,21.3496 3,19.82152 L3,13.45096 C3,11.92288 4.3248,10.67224 5.94504,10.67224 L18.0552,10.67224 C19.67496,10.67224 21,11.92288 21,13.45096 Z M6.75288,20.5132 L6.75192,13.80256 L8.25312,13.80304 L8.25312,12.80872 L4.25136,12.80272 L4.25136,13.78024 L5.50056,13.78384 L5.50056,20.5132 L6.75288,20.5132 Z M11.25288,14.80216 L10.00128,14.80216 L10.00128,18.3856 C10.00128,18.904 10.03272,19.1632 9.99936,19.25464 C9.8976,19.53256 9.44016,19.82776 9.26184,19.28464 C9.2316,19.1896 9.25824,18.9028 9.25776,18.41032 L9.25272,14.80216 L8.00808,14.80216 L8.01192,18.35368 C8.01288,18.898 7.99968,19.30384 8.01624,19.48864 C8.04672,19.81432 8.03592,20.194 8.33808,20.41096 C8.90112,20.81656 9.9804,20.35048 10.2504,19.77064 L10.248,20.51056 L11.25312,20.51176 L11.25288,14.80216 L11.25288,14.80216 Z M15.2568033,18.90568 L15.25416,15.9232 C15.2532,14.78656 14.40288,14.10592 13.24872,15.0256 L13.25376,12.80824 L12.0036,12.81016 L11.9976,20.46376 L13.02576,20.44888 L13.11936,19.97224 C14.43288,21.17728 15.25872,20.35144 15.2568033,18.90568 Z M19.17384,18.5104 L18.23544,18.51544 C18.23496,18.55264 18.23352,18.5956 18.23304,18.6424 L18.23304,19.16608 C18.23304,19.4464 18.00144,19.67464 17.72016,19.67464 L17.53632,19.67464 C17.25456,19.67464 17.02296,19.4464 17.02296,19.16608 L17.02296,19.108 L17.02296,18.532 L17.02296,17.78872 L19.17192,17.78872 L19.17192,16.97992 C19.17192,16.3888 19.1568,15.79792 19.10784,15.46 C18.954,14.39104 17.45352,14.22136 16.6956,14.76856 C16.45776,14.93944 16.27608,15.16816 16.17048,15.47536 C16.06392,15.7828 16.01088,16.2028 16.01088,16.73632 L16.01088,18.51472 C16.01136,21.47104 19.60224,21.0532 19.17384,18.5104 Z M14.35992,8.85568 C14.42448,9.01264 14.5248,9.13984 14.66088,9.23584 C14.79528,9.3304 14.96712,9.37792 15.17304,9.37792 C15.35352,9.37792 15.51336,9.3292 15.65256,9.22864 C15.79128,9.12856 15.90816,8.97904 16.00368,8.7796 L15.97992,9.27064 L17.37504,9.27064 L17.37504,3.3376 L16.2768,3.3376 L16.2768,7.9552 C16.2768,8.20528 16.07088,8.41 15.81912,8.41 C15.5688,8.41 15.36216,8.20528 15.36216,7.9552 L15.36216,3.3376 L14.21592,3.3376 L14.21592,7.33936 C14.21592,7.84912 14.22528,8.18896 14.2404,8.36128 C14.256,8.5324 14.29536,8.69656 14.35992,8.85568 Z M10.13208,5.5048 C10.13208,4.93528 10.1796,4.49056 10.27392,4.16992 C10.36896,3.85048 10.5396,3.59368 10.7868,3.4 C11.03328,3.20536 11.34888,3.10792 11.73264,3.10792 C12.05544,3.10792 12.33192,3.17128 12.5628,3.29536 C12.79488,3.42016 12.97392,3.58216 13.098,3.78208 C13.22448,3.98272 13.3104,4.18888 13.35624,4.39984 C13.40304,4.61368 13.42608,4.93624 13.42608,5.37136 L13.42608,6.87184 C13.42608,7.42216 13.404,7.82704 13.36104,8.08408 C13.31856,8.34184 13.22736,8.58088 13.086,8.80504 C12.9468,9.0268 12.76704,9.19264 12.54912,9.29848 C12.3288,9.40528 12.0768,9.4576 11.79216,9.4576 C11.47416,9.4576 11.20632,9.41368 10.98552,9.322 C10.764,9.2308 10.59288,9.09328 10.47096,8.91064 C10.34784,8.72776 10.2612,8.50504 10.20888,8.24536 C10.15632,7.98592 10.13136,7.59568 10.13136,7.0756 L10.13208,5.5048 L10.13208,5.5048 Z M11.2248,7.8616 C11.2248,8.1976 11.47488,8.47192 11.77944,8.47192 C12.08424,8.47192 12.33336,8.1976 12.33336,7.8616 L12.33336,4.7032 C12.33336,4.36768 12.08424,4.09336 11.77944,4.09336 C11.47488,4.09336 11.2248,4.36768 11.2248,4.7032 L11.2248,7.8616 Z M7.36368,9.4564 L8.67984,9.4564 L8.68128,4.906 L10.23648,1.00792 L8.79696,1.00792 L7.97016,3.90328 L7.1316,1 L5.70696,1 L7.36152,4.90816 L7.36368,9.4564 Z" id="path-1"></path>
    </defs>
    <g id="site" stroke="none" stroke-width="1" fill="none" fill-rule="evenodd">
        <g id="styleguide" transform="translate(-585.000000, -84.000000)">
            <g id="github-copy-3" transform="translate(572.000000, 73.000000)">
                <g id="Icons/Socials/Youtube" transform="translate(10.000000, 10.000000)">
                    <rect id="Base" x="0" y="0" width="24" height="24"></rect>
                    <mask id="mask-2" fill="white">
                        <use xlink:href="#path-1"></use>
                    </mask>
                    <use id="YouTube" fill="#000000" fill-rule="nonzero" xlink:href="#path-1"></use>
                    <g id="grey" mask="url(#mask-2)" fill="#838897" fill-rule="evenodd">
                        <rect id="Rectangle" x="0" y="0" width="24" height="24"></rect>
                    </g>
                </g>
            </g>
        </g>
    </g>
</svg>