<?xml version="1.0" standalone="no"?>
<!DOCTYPE svg PUBLIC "-//W3C//DTD SVG 1.1//EN" "http://www.w3.org/Graphics/SVG/1.1/DTD/svg11.dtd" >
<svg>
<metadata>
Created by FontForge 20120731 at Sat Jun 29 20:14:31 2019
 By www
Copyright (c) (c) The Foundry, London, 2005. All rights reserved.
</metadata>
<defs>
<font id="FoundryContextW03-Md" horiz-adv-x="601" >
  <font-face 
    font-family="FoundryContextW03-Md"
    font-weight="500"
    font-stretch="normal"
    units-per-em="1000"
    panose-1="2 0 0 0 0 0 0 0 0 0"
    ascent="800"
    descent="-200"
    x-height="475"
    cap-height="678"
    bbox="-171 -213 1214 920"
    underline-thickness="50"
    underline-position="-50"
    unicode-range="U+0020-FB04"
  />
<missing-glyph horiz-adv-x="621" 
d="M63 -186v864h495v-864h-495zM168 -99h284v690h-284v-690z" />
    <glyph glyph-name=".notdef" horiz-adv-x="621" 
d="M63 -186v864h495v-864h-495zM168 -99h284v690h-284v-690z" />
    <glyph glyph-name=".null" horiz-adv-x="0" 
 />
    <glyph glyph-name="nonmarkingreturn" horiz-adv-x="333" 
 />
    <glyph glyph-name="space" unicode=" " horiz-adv-x="242" 
 />
    <glyph glyph-name="exclam" unicode="!" horiz-adv-x="271" 
d="M185 185h-99l-4 493h107zM202 57q0 -28 -19.5 -47.5t-47.5 -19.5q-29 0 -47.5 19.5t-18.5 46.5q0 28 19 47.5t47 19.5q29 0 48 -19t19 -47z" />
    <glyph glyph-name="quotedbl" unicode="&#x22;" horiz-adv-x="421" 
d="M160 401h-76l-21 277h118zM337 401h-76l-21 277h118z" />
    <glyph glyph-name="numbersign" unicode="#" 
d="M453 465l-27 -111h90v-77h-109l-33 -137h-83l33 137h-111l-33 -137h-84l33 137h-86v77h106l27 111h-90v77h107l33 136h84l-33 -136h111l33 136h84l-33 -136h87v-77h-106zM259 465l-27 -111h111l27 111h-111z" />
    <glyph glyph-name="dollar" unicode="$" 
d="M551 185q0 -41 -15.5 -75t-43 -59.5t-66.5 -42t-86 -21.5v-91h-84v91q-56 6 -96 24.5t-65.5 39t-38 38t-14.5 21.5l69 54q2 -3 11.5 -15t27.5 -26t44 -27.5t62 -19.5v219q-33 8 -67.5 20.5t-63 34.5t-47 57t-18.5 88q0 38 14.5 72t40 60.5t61.5 43.5t80 22v89h84v-89
q52 -5 90 -23t63 -37.5t37 -36t13 -19.5l-67 -55q-4 4 -14 16t-27 25t-40.5 25t-54.5 17v-224q36 -8 73.5 -20t68 -34t50 -56t19.5 -86zM256 604q-18 -4 -35 -12t-30.5 -21.5t-21.5 -32.5t-8 -44q0 -27 11 -44.5t26.5 -28t31.5 -15.5t26 -8v206zM449 182q0 22 -9.5 38.5
t-24.5 28t-34.5 19t-40.5 12.5v-206q18 3 37.5 10t35.5 19.5t26 31.5t10 47z" />
    <glyph glyph-name="percent" unicode="%" horiz-adv-x="874" 
d="M190 308q-37 0 -65 14t-46.5 39.5t-28 60.5t-9.5 76t9.5 76t28.5 60.5t47 39.5t65 14t65 -14t47 -39.5t28.5 -60.5t9.5 -76t-9.5 -76t-28.5 -60.5t-47.5 -39.5t-65.5 -14zM191 628q-24 0 -39 -12.5t-23 -32t-11 -42t-3 -43.5t3 -43.5t11 -41.5t22.5 -31.5t38.5 -12.5
t39 12.5t23 31.5t11 41.5t3 43.5t-2.5 43.5t-11 42t-23 32t-38.5 12.5zM265 -35l-64 37l401 694l64 -37zM682 -8q-37 0 -65 14t-46.5 39.5t-28 60.5t-9.5 76t9.5 76t28.5 60.5t47 39.5t65 14t65 -14t47 -39.5t28.5 -60.5t9.5 -76t-9.5 -76t-28.5 -60.5t-47.5 -39.5
t-65.5 -14zM683 312q-24 0 -39 -12.5t-23 -32t-11 -42t-3 -43.5t3 -43.5t11 -41.5t22.5 -31.5t38.5 -12.5t39 12.5t23 31.5t11 41.5t3 43.5t-2.5 43.5t-11 42t-23 32t-38.5 12.5z" />
    <glyph glyph-name="ampersand" unicode="&#x26;" horiz-adv-x="654" 
d="M539 0l-66 73q-6 -6 -22 -20.5t-42 -29.5t-63.5 -26.5t-85.5 -11.5t-89 12t-72 36t-48.5 59t-17.5 82q0 40 12.5 71t34.5 56t51.5 45t62.5 39q-32 36 -55 71t-23 85q0 33 13 61t37.5 48.5t59 32t76.5 11.5q34 0 65 -9.5t55 -27.5t38 -44.5t14 -61.5q0 -34 -12 -61
t-31.5 -49.5t-44.5 -41t-52 -34.5l135 -151q6 10 11.5 26t9.5 33.5t7 33t3 24.5h92q-1 -25 -6.5 -51.5t-14 -52t-19 -47.5t-21.5 -38l126 -142h-118zM383 544q0 35 -23.5 53t-58.5 18q-36 0 -62 -17.5t-26 -52.5q0 -20 7 -37t17 -31.5t22 -27t21 -22.5q17 11 35 22t33 24.5
t25 30.5t10 40zM251 321q-23 -14 -43.5 -27t-36.5 -29.5t-25.5 -37.5t-9.5 -49q0 -25 10 -45t27.5 -34t41 -21.5t50.5 -7.5q33 0 58 8t43.5 19.5t30.5 23t18 18.5z" />
    <glyph glyph-name="quotesingle" unicode="'" horiz-adv-x="244" 
d="M160 401h-76l-21 277h118z" />
    <glyph glyph-name="parenleft" unicode="(" horiz-adv-x="358" 
d="M349 -133l-62 -68q-43 29 -86.5 72.5t-78 99.5t-56 125t-21.5 149q0 78 21.5 146.5t56 126t77.5 102.5t87 74l62 -68q-37 -29 -72.5 -68t-63.5 -87t-45.5 -104.5t-17.5 -120.5t17.5 -120.5t45.5 -104t63.5 -86.5t72.5 -68z" />
    <glyph glyph-name="parenright" unicode=")" horiz-adv-x="358" 
d="M9 -133q37 29 72.5 68t63.5 86.5t45.5 104t17.5 120.5t-17.5 120.5t-45.5 104.5t-63.5 87t-72.5 68l62 68q44 -29 87 -74t77.5 -102.5t56 -126t21.5 -146.5q0 -80 -21.5 -149t-56 -125t-78 -99.5t-86.5 -72.5z" />
    <glyph glyph-name="asterisk" unicode="*" horiz-adv-x="421" 
d="M386 528l-116 -40l72 -98l-64 -45l-70 103l-69 -103l-67 45l72 98l-117 40l28 72l114 -42l-1 120h78l-1 -120l115 42z" />
    <glyph glyph-name="plus" unicode="+" 
d="M346 208v-211h-90v211h-213v88h213v211h90v-211h212v-88h-212z" />
    <glyph glyph-name="comma" unicode="," horiz-adv-x="244" 
d="M106 -123h-67l46 237h120z" />
    <glyph glyph-name="hyphen" unicode="-" horiz-adv-x="451" 
d="M69 208v88h313v-88h-313z" />
    <glyph glyph-name="period" unicode="." horiz-adv-x="255" 
d="M194 57q0 -28 -19.5 -47.5t-47.5 -19.5q-29 0 -47.5 19.5t-18.5 46.5q0 28 19 47.5t47 19.5q29 0 48 -19t19 -47z" />
    <glyph glyph-name="slash" unicode="/" horiz-adv-x="412" 
d="M-3 -186l285 891l85 -27l-285 -891z" />
    <glyph glyph-name="zero" unicode="0" 
d="M560 339q0 -79 -17 -144t-50 -111.5t-81.5 -72.5t-111.5 -26q-64 0 -112.5 26t-81 72.5t-49 111.5t-16.5 144t17 144t50 112t81.5 73t111.5 26q64 0 112.5 -26t81 -73t49 -112t16.5 -144zM453 339q0 39 -5 86t-21 87t-46 67t-80 27t-80 -27t-46.5 -67t-21.5 -87t-5 -86
q0 -40 5 -86.5t21 -86.5t46 -66.5t80 -26.5t80 26.5t46.5 66.5t21.5 86.5t5 86.5z" />
    <glyph glyph-name="one" unicode="1" 
d="M95 0v88h182v483l-162 -101q-10 15 -19 28q-8 11 -16 23.5t-14 22.5l216 134h98v-590h180v-88h-465z" />
    <glyph glyph-name="two" unicode="2" 
d="M527 489q0 -58 -25 -98t-63 -69.5t-82.5 -52.5t-83.5 -48t-66 -56t-29 -75h346v-90h-451v18q0 32 2.5 60.5t10 55t22.5 51.5t40 50q40 40 88 67t90 53t70.5 56.5t28.5 77.5q0 56 -35.5 87t-92.5 31q-38 0 -67.5 -12t-51 -27.5t-34.5 -30t-17 -20.5l-64 58q4 5 19.5 24
t45 40t72 38t100.5 17q49 0 90.5 -14t72 -40t47.5 -64t17 -87z" />
    <glyph glyph-name="three" unicode="3" 
d="M526 189q0 -47 -17.5 -84.5t-50 -64t-77.5 -41t-100 -14.5q-58 0 -100.5 14.5t-71.5 33.5t-45 36.5t-20 23.5l64 59q4 -5 16.5 -18t33.5 -27t50.5 -24.5t67.5 -10.5q64 0 104.5 29t40.5 89q0 39 -17 62t-43.5 34.5t-59 14.5t-62.5 3h-45v88h40q29 0 59.5 2.5t55 13t40 32
t15.5 58.5q0 17 -5.5 36t-19.5 35.5t-37 27t-57 10.5q-35 0 -62.5 -10t-48 -23t-33 -26.5t-18.5 -19.5l-62 59q4 5 20 22.5t43.5 36t68 33.5t94.5 15q49 0 89 -14t69 -39t45 -59.5t16 -74.5q0 -39 -12.5 -67t-30 -46.5t-36 -29t-30.5 -14.5q12 -3 33.5 -12.5t43 -28.5
t37 -48.5t15.5 -71.5z" />
    <glyph glyph-name="four" unicode="4" 
d="M459 153v-153h-99v153h-323v85l318 440h104v-441h106v-84h-106zM360 543l-223 -306h223v306z" />
    <glyph glyph-name="five" unicode="5" 
d="M539 222q0 -54 -18.5 -98t-52 -74.5t-81.5 -47.5t-108 -17q-56 0 -97.5 14t-68.5 31.5t-41 32.5t-15 17l61 63q7 -7 20 -19t33 -23.5t46.5 -20t59.5 -8.5q71 0 114 37.5t43 110.5q0 35 -11.5 60t-30.5 40.5t-44 23t-51 7.5q-37 0 -62.5 -10.5t-42 -24t-24.5 -25t-9 -14.5
l-80 33l39 368h379v-86h-303l-24 -210q24 23 62 38.5t88 15.5q47 0 87 -14.5t69.5 -42t46 -67.5t16.5 -90z" />
    <glyph glyph-name="six" unicode="6" 
d="M556 223q0 -51 -17.5 -94.5t-49 -75.5t-76.5 -50t-100 -18q-75 0 -125 30t-80 78.5t-42.5 109.5t-12.5 123q0 35 4 76t15.5 82t31 78.5t50 67t73.5 47t101 17.5t98.5 -15t66 -33.5t38 -35.5t15.5 -21l-66 -55q-3 4 -13.5 15.5t-28.5 24.5t-44.5 23t-61.5 10
q-52 0 -87 -23.5t-56 -60t-30 -80.5t-9 -86v-15q3 6 15.5 22t35 33.5t56.5 31t81 13.5q49 0 89 -16t68.5 -45t44.5 -69t16 -89zM173 209q0 -61 37.5 -101t105.5 -40q31 0 56.5 11.5t43.5 31t28 46t10 57.5q0 61 -35.5 101t-98.5 40q-34 0 -61 -11.5t-46 -31t-29.5 -46
t-10.5 -57.5z" />
    <glyph glyph-name="seven" unicode="7" 
d="M262 0h-116l287 589h-376v89h487v-82z" />
    <glyph glyph-name="eight" unicode="8" 
d="M553 184q0 -48 -20 -85t-54 -62.5t-80 -39t-98 -13.5q-53 0 -99 13t-80 38.5t-54 62.5t-20 85q0 40 15 70t35.5 50t42 31t33.5 14q-12 4 -30 14.5t-35 29.5t-29 46t-12 65q0 46 18 82t49.5 60t74 36.5t90.5 12.5q49 0 91.5 -12.5t74 -36.5t49.5 -59.5t18 -81.5
q0 -37 -12 -64.5t-29 -46t-35 -29.5t-30 -15q12 -3 33 -14t42 -31t36 -49.5t15 -70.5zM300 610q-26 0 -49.5 -6t-42 -19.5t-29.5 -34.5t-11 -50q0 -30 11 -51.5t29.5 -35t42 -19.5t49.5 -6t50 6.5t42.5 20t29.5 34.5t11 51q0 29 -11 49.5t-29.5 34t-42.5 20t-50 6.5z
M448 185q0 31 -12.5 54t-33 38.5t-47.5 23t-55 7.5t-54.5 -7.5t-47.5 -23t-33.5 -38.5t-12.5 -54q0 -30 12.5 -52t33.5 -36.5t47.5 -21.5t54.5 -7t55 7t47.5 21.5t33 36.5t12.5 52z" />
    <glyph glyph-name="nine" unicode="9" 
d="M45 456q0 51 17.5 94.5t49 75.5t76.5 50t100 18q75 0 125 -30t80 -78.5t42.5 -109.5t12.5 -123q0 -35 -4 -76t-15.5 -82t-31 -78.5t-50 -67t-73.5 -47t-101 -17.5t-98.5 15t-66 33.5t-38 35.5t-15.5 21l66 55q3 -4 13.5 -16t28.5 -24.5t44.5 -22.5t61.5 -10q52 0 87 23.5
t56 60t30 80.5t9 86v15q-3 -6 -15.5 -22t-35 -33.5t-56.5 -31t-81 -13.5q-49 0 -89 16t-68.5 45t-44.5 69t-16 89zM428 470q0 61 -37.5 101t-105.5 40q-32 0 -57.5 -11.5t-43.5 -31t-27.5 -46t-9.5 -57.5q0 -61 35.5 -101t98.5 -40q34 0 61 11.5t46 31t29.5 46t10.5 57.5z
" />
    <glyph glyph-name="colon" unicode=":" horiz-adv-x="255" 
d="M194 418q0 -28 -19.5 -47.5t-47.5 -19.5q-29 0 -47.5 19.5t-18.5 46.5q0 28 19 47.5t47 19.5q29 0 48 -19t19 -47zM194 57q0 -28 -19.5 -47.5t-47.5 -19.5q-29 0 -47.5 19.5t-18.5 46.5q0 28 19 47.5t47 19.5q29 0 48 -19t19 -47z" />
    <glyph glyph-name="semicolon" unicode=";" horiz-adv-x="268" 
d="M207 418q0 -28 -19.5 -47.5t-47.5 -19.5q-29 0 -47.5 19.5t-18.5 46.5q0 28 19 47.5t47 19.5q29 0 48 -19t19 -47zM106 -123h-67l46 237h120z" />
    <glyph glyph-name="less" unicode="&#x3c;" 
d="M43 204v95l515 206v-97l-408 -157l408 -156v-97z" />
    <glyph glyph-name="equal" unicode="=" 
d="M43 304v88h515v-88h-515zM43 114v88h515v-88h-515z" />
    <glyph glyph-name="greater" unicode="&#x3e;" 
d="M43 -2v97l408 156l-408 157v97l515 -206v-95z" />
    <glyph glyph-name="question" unicode="?" horiz-adv-x="510" 
d="M477 506q0 -49 -26 -85t-62 -68q-27 -24 -46 -39t-31.5 -28.5t-18 -29.5t-5.5 -42v-29h-100v31q0 33 5 55t17.5 40.5t34.5 38t56 47.5q28 23 49.5 48t21.5 62q0 48 -31 73t-87 25q-36 0 -63.5 -12.5t-47 -27.5t-30 -28.5t-13.5 -16.5l-67 56q8 10 25 30t44.5 39.5t66 34
t90.5 14.5q46 0 86 -12.5t69.5 -36.5t46 -59t16.5 -80zM305 57q0 -28 -19.5 -47.5t-47.5 -19.5q-29 0 -47.5 19.5t-18.5 46.5q0 28 19 47.5t47 19.5q29 0 48 -19t19 -47z" />
    <glyph glyph-name="at" unicode="@" horiz-adv-x="960" 
d="M903 375q0 -54 -16 -111.5t-54 -106.5q-26 -33 -66.5 -56.5t-91.5 -23.5q-43 0 -72 21.5t-31 58.5q-7 -9 -20.5 -23t-33.5 -26.5t-46 -21.5t-57 -9q-29 0 -56.5 9.5t-48.5 29t-34 49t-13 69.5q0 49 16.5 95t47 82t74 57.5t96.5 21.5q25 0 43.5 -6.5t31.5 -15.5
t20.5 -18.5t11.5 -14.5l10 40h86q-12 -58 -24.5 -115t-25.5 -114q-2 -14 -4.5 -25.5t-2.5 -26.5q0 -18 8.5 -27t31.5 -9q22 0 38.5 8.5t30.5 22.5q20 20 32.5 43.5t19.5 47t9.5 46.5t2.5 43q0 58 -22 104t-61.5 77.5t-93.5 48t-117 16.5q-84 0 -153.5 -27t-118.5 -75
t-76 -113t-27 -140q0 -67 23.5 -124.5t67.5 -99.5t106 -65.5t140 -23.5q62 0 110.5 12t84.5 28.5t59.5 34t35.5 27.5l53 -56q-11 -13 -38 -34t-70 -41.5t-102 -35t-135 -14.5q-96 0 -174 29.5t-134 81.5t-86.5 124t-30.5 158q0 90 33 169t93 137.5t144 92.5t187 34
q82 0 153 -21.5t123.5 -62.5t82.5 -100.5t30 -134.5zM577 327q0 23 -7 39.5t-18 27t-25 15.5t-29 5q-33 0 -59 -16.5t-45 -42t-29 -56t-10 -58.5q0 -43 20 -64t55 -21q33 0 60.5 15.5t46.5 40t29.5 55t10.5 60.5z" />
    <glyph glyph-name="A" unicode="A" horiz-adv-x="697" 
d="M574 0l-67 163h-320l-67 -163h-111l280 678h118l281 -678h-114zM347 570l-127 -318h254z" />
    <glyph glyph-name="B" unicode="B" horiz-adv-x="667" 
d="M622 196q0 -35 -10.5 -67t-33.5 -58q-21 -25 -49.5 -39.5t-62 -21.5t-71 -8.5t-76.5 -1.5h-244v678h249q33 0 65 -1t61.5 -6t55 -16t45.5 -31q22 -23 33 -52.5t11 -60.5q0 -43 -13.5 -72t-31 -47.5t-34.5 -27.5t-24 -12q55 -14 92.5 -53.5t37.5 -102.5zM490 490
q0 37 -15 57.5t-38 30t-51 11t-55 1.5h-152v-203h154q30 0 58 2.5t50 13t35.5 31t13.5 56.5zM513 198q0 37 -15.5 58t-40.5 31t-57 12t-65 2h-156v-212h149q33 0 66 2t59.5 12t43 32t16.5 63z" />
    <glyph glyph-name="C" unicode="C" horiz-adv-x="692" 
d="M660 103q-2 -3 -20 -22t-52 -40.5t-84.5 -39t-118.5 -17.5q-83 0 -146.5 27.5t-106.5 75.5t-65 112.5t-22 139.5q0 74 22 138.5t65 112.5t106.5 76t146.5 28q65 0 112.5 -15t79.5 -35.5t50 -41t25 -30.5l-68 -60q-2 2 -15 16.5t-37 31t-60 29.5t-84 13q-61 0 -105 -22
t-72.5 -58.5t-42.5 -84t-14 -98.5q0 -52 14.5 -99.5t43.5 -83.5t72.5 -57.5t102.5 -21.5q47 0 84 12t63 27.5t41.5 30t20.5 19.5z" />
    <glyph glyph-name="D" unicode="D" horiz-adv-x="723" 
d="M678 342q0 -78 -25 -143t-74 -111q-35 -33 -73.5 -51t-77 -26t-74.5 -9.5t-66 -1.5h-213v678h213q39 0 78.5 -2t76.5 -9.5t71.5 -23.5t64.5 -44q50 -47 74.5 -113t24.5 -144zM569 343q0 56 -17 106t-52 86q-20 20 -44 31t-50 16t-55 6t-59 1h-112v-499h103q27 0 55 1
t55 6t53 17t49 33q38 35 56 86.5t18 109.5z" />
    <glyph glyph-name="E" unicode="E" horiz-adv-x="616" 
d="M75 0v678h483v-90h-378v-200h353v-88h-353v-209h391v-91h-496z" />
    <glyph glyph-name="F" unicode="F" horiz-adv-x="567" 
d="M180 588v-203h341v-89h-341v-296h-105v678h471v-90h-366z" />
    <glyph glyph-name="G" unicode="G" horiz-adv-x="743" 
d="M597 0l-2 84q-3 -5 -16.5 -21t-40.5 -33.5t-68.5 -31.5t-101.5 -14q-78 0 -138.5 27t-101.5 74.5t-62 112.5t-21 141q0 74 22.5 138.5t66.5 112.5t108 76t147 28q68 0 117.5 -17t81.5 -38t49 -40.5t21 -24.5l-67 -61q-4 4 -17.5 18.5t-38 30t-60.5 28t-84 12.5
q-60 0 -105 -22t-74 -58.5t-43.5 -84t-14.5 -98.5q0 -53 13.5 -100.5t41.5 -83.5t72 -57.5t104 -21.5q59 0 98.5 19.5t63 48t33.5 61t10 58.5v14h-208v88h298v-365h-83z" />
    <glyph glyph-name="H" unicode="H" horiz-adv-x="719" 
d="M539 0v300h-359v-300h-105v678h105v-288h359v288h105v-678h-105z" />
    <glyph glyph-name="I" unicode="I" horiz-adv-x="255" 
d="M75 0v678h105v-678h-105z" />
    <glyph glyph-name="J" unicode="J" horiz-adv-x="518" 
d="M449 246q0 -28 -1.5 -55t-7.5 -51.5t-17.5 -47.5t-32.5 -44q-28 -27 -72.5 -45.5t-104.5 -18.5q-51 0 -88.5 14t-63 32.5t-39.5 36.5t-18 27l72 60q5 -7 15 -20.5t26.5 -26.5t40 -22.5t53.5 -9.5q35 0 58.5 10t39.5 25q25 25 29.5 64t4.5 80v424h106v-432z" />
    <glyph glyph-name="K" unicode="K" horiz-adv-x="641" 
d="M499 0l-319 315v-315h-105v678h105v-303l318 303h130l-345 -328l355 -350h-139z" />
    <glyph glyph-name="L" unicode="L" horiz-adv-x="551" 
d="M75 0v678h105v-587h362v-91h-467z" />
    <glyph glyph-name="M" unicode="M" horiz-adv-x="866" 
d="M693 0v551l-214 -551h-94l-213 551v-551h-97v678h146l214 -550l212 550h144v-678h-98z" />
    <glyph glyph-name="N" unicode="N" horiz-adv-x="719" 
d="M540 0l-364 515v-515h-101v678h106l362 -510v510h101v-678h-104z" />
    <glyph glyph-name="O" unicode="O" horiz-adv-x="780" 
d="M735 339q0 -65 -21 -129t-64 -114t-108 -81t-152 -31t-152 31t-108 81t-64 114t-21 129t21 128.5t64 114t108 81.5t152 31t152 -31t108 -81.5t64 -114t21 -128.5zM626 339q0 51 -14.5 99t-44 84.5t-73.5 59t-104 22.5t-104 -22.5t-73.5 -59t-44 -84.5t-14.5 -99t14.5 -99
t44 -85t73.5 -59t104 -22t104 22t73.5 59t44 85t14.5 99z" />
    <glyph glyph-name="P" unicode="P" horiz-adv-x="624" 
d="M603 476q0 -37 -11.5 -75t-39.5 -68q-39 -42 -94.5 -56t-124.5 -14h-153v-263h-105v678h227q37 0 71 -1t63.5 -6.5t55.5 -16.5t47 -31q35 -32 49.5 -70t14.5 -77zM497 473q0 50 -27 77q-26 28 -70 35t-100 7h-120v-241h143q57 0 91 10t57 33q12 13 19 33.5t7 45.5z" />
    <glyph glyph-name="Q" unicode="Q" horiz-adv-x="780" 
d="M735 339q0 -54 -12.5 -98t-29 -76.5t-33 -53.5t-25.5 -30l94 -84l-62 -65l-104 93q-8 -4 -23 -11t-36.5 -13.5t-50.5 -11.5t-63 -5q-87 0 -152 31t-108 81t-64 114t-21 129t21 128.5t64 114t108 81.5t152 31t152 -31t108 -81.5t64 -114t21 -128.5zM626 339q0 51 -14.5 99
t-44 84.5t-73.5 59t-104 22.5t-104 -22.5t-73.5 -59t-44 -84.5t-14.5 -99t14.5 -99t44 -85t73.5 -59t104 -22q45 0 70 9t29 11l-99 89l62 65l109 -99q5 6 16 21t22 38.5t19 56t8 74.5z" />
    <glyph glyph-name="R" unicode="R" horiz-adv-x="664" 
d="M519 0q-49 69 -97.5 137t-98.5 137h-143v-274h-105v678h251q32 0 62.5 -1.5t59 -7.5t54 -18t46.5 -33q31 -32 43.5 -67.5t12.5 -70.5q0 -49 -16.5 -82t-39.5 -56q-15 -15 -33 -25.5t-34.5 -17t-29 -10t-15.5 -4.5l207 -285h-124zM499 477q0 26 -7 44t-21 32t-32.5 22
t-39 11.5t-42.5 4.5t-44 1h-133v-231h124q34 0 69 2.5t63 14t45.5 34.5t17.5 65z" />
    <glyph glyph-name="S" unicode="S" horiz-adv-x="647" 
d="M590 189q0 -48 -20 -86t-56 -64.5t-87 -40.5t-114 -14q-72 0 -123.5 17t-85 38.5t-50.5 41.5t-21 25l67 65q5 -5 19.5 -21t40 -33t63 -30t89.5 -13q77 0 123 27.5t46 84.5q0 31 -18.5 49.5t-48.5 31t-68.5 20.5t-78.5 17t-78.5 22t-68.5 35t-48.5 55.5t-18.5 84.5
q0 38 17 73t50 61.5t80.5 42.5t109.5 16q72 0 122 -16.5t82 -37t48 -39.5t21 -25l-67 -62q-3 4 -17 18.5t-39 31t-62 29.5t-87 13q-69 0 -109.5 -25.5t-40.5 -75.5q0 -32 18.5 -51t48.5 -31t68.5 -19.5t79 -16.5t79 -21.5t68.5 -34.5t48.5 -56t18.5 -86z" />
    <glyph glyph-name="T" unicode="T" horiz-adv-x="583" 
d="M344 588v-588h-105v588h-230v90h565v-90h-230z" />
    <glyph glyph-name="U" unicode="U" horiz-adv-x="709" 
d="M640 284q0 -31 -2 -60t-9.5 -56t-21.5 -52.5t-38 -49.5q-42 -42 -97.5 -61t-117.5 -19t-117 19t-98 62q-25 25 -39 53t-21 56.5t-8.5 56t-1.5 53.5v392h105v-379q0 -23 1 -45.5t5.5 -45t14 -43t27.5 -38.5q24 -24 58.5 -37t74.5 -13q39 0 73 12t57 36q32 32 40 72t8 92
v389h107v-394z" />
    <glyph glyph-name="V" unicode="V" horiz-adv-x="671" 
d="M391 0h-111l-271 678h115l213 -554l213 554h112z" />
    <glyph glyph-name="W" unicode="W" horiz-adv-x="996" 
d="M775 0h-109l-167 534l-168 -534h-109l-207 678h110l159 -528l165 528h100l168 -528l157 528h107z" />
    <glyph glyph-name="X" unicode="X" horiz-adv-x="616" 
d="M484 0l-178 268l-179 -268h-118l239 354l-220 324h122l161 -241l161 241h114l-218 -323l239 -355h-123z" />
    <glyph glyph-name="Y" unicode="Y" horiz-adv-x="621" 
d="M362 291v-291h-105v291l-248 387h121l183 -293l182 293h117z" />
    <glyph glyph-name="Z" unicode="Z" horiz-adv-x="636" 
d="M45 0v89l403 499h-390v90h520v-88l-403 -499h416v-91h-546z" />
    <glyph glyph-name="bracketleft" unicode="[" horiz-adv-x="321" 
d="M63 -186v864h237v-87h-132v-690h132v-87h-237z" />
    <glyph glyph-name="backslash" unicode="\" horiz-adv-x="388" 
d="M294 -213l-285 891l85 27l285 -891z" />
    <glyph glyph-name="bracketright" unicode="]" horiz-adv-x="321" 
d="M21 -186v87h132v690h-132v87h237v-864h-237z" />
    <glyph glyph-name="asciicircum" unicode="^" 
d="M460 171l-160 401l-159 -401h-98l210 507h96l209 -507h-98z" />
    <glyph glyph-name="underscore" unicode="_" horiz-adv-x="574" 
d="M0 -186v88h574v-88h-574z" />
    <glyph glyph-name="grave" unicode="`" horiz-adv-x="346" 
d="M46 678h115l88 -131h-84z" />
    <glyph glyph-name="a" unicode="a" horiz-adv-x="519" 
d="M371 0l-3 60q-2 -2 -11.5 -13.5t-29 -24.5t-49 -23.5t-70.5 -10.5q-33 0 -64 9t-54 27.5t-37 47t-14 67.5q0 35 11 59.5t28 41.5q18 18 39 29t43 17t43.5 8t41.5 2h120v2q0 22 -4.5 40.5t-17.5 33.5q-14 17 -37.5 25.5t-54.5 8.5q-30 0 -54 -8.5t-41.5 -20t-28.5 -22
t-15 -14.5l-58 58q2 3 15 17.5t38 31t62 29.5t88 13q54 0 91.5 -13.5t63.5 -39.5q35 -36 42.5 -80t7.5 -103v-254h-91zM284 222q-22 0 -47.5 -1.5t-47 -9.5t-36 -24.5t-14.5 -46.5q0 -38 26 -55t61 -17q37 0 62 11.5t41 25.5q23 22 29 49t7 56v12h-81z" />
    <glyph glyph-name="b" unicode="b" 
d="M562 237q0 -48 -15.5 -93.5t-46 -80.5t-75.5 -56t-103 -21q-42 0 -72.5 10.5t-50.5 24t-30 25.5t-11 15l-3 -61h-92v678h100v-267q2 3 13 15.5t32.5 27t53 25.5t75.5 11q37 0 76.5 -13t72.5 -42.5t54.5 -78t21.5 -119.5zM458 236q0 43 -11.5 75t-31 53t-46 31t-57.5 10
q-29 0 -56.5 -10.5t-48.5 -32t-33.5 -53t-12.5 -73.5q0 -40 12 -71t32.5 -52t47.5 -31.5t57 -10.5q31 0 58.5 11.5t47 33t31 52t11.5 68.5z" />
    <glyph glyph-name="c" unicode="c" horiz-adv-x="525" 
d="M497 85q-2 -3 -14.5 -18.5t-38 -33.5t-64 -32.5t-91.5 -14.5q-60 0 -106.5 19.5t-78.5 53.5t-48.5 80t-16.5 99q0 49 15.5 94.5t47 80.5t79 56t112.5 21q49 0 85 -12.5t60.5 -28.5t38.5 -31.5t19 -22.5l-64 -54q-6 7 -17.5 18.5t-28.5 21.5t-40 17.5t-52 7.5
q-38 0 -66.5 -14t-47.5 -37.5t-28 -54t-9 -63.5q0 -32 9 -62t27.5 -53t46.5 -36.5t66 -13.5q33 0 58 8.5t42.5 20t28 22t14.5 15.5z" />
    <glyph glyph-name="d" unicode="d" 
d="M446 0l-3 68q-3 -4 -15 -17.5t-34 -27.5t-54.5 -25.5t-76.5 -11.5q-36 0 -75.5 12.5t-72.5 42t-54.5 78t-21.5 120.5q0 47 15 92t45 80.5t75 57t104 21.5q39 0 68 -9.5t48 -22.5t30 -25t14 -16v261h100v-678h-92zM440 240q0 40 -12 71t-32.5 52t-47.5 32t-57 11
q-32 0 -59 -11.5t-46.5 -33t-31 -52t-11.5 -68.5q0 -44 11.5 -76t31 -52.5t46 -30.5t57.5 -10q29 0 56.5 10.5t48.5 31.5t33.5 52.5t12.5 73.5z" />
    <glyph glyph-name="e" unicode="e" horiz-adv-x="549" 
d="M142 206q0 -24 9 -49t27 -44.5t45.5 -32t63.5 -12.5q33 0 59 8.5t45 19.5t30 22l16 16l59 -52q-7 -8 -22.5 -24t-41.5 -32t-62.5 -28t-85.5 -12q-60 0 -106 19.5t-76.5 53t-46.5 79t-16 98.5q0 52 16.5 98t47.5 80.5t76.5 55t103.5 20.5q16 0 35 -2t40 -8.5t41.5 -18
t39.5 -30.5q23 -23 37 -49.5t21.5 -55t10 -59t2.5 -61.5h-368zM410 283q0 17 -7 39.5t-22.5 42t-40 33t-59.5 13.5q-38 0 -63.5 -15t-42 -35.5t-23.5 -42t-7 -35.5h265z" />
    <glyph glyph-name="f" unicode="f" horiz-adv-x="404" 
d="M407 660q-9 -18 -18 -35t-17 -35q-14 7 -31 13t-41 6q-21 0 -36.5 -5.5t-26.5 -15.5q-17 -15 -23 -38.5t-6 -52.5v-22h168v-83h-168v-392h-100v392h-105v83h105v27q0 40 9 76t40 67q28 28 62.5 38t70.5 10q25 0 45 -4.5t35 -10t24.5 -11t12.5 -7.5z" />
    <glyph glyph-name="g" unicode="g" horiz-adv-x="593" 
d="M530 53q0 -54 -9.5 -100.5t-48.5 -87.5q-32 -32 -80 -48.5t-113 -16.5q-57 0 -97.5 13.5t-66.5 30.5t-39 32.5t-16 19.5l60 59q2 -3 13 -14t30.5 -24t48 -23t66.5 -10q48 0 78 13t46.5 35t22 50.5t5.5 59.5v36q-2 -2 -13 -14.5t-32 -26.5t-52.5 -25.5t-73.5 -11.5
q-34 0 -72.5 12t-71.5 40t-54.5 75t-21.5 117q0 43 13.5 87t42 79t72 57.5t103.5 22.5q35 0 63 -9.5t48 -22t33 -26t19 -22.5l2 65h95v-422zM432 246q0 42 -12 72.5t-31.5 50t-45.5 29t-53 9.5q-38 0 -66 -13.5t-46 -36.5t-26.5 -52.5t-8.5 -61.5q0 -81 39 -120.5t99 -39.5
q25 0 51.5 8.5t48.5 28t36.5 50.5t14.5 76z" />
    <glyph glyph-name="h" unicode="h" horiz-adv-x="555" 
d="M398 0v266q0 35 -4.5 62.5t-24.5 45.5q-13 12 -32 19.5t-48 7.5q-20 0 -44 -8t-44 -27q-28 -29 -33 -68t-5 -86v-212h-100v678h100v-263q1 1 11 13t29.5 26t49 25t68.5 11q34 0 67 -10.5t62 -40.5q16 -16 25.5 -35t14.5 -39.5t6.5 -42t1.5 -41.5v-281h-100z" />
    <glyph glyph-name="i" unicode="i" horiz-adv-x="224" 
d="M173 622q0 -26 -17 -43t-44 -17q-26 0 -43.5 17t-17.5 43q0 25 17.5 42.5t43.5 17.5t43.5 -17.5t17.5 -42.5zM62 0v475h100v-475h-100z" />
    <glyph glyph-name="j" unicode="j" horiz-adv-x="240" 
d="M178 24q0 -25 -1 -48.5t-5.5 -45t-13.5 -41.5t-26 -37q-23 -23 -55.5 -37.5t-79.5 -14.5q-49 0 -78 12.5t-40 20.5l40 71q7 -5 24 -12t46 -7q23 0 39.5 8t26.5 21q14 17 18.5 39t4.5 58v464h100v-452v1zM189 622q0 -26 -17 -43t-44 -17q-26 0 -43.5 17t-17.5 43
q0 25 17.5 42.5t43.5 17.5t43.5 -17.5t17.5 -42.5z" />
    <glyph glyph-name="k" unicode="k" horiz-adv-x="509" 
d="M376 0l-213 226v-226h-100v678h100v-405l212 202h127l-240 -223l244 -252h-130z" />
    <glyph glyph-name="l" unicode="l" horiz-adv-x="226" 
d="M63 0v678h100v-678h-100z" />
    <glyph glyph-name="m" unicode="m" horiz-adv-x="825" 
d="M160 416q3 5 13 17t27.5 25t42 22.5t57.5 9.5q39 0 66 -11.5t43.5 -26t24.5 -28t10 -17.5q1 3 11 16t29.5 28t48.5 27t68 12q29 0 61.5 -10.5t58.5 -36.5q17 -17 26.5 -37t14 -42t5.5 -44.5t1 -44.5v-275h-100v261q0 41 -4.5 70t-22.5 46q-22 24 -68 24q-25 0 -43.5 -8.5
t-31.5 -20.5q-12 -12 -18.5 -26t-9.5 -28.5t-3.5 -27.5t-0.5 -23v-267h-100v259q0 42 -5 71t-23 47q-22 24 -68 24q-24 0 -43 -8.5t-32 -20.5q-12 -12 -18.5 -26t-9.5 -28.5t-3.5 -27.5t-0.5 -23v-267h-100v475h95z" />
    <glyph glyph-name="n" unicode="n" horiz-adv-x="555" 
d="M398 0v266q0 35 -4.5 62.5t-24.5 45.5q-13 12 -32 19.5t-48 7.5q-20 0 -44 -8t-44 -27q-28 -29 -33 -68t-5 -86v-212h-100v475h95l2 -64q1 2 11.5 14.5t30 27t49 26t70.5 11.5q34 0 67 -10.5t62 -40.5q16 -16 25.5 -35t14.5 -39.5t6.5 -42t1.5 -41.5v-281h-100z" />
    <glyph glyph-name="o" unicode="o" horiz-adv-x="589" 
d="M550 238q0 -46 -15 -91t-46.5 -81t-79.5 -58t-114 -22t-114.5 22t-80 58t-46.5 81t-15 91t15 91t46.5 81t80 58t114.5 22t114 -22t79.5 -58t46.5 -81t15 -91zM446 238q0 42 -12.5 74.5t-34.5 54.5q-39 39 -104 39q-66 0 -105 -39q-21 -22 -34 -54.5t-13 -74.5t13 -74
t34 -54q39 -39 105 -39q65 0 104 39q22 22 34.5 54t12.5 74z" />
    <glyph glyph-name="p" unicode="p" 
d="M458 235q0 43 -11.5 75t-31 53t-46 31.5t-57.5 10.5q-29 0 -56.5 -11t-48.5 -32t-33.5 -52.5t-12.5 -73.5q0 -40 12 -71t32.5 -52t47.5 -31.5t57 -10.5q31 0 58.5 11.5t47 33t31 51.5t11.5 68zM562 237q0 -48 -15.5 -93.5t-46 -80.5t-75.5 -56t-103 -21q-41 0 -69.5 9.5
t-47.5 21.5t-29 23.5t-13 15.5v-242h-100v661h95l2 -67q2 3 13.5 16t33 28t53.5 26.5t76 11.5q37 0 77 -13t73 -42.5t54.5 -78t21.5 -119.5z" />
    <glyph glyph-name="q" unicode="q" 
d="M438 -186v247q-2 -2 -12 -14t-31 -25.5t-53 -24.5t-77 -11q-40 0 -80.5 14t-72.5 44.5t-52.5 78t-20.5 115.5q0 47 15 92t45 80.5t75 57.5t104 22q39 0 68 -9.5t48.5 -22.5t31 -25.5t16.5 -19.5l2 62h94v-661h-100zM440 240q0 40 -12 71t-32.5 52t-47.5 31.5t-57 10.5
q-32 0 -59 -11.5t-46.5 -33t-31 -52t-11.5 -68.5q0 -43 11.5 -75t31 -53t46 -31t57.5 -10q29 0 56.5 10.5t48.5 32t33.5 53t12.5 73.5z" />
    <glyph glyph-name="r" unicode="r" horiz-adv-x="351" 
d="M348 387q-6 1 -14 1.5t-19 0.5q-29 0 -57 -9t-49 -29q-32 -30 -39 -68t-7 -77v-206h-100v475h95l2 -82q26 43 72.5 70t97.5 27h9t9 -1v-102z" />
    <glyph glyph-name="s" unicode="s" horiz-adv-x="489" 
d="M450 135q0 -32 -14.5 -59t-42 -47t-67 -31.5t-90.5 -11.5q-54 0 -92.5 12t-63.5 26.5t-38 27.5t-15 16l54 61q2 -3 13.5 -13t31 -21t48 -20t64.5 -9q50 0 81 17t31 48q0 28 -23 41t-58 20t-75 12.5t-75 19.5t-58 41.5t-23 78.5q0 30 14 56.5t39.5 46.5t62.5 31.5t83 11.5
q53 0 90 -11t60.5 -25.5t36 -28.5t16.5 -19l-57 -54q-6 6 -17 16t-28 19t-41 16t-57 7q-41 0 -71.5 -16t-30.5 -47q0 -28 23 -40t58 -18t75 -11.5t75 -20t58 -42.5t23 -80z" />
    <glyph glyph-name="t" unicode="t" horiz-adv-x="413" 
d="M392 9q-5 -2 -34 -12.5t-77 -10.5q-15 0 -32 1.5t-35 6.5t-35 13.5t-32 22.5q-14 13 -23 27.5t-14 31t-6.5 37t-1.5 46.5v220h-105v83h105v151h100v-151h169v-83h-169v-211q0 -21 3 -44t20 -40q14 -14 32 -19.5t42 -5.5t43.5 5t24.5 7z" />
    <glyph glyph-name="u" unicode="u" horiz-adv-x="552" 
d="M397 0l-2 64q-1 -2 -10.5 -14t-28.5 -26.5t-48.5 -26t-70.5 -11.5q-44 0 -75.5 12t-53.5 34q-32 32 -41.5 71t-9.5 89v283h100v-271q0 -32 4 -57t23 -43q14 -14 33.5 -21.5t47.5 -7.5q20 0 43.5 8t42.5 27q21 20 28 46t9 58q1 14 1 27.5v28.5v205h100v-475h-92z" />
    <glyph glyph-name="v" unicode="v" horiz-adv-x="514" 
d="M304 0h-98l-203 475h108l147 -357l149 357h104z" />
    <glyph glyph-name="w" unicode="w" horiz-adv-x="774" 
d="M606 0h-98l-120 343l-122 -343h-98l-159 475h104l110 -347l120 347h90l122 -347l110 347h100z" />
    <glyph glyph-name="x" unicode="x" horiz-adv-x="515" 
d="M383 0l-130 173l-128 -173h-110l185 241l-178 234h116l122 -164l124 164h108l-179 -231l187 -244h-117z" />
    <glyph glyph-name="y" unicode="y" horiz-adv-x="514" 
d="M275 -82q-9 -21 -22 -42.5t-32 -38t-46 -27t-63 -10.5q-31 0 -52 6.5t-29 11.5l28 76q5 -2 16.5 -5.5t26.5 -3.5q34 0 52.5 17.5t31.5 46.5l23 52l-206 474h107l149 -360l148 360h104z" />
    <glyph glyph-name="z" unicode="z" horiz-adv-x="484" 
d="M33 0v82l283 310h-273v83h398v-81l-281 -309h291v-85h-418z" />
    <glyph glyph-name="braceleft" unicode="{" horiz-adv-x="310" 
d="M213 -186q-24 1 -50.5 5.5t-50.5 26.5t-30.5 48.5t-8.5 50.5v192q0 13 -2.5 25t-13.5 24q-13 13 -30 17t-30 4v90q13 0 30 5t30 17q11 11 13.5 24.5t2.5 27.5v176q2 24 8.5 50t30.5 49q28 23 60 27.5t65 4.5h52v-87h-52q-11 -1 -23.5 -3t-21.5 -11q-9 -10 -11.5 -25
t-2.5 -40v-110v-36t-1 -35q-1 -21 -9 -35.5t-20 -23.5t-26.5 -13.5t-28.5 -5.5q14 -2 28 -6.5t26 -13.5t20 -23t10 -36q1 -14 1 -28v-28v-150q0 -15 3 -29.5t12 -23.5q11 -11 28 -12.5t34 -1.5h34v-87h-76z" />
    <glyph glyph-name="bar" unicode="|" horiz-adv-x="255" 
d="M75 -186v986h105v-986h-105z" />
    <glyph glyph-name="braceright" unicode="}" horiz-adv-x="310" 
d="M21 -186v87h34q17 0 34 1.5t28 12.5q9 9 12 23.5t3 29.5v150v28t1 28q1 22 9.5 36t20.5 23t26 13.5t28 6.5q-14 1 -28.5 5.5t-26.5 13.5t-20 23.5t-9 35.5q-1 17 -1 35v36v110q0 25 -2.5 40t-11.5 25q-9 9 -21.5 11t-23.5 3h-52v87h52q33 0 65 -4.5t60 -27.5
q24 -23 30.5 -49t8.5 -50v-176q0 -14 2.5 -27.5t13.5 -24.5q13 -12 30 -17t30 -5v-90q-13 0 -30 -4t-30 -17q-11 -12 -13.5 -24t-2.5 -25v-192q-2 -24 -8.5 -50.5t-30.5 -48.5t-50.5 -26.5t-50.5 -5.5h-76z" />
    <glyph glyph-name="asciitilde" unicode="~" 
d="M557 278q-8 -12 -21 -28t-32 -31t-44.5 -25t-56.5 -10q-33 0 -58.5 7t-48 15.5t-44.5 15.5t-47 7q-49 0 -92 -56l-69 51q30 47 69 71t81 24q37 0 63 -7t47.5 -15.5t41 -15.5t43.5 -7q34 0 55.5 14.5t43.5 40.5z" />
    <glyph glyph-name="exclamdown" unicode="&#xa1;" horiz-adv-x="271" 
d="M189 -186h-107l4 493h99zM202 435q0 -28 -19 -47t-48 -19q-28 0 -47 19.5t-19 47.5q0 27 18.5 46.5t47.5 19.5q28 0 47.5 -19.5t19.5 -47.5z" />
    <glyph glyph-name="cent" unicode="&#xa2;" 
d="M543 87q0 -1 -10.5 -15.5t-33 -32.5t-57 -34.5t-82.5 -20.5v-88h-84v89q-56 6 -97.5 29.5t-68.5 59t-40.5 79.5t-13.5 91t13.5 90.5t41 78.5t69 58.5t96.5 30.5v87h84v-86q45 -4 78.5 -19t56 -32t34 -31.5t13.5 -17.5l-66 -53q-3 3 -10.5 12t-21.5 19.5t-34.5 20
t-49.5 14.5v-345q29 4 50 14.5t35 21.5t22 20.5t10 12.5zM276 414q-57 -13 -86.5 -61.5t-29.5 -109.5q0 -63 28 -109t88 -61v341z" />
    <glyph glyph-name="sterling" unicode="&#xa3;" 
d="M494 530q-4 4 -15 17t-30 26t-45 23.5t-60 10.5q-29 0 -52 -10.5t-39 -27.5t-24 -39t-8 -44q0 -35 5.5 -57t14.5 -50h199v-83h-181q1 -4 3 -17t2 -28q0 -34 -7 -60.5t-17 -46.5t-22 -34t-21 -22h350v-88h-484v80q53 25 77 65.5t24 94.5q0 22 -2.5 36.5t-4.5 19.5h-94v83
h74q-5 14 -12.5 43t-7.5 62q0 45 16.5 83.5t45.5 66.5t69.5 44t88.5 16q54 0 94 -15t67.5 -34.5t42.5 -37t19 -23.5z" />
    <glyph glyph-name="currency" unicode="&#xa4;" horiz-adv-x="620" 
d="M586 564q-23 -23 -45 -44.5t-45 -44.5q24 -36 34.5 -66t10.5 -66q0 -72 -44 -134q22 -23 43 -44.5t43 -44.5l-51 -51l-88 88q-37 -23 -69.5 -34t-68.5 -11t-68 11t-64 34l-89 -89q-13 13 -25.5 26t-25.5 26q22 23 44 44.5t44 44.5q-24 36 -33.5 65.5t-9.5 66.5t11 69
t34 65l-89 89l51 51q23 -23 45 -44.5t45 -44.5q36 26 66 36t68 10t68 -10t67 -36q23 23 44.5 45t44.5 45zM460 344q0 31 -12 58.5t-32.5 48t-48.5 32t-60 11.5q-30 0 -57 -12t-47 -32.5t-32 -48t-12 -58.5q0 -32 12 -59.5t32.5 -48t48 -32.5t58.5 -12t58.5 12t48 32.5
t32 48.5t11.5 60z" />
    <glyph glyph-name="yen" unicode="&#xa5;" 
d="M400 379h149v-83h-198v-73h192v-82h-192v-141h-100v141h-190v82h190v73h-196v83h146l-176 299h113q31 -58 62 -113q26 -48 54.5 -98.5t49.5 -88.5l164 300h109z" />
    <glyph glyph-name="brokenbar" unicode="&#xa6;" horiz-adv-x="255" 
d="M75 441v359h105v-359h-105zM75 -186v358h105v-358h-105z" />
    <glyph glyph-name="section" unicode="&#xa7;" horiz-adv-x="582" 
d="M532 -4q0 -45 -18.5 -81.5t-52 -62t-80 -39t-101.5 -13.5q-66 0 -112.5 17.5t-76.5 39.5t-44 41t-16 22l66 57q4 -5 17 -19.5t35.5 -30.5t56 -28.5t77.5 -12.5q26 0 52.5 5.5t47.5 17.5t34.5 32.5t13.5 50.5q0 35 -28 52.5t-70 28.5t-90.5 20.5t-90.5 29t-70 55t-28 96.5
q0 23 5.5 42t13.5 33.5t16.5 24.5t15.5 15q-23 16 -38 45t-15 74q0 38 16 72t46 59.5t72.5 40t95.5 14.5q64 0 109.5 -17t74.5 -38t43.5 -39.5t16.5 -21.5l-65 -56q-3 4 -15 18t-34 29t-54 26.5t-76 11.5q-24 0 -47 -5.5t-41.5 -17.5t-30 -30.5t-11.5 -43.5q0 -28 16 -44.5
t42.5 -27t60.5 -17t69.5 -14.5t69.5 -19t60.5 -31t42.5 -50.5t16 -76.5q0 -35 -12.5 -67t-33.5 -50q23 -17 36 -46.5t13 -70.5zM433 222q0 14 -7 22q-8 27 -36 42.5t-64.5 25.5t-76 18t-70.5 20q-13 -12 -21 -31.5t-8 -39.5q0 -35 23.5 -53.5t61 -30t83.5 -20t91 -23.5
q12 12 18 31t6 39z" />
    <glyph glyph-name="dieresis" unicode="&#xa8;" horiz-adv-x="360" 
d="M330 613q0 -24 -16.5 -40.5t-40.5 -16.5t-41 16.5t-17 40.5t17 40.5t41 16.5t40.5 -16.5t16.5 -40.5zM145 613q0 -24 -16.5 -40.5t-40.5 -16.5t-41 16.5t-17 40.5t17 40.5t41 16.5t40.5 -16.5t16.5 -40.5z" />
    <glyph glyph-name="copyright" unicode="&#xa9;" horiz-adv-x="822" 
d="M765 339q0 -74 -28 -138.5t-76 -112.5t-112.5 -76t-137.5 -28q-74 0 -138.5 28t-112.5 76t-75.5 112.5t-27.5 138.5q0 73 27.5 138t75.5 113t112.5 76t138.5 28q73 0 137.5 -28t112.5 -76t76 -113t28 -138zM688 339q0 57 -22 108t-59.5 89.5t-88 60.5t-107.5 22t-108 -22
t-88.5 -60.5t-59.5 -89.5t-22 -108q0 -58 22 -109t59.5 -89.5t88 -60.5t108.5 -22q57 0 107.5 22t88 60.5t59.5 89.5t22 109zM587 224l-4 -6q-8 -12 -22 -26.5t-34 -27t-47.5 -21t-62.5 -8.5q-51 0 -88 17.5t-61 46.5t-35.5 65.5t-11.5 74.5t12 74.5t36 65t61.5 46
t88.5 17.5q36 0 64 -9t48 -22.5t33 -28.5t21 -26l-56 -43q-5 5 -13.5 14.5t-21.5 19t-32 16.5t-44 7q-29 0 -50.5 -11t-35.5 -29t-21 -42t-7 -49q0 -26 7 -49.5t21 -41.5t35.5 -29t50.5 -11q23 0 41 6t32 14.5t24 19t16 19.5z" />
    <glyph glyph-name="ordfeminine" unicode="&#xaa;" horiz-adv-x="344" 
d="M234 415l-1 23q-7 -7 -24 -18t-54 -11q-19 0 -37 5t-31.5 15t-22 25.5t-8.5 37.5q0 20 6 33.5t17 22.5q20 18 50.5 22.5t57.5 4.5h43v7q-4 38 -52 38q-32 0 -50 -12.5t-24 -18.5l-41 39q3 4 11.5 12t23 16t35 14.5t48.5 6.5q29 0 51.5 -7.5t36.5 -21.5q21 -20 25 -44.5
t4 -53.5v-135h-64zM230 528h-38q-11 0 -22.5 -1t-21.5 -4.5t-16.5 -11t-6.5 -19.5q0 -16 11 -23t27 -7q18 0 30 5.5t20 11.5q10 9 13.5 21t3.5 25v3z" />
    <glyph glyph-name="guillemotleft" unicode="&#xab;" horiz-adv-x="463" 
d="M348 47l-150 206l150 206l58 -40l-107 -166l107 -165zM183 47l-150 206l150 206l58 -40l-107 -166l107 -165z" />
    <glyph glyph-name="logicalnot" unicode="&#xac;" 
d="M471 105v198h-428v88h515v-286h-87z" />
    <glyph glyph-name="registered" unicode="&#xae;" horiz-adv-x="476" 
d="M443 489q0 -42 -16 -79.5t-44 -65.5t-65.5 -44t-79.5 -16t-79.5 16t-65.5 44t-44 65.5t-16 79.5t16 79.5t44 65.5t65.5 44t79.5 16t79.5 -16t65.5 -44t44 -65.5t16 -79.5zM393 488q0 32 -12.5 60t-33.5 49t-49 33.5t-60 12.5t-60 -12t-49 -33t-33.5 -49t-12.5 -60
t12 -60.5t33 -49.5t49.5 -33.5t60.5 -12.5t60 12.5t49 33.5t33 49t12 60h1zM283 392l-45 79h-27v-79h-46v204h74q15 0 31 -1.5t28 -10.5q14 -11 19.5 -24t5.5 -27q0 -18 -11 -34t-29 -20l51 -87h-51zM279 532q0 17 -9 21q-6 4 -16.5 4.5t-19.5 0.5h-23v-51h22q20 0 32.5 4
t12.5 21h1z" />
    <glyph glyph-name="macron" unicode="&#xaf;" horiz-adv-x="346" 
d="M28 580v73h290v-73h-290z" />
    <glyph glyph-name="degree" unicode="&#xb0;" horiz-adv-x="376" 
d="M349 533q0 -33 -12.5 -62.5t-34.5 -51.5t-51.5 -34.5t-62.5 -12.5t-62.5 12.5t-51.5 34.5t-34.5 51.5t-12.5 62.5t12.5 62.5t34.5 51.5t51.5 34.5t62.5 12.5t62.5 -12.5t51.5 -34.5t34.5 -51.5t12.5 -62.5zM274 533q0 36 -25 62t-61 26q-37 0 -62 -26t-25 -62
q0 -37 25 -62.5t62 -25.5q36 0 61 25.5t25 62.5z" />
    <glyph glyph-name="plusminus" unicode="&#xb1;" 
d="M346 318v-185h-90v185h-213v88h213v183h90v-183h212v-88h-212zM43 0v88h515v-88h-515z" />
    <glyph glyph-name="uni00B2" unicode="&#xb2;" horiz-adv-x="393" 
d="M322 574q0 -24 -8.5 -42.5t-22 -33t-31 -26t-34.5 -20.5q-13 -7 -28 -14.5t-28 -16.5t-22.5 -20t-12.5 -25h185v-62h-259v22q0 33 7 59.5t35 52.5q21 21 47 35.5t51 28.5q23 14 36 29t13 35q0 23 -16 38t-45 15q-30 0 -51.5 -14.5t-39.5 -36.5l-47 39q4 5 14.5 17
t27.5 24t41.5 21t56.5 9q55 0 93 -29.5t38 -84.5z" />
    <glyph glyph-name="uni00B3" unicode="&#xb3;" horiz-adv-x="390" 
d="M327 424q0 -55 -39.5 -85.5t-102.5 -30.5q-51 0 -85.5 18.5t-54.5 47.5l48 41q6 -6 13.5 -14t18.5 -15q11 -6 25 -12t33 -6q33 0 51 14.5t18 38.5q0 19 -9 29.5t-22 15.5t-28 6t-28 1h-31v58h28q14 0 28.5 1t26.5 5.5t19.5 14t7.5 27.5q0 15 -12 32.5t-44 17.5
q-29 0 -49 -13t-39 -33l-46 40q12 14 21.5 22t20.5 16q16 11 39 19t54 8q55 0 91 -29t36 -76q0 -33 -16.5 -53t-34.5 -26q9 -3 20 -9t20.5 -15.5t15.5 -23.5t6 -32z" />
    <glyph glyph-name="acute" unicode="&#xb4;" horiz-adv-x="360" 
d="M195 547h-84l88 131h115z" />
    <glyph glyph-name="uni00B5" unicode="&#xb5;" horiz-adv-x="558" 
d="M495 475v-475h-92l-2 64q-2 -3 -12 -15.5t-29 -26t-47 -24.5t-66 -11q-57 0 -87 22v-195h-97v661h100v-271q0 -32 4 -57t23 -43q14 -14 33.5 -21.5t47.5 -7.5q20 0 43.5 8t42.5 27q21 20 28 46t9 58q1 14 1 27.5v28.5v205h100z" />
    <glyph glyph-name="paragraph" unicode="&#xb6;" horiz-adv-x="626" 
d="M451 -116v705h-72v-705h-100v379q-58 1 -106.5 14t-86.5 54q-29 32 -41 70.5t-12 73.5q0 39 14 77.5t49 70.5q22 20 47.5 31t55 16.5t62 6.5t68.5 1h222v-794h-100z" />
    <glyph glyph-name="periodcentered" unicode="&#xb7;" horiz-adv-x="255" 
d="M194 255q0 -28 -19.5 -47.5t-47.5 -19.5q-29 0 -47.5 19.5t-18.5 46.5q0 28 19 47.5t47 19.5q29 0 48 -19t19 -47z" />
    <glyph glyph-name="cedilla" unicode="&#xb8;" horiz-adv-x="343" 
d="M272 -121q0 -34 -28 -60t-79 -26q-20 0 -36 4t-27 9.5t-18 11.5t-10 9l33 41q2 -2 17 -11.5t38 -9.5q22 0 32 10.5t10 23.5q0 14 -8.5 23t-27.5 9q-16 0 -24.5 -5t-12.5 -9l-45 29l45 73h63l-29 -44q2 1 7 1.5t7 0.5q50 0 71.5 -24t21.5 -56z" />
    <glyph glyph-name="uni00B9" unicode="&#xb9;" horiz-adv-x="399" 
d="M78 375h98v224l-82 -48l-35 52l126 75h63v-303h98v-61h-268v61z" />
    <glyph glyph-name="ordmasculine" unicode="&#xba;" horiz-adv-x="342" 
d="M315 540q0 -25 -9 -49.5t-27 -44t-45 -31.5t-63 -12q-37 0 -64 12t-45 31.5t-26.5 44t-8.5 49.5t8.5 49.5t26.5 44t45 32t64 12.5q36 0 63 -12t45 -31.5t27 -44.5t9 -50zM171 619q-35 0 -53.5 -22.5t-18.5 -56.5t18.5 -56t53.5 -22t53.5 22t18.5 56t-18.5 56.5
t-53.5 22.5z" />
    <glyph glyph-name="guillemotright" unicode="&#xbb;" horiz-adv-x="463" 
d="M57 88l107 165l-107 166l58 40l150 -206l-150 -206zM222 88l107 165l-107 166l58 40l150 -206l-150 -206z" />
    <glyph glyph-name="onequarter" unicode="&#xbc;" horiz-adv-x="894" 
d="M785 79v-79h-69v79h-167v50l169 235h67v-229h58v-56h-58zM716 267l-95 -132h95v132zM326 -35l-64 37l401 694l64 -37zM78 375h98v224l-82 -48l-35 52l126 75h63v-303h98v-61h-268v61z" />
    <glyph glyph-name="onehalf" unicode="&#xbd;" horiz-adv-x="904" 
d="M289 -35l-64 37l401 694l64 -37zM78 375h98v224l-82 -48l-35 52l126 75h63v-303h98v-61h-268v61zM833 258q0 -24 -8.5 -42t-22 -32.5t-31 -25.5t-34.5 -20q-13 -7 -28 -14.5t-28 -16.5t-22.5 -20t-12.5 -25h185v-62h-259v22q0 33 7 59.5t35 52.5q21 21 47 35.5t51 28.5
q23 14 36 28t13 34q0 23 -16 38t-45 15q-30 0 -51.5 -14.5t-39.5 -36.5l-47 39q4 5 14.5 17t27.5 24t41.5 21t56.5 9q55 0 93 -29.5t38 -84.5z" />
    <glyph glyph-name="threequarters" unicode="&#xbe;" horiz-adv-x="857" 
d="M280 -35l-64 37l401 694l64 -37zM748 79v-79h-69v79h-167v50l169 235h67v-229h58v-56h-58zM679 267l-95 -132h95v132zM327 424q0 -55 -39.5 -85.5t-102.5 -30.5q-51 0 -85.5 18.5t-54.5 47.5l48 41q6 -6 13.5 -14t18.5 -15q11 -6 25 -12t33 -6q33 0 51 14.5t18 38.5
q0 19 -9 29.5t-22 15.5t-28 6t-28 1h-31v58h28q14 0 28.5 1t26.5 5.5t19.5 14t7.5 27.5q0 15 -12 32.5t-44 17.5q-29 0 -49 -13t-39 -33l-46 40q12 14 21.5 22t20.5 16q16 11 39 19t54 8q55 0 91 -29t36 -76q0 -33 -16.5 -53t-34.5 -26q9 -3 20 -9t20.5 -15.5t15.5 -23.5
t6 -32z" />
    <glyph glyph-name="questiondown" unicode="&#xbf;" horiz-adv-x="510" 
d="M33 -14q0 49 26 85t62 68q27 24 46 39t31.5 28.5t18 29.5t5.5 42v29h100v-31q0 -33 -5 -55t-18 -41t-34.5 -38t-55.5 -47q-28 -23 -49.5 -48t-21.5 -62q0 -48 31 -73t87 -25q36 0 63.5 12.5t47 27.5t30 28.5t13.5 16.5l67 -56q-8 -10 -25 -30t-44.5 -39.5t-66 -34
t-90.5 -14.5q-47 0 -86.5 12.5t-69 36.5t-46 59t-16.5 80zM205 435q0 28 19.5 47.5t47.5 19.5q29 0 47.5 -19.5t18.5 -46.5q0 -28 -19 -47.5t-47 -19.5q-29 0 -48 19t-19 47z" />
    <glyph glyph-name="Agrave" unicode="&#xc0;" horiz-adv-x="697" 
d="M574 0l-67 163h-320l-67 -163h-111l280 678h118l281 -678h-114zM347 570l-127 -318h254zM223 880h115l88 -131h-84z" />
    <glyph glyph-name="Aacute" unicode="&#xc1;" horiz-adv-x="697" 
d="M574 0l-67 163h-320l-67 -163h-111l280 678h118l281 -678h-114zM347 570l-127 -318h254zM353 749h-84l88 131h115z" />
    <glyph glyph-name="Acircumflex" unicode="&#xc2;" horiz-adv-x="697" 
d="M574 0l-67 163h-320l-67 -163h-111l280 678h118l281 -678h-114zM347 570l-127 -318h254zM420 749l-72 81l-72 -81h-83l89 131h132l89 -131h-83z" />
    <glyph glyph-name="Atilde" unicode="&#xc3;" horiz-adv-x="697" 
d="M574 0l-67 163h-320l-67 -163h-111l280 678h118l281 -678h-114zM347 570l-127 -318h254zM503 869q0 -23 -5 -43t-16 -35.5t-29.5 -24.5t-45.5 -9q-16 0 -31.5 6t-29.5 13.5t-27.5 13.5t-26.5 6q-19 0 -27 -12t-8 -24h-63q0 18 4.5 38t15.5 36.5t29.5 27t47.5 10.5
q18 0 33.5 -6t29.5 -13t27 -13t25 -6q15 0 25 9t10 26h62z" />
    <glyph glyph-name="Adieresis" unicode="&#xc4;" horiz-adv-x="697" 
d="M574 0l-67 163h-320l-67 -163h-111l280 678h118l281 -678h-114zM347 570l-127 -318h254zM498 807q0 -24 -16.5 -40.5t-40.5 -16.5t-41 16.5t-17 40.5t17 40.5t41 16.5t40.5 -16.5t16.5 -40.5zM313 807q0 -24 -16.5 -40.5t-40.5 -16.5t-41 16.5t-17 40.5t17 40.5t41 16.5
t40.5 -16.5t16.5 -40.5z" />
    <glyph glyph-name="Aring" unicode="&#xc5;" horiz-adv-x="697" 
d="M574 0l-67 163h-320l-67 -163h-111l280 678h118l281 -678h-114zM347 570l-127 -318h254zM453 816q0 -22 -8.5 -41t-22.5 -33t-33 -22t-41 -8t-41 8t-33.5 22t-22.5 33t-8 41t8 41t22.5 33t33.5 22t41 8t41 -8t33 -22t22.5 -33t8.5 -41zM396 816q0 20 -14 34.5t-34 14.5
t-34 -14.5t-14 -34.5t14 -34.5t34 -14.5t34 14.5t14 34.5z" />
    <glyph glyph-name="AE" unicode="&#xc6;" horiz-adv-x="995" 
d="M488 0v170h-261l-107 -170h-123l432 678h508v-90h-344v-200h319v-88h-319v-209h357v-91h-462zM488 597l-209 -339h209v339z" />
    <glyph glyph-name="Ccedilla" unicode="&#xc7;" horiz-adv-x="692" 
d="M325 -12q-63 9 -114.5 36.5t-88 72.5t-57 106t-20.5 136q0 74 22 138.5t65 112.5t106.5 76t146.5 28q65 0 112.5 -15t79.5 -35.5t50 -41t25 -30.5l-68 -60q-2 2 -15 16.5t-37 31t-60 29.5t-84 13q-61 0 -105 -22t-72.5 -58.5t-42.5 -84t-14 -98.5q0 -52 14.5 -99.5
t43.5 -83.5t72.5 -57.5t102.5 -21.5q47 0 84 12t63 27.5t41.5 30t20.5 19.5l64 -63q-2 -3 -20 -22t-52 -40.5t-84.5 -39t-118.5 -17.5l-18 -27q2 1 7 1.5t7 0.5q50 0 71.5 -24t21.5 -56q0 -34 -28 -60t-79 -26q-20 0 -36 4t-27 9.5t-18 11.5t-10 9l33 41q2 -2 17 -11.5
t38 -9.5q22 0 32 10.5t10 23.5q0 14 -8.5 23t-27.5 9q-16 0 -24.5 -5t-12.5 -9l-45 29z" />
    <glyph glyph-name="Egrave" unicode="&#xc8;" horiz-adv-x="616" 
d="M75 0v678h483v-90h-378v-200h353v-88h-353v-209h391v-91h-496zM199 880h115l88 -131h-84z" />
    <glyph glyph-name="Eacute" unicode="&#xc9;" horiz-adv-x="616" 
d="M75 0v678h483v-90h-378v-200h353v-88h-353v-209h391v-91h-496zM329 749h-84l88 131h115z" />
    <glyph glyph-name="Ecircumflex" unicode="&#xca;" horiz-adv-x="616" 
d="M75 0v678h483v-90h-378v-200h353v-88h-353v-209h391v-91h-496zM395 749l-72 81l-72 -81h-83l89 131h132l89 -131h-83z" />
    <glyph glyph-name="Edieresis" unicode="&#xcb;" horiz-adv-x="616" 
d="M75 0v678h483v-90h-378v-200h353v-88h-353v-209h391v-91h-496zM474 807q0 -24 -16.5 -40.5t-40.5 -16.5t-41 16.5t-17 40.5t17 40.5t41 16.5t40.5 -16.5t16.5 -40.5zM289 807q0 -24 -16.5 -40.5t-40.5 -16.5t-41 16.5t-17 40.5t17 40.5t41 16.5t40.5 -16.5t16.5 -40.5z
" />
    <glyph glyph-name="Igrave" unicode="&#xcc;" horiz-adv-x="255" 
d="M75 0v678h105v-678h-105zM-1 880h115l88 -131h-84z" />
    <glyph glyph-name="Iacute" unicode="&#xcd;" horiz-adv-x="255" 
d="M75 0v678h105v-678h-105zM137 749h-84l88 131h115z" />
    <glyph glyph-name="Icircumflex" unicode="&#xce;" horiz-adv-x="255" 
d="M75 0v678h105v-678h-105zM200 749l-72 81l-72 -81h-83l89 131h132l89 -131h-83z" />
    <glyph glyph-name="Idieresis" unicode="&#xcf;" horiz-adv-x="255" 
d="M75 0v678h105v-678h-105zM278 807q0 -24 -16.5 -40.5t-40.5 -16.5t-41 16.5t-17 40.5t17 40.5t41 16.5t40.5 -16.5t16.5 -40.5zM93 807q0 -24 -16.5 -40.5t-40.5 -16.5t-41 16.5t-17 40.5t17 40.5t41 16.5t40.5 -16.5t16.5 -40.5z" />
    <glyph glyph-name="Eth" unicode="&#xd0;" horiz-adv-x="761" 
d="M113 678h213q39 0 78.5 -2t76.5 -9.5t71.5 -23.5t64.5 -44q50 -47 74.5 -113t24.5 -144t-25 -143t-74 -111q-35 -33 -73.5 -51t-77 -26t-74.5 -9.5t-66 -1.5h-213v300h-104v86h104v292zM218 90h103q27 0 55 1t55 6t53 17t49 33q38 35 56 86.5t18 109.5q0 56 -17 106
t-52 86q-20 20 -44 31t-50 16t-55 6t-59 1h-112v-203h187v-86h-187v-210z" />
    <glyph glyph-name="Ntilde" unicode="&#xd1;" horiz-adv-x="719" 
d="M540 0l-364 515v-515h-101v678h106l362 -510v510h101v-678h-104zM514 870q0 -23 -5 -43t-16 -35.5t-29.5 -24.5t-45.5 -9q-16 0 -31.5 6t-29.5 13.5t-27.5 13.5t-26.5 6q-19 0 -27 -12t-8 -24h-63q0 18 4.5 38t15.5 36.5t29.5 27t47.5 10.5q18 0 33.5 -6t29.5 -13t27 -13
t25 -6q15 0 25 9t10 26h62z" />
    <glyph glyph-name="Ograve" unicode="&#xd2;" horiz-adv-x="780" 
d="M735 339q0 -65 -21 -129t-64 -114t-108 -81t-152 -31t-152 31t-108 81t-64 114t-21 129t21 128.5t64 114t108 81.5t152 31t152 -31t108 -81.5t64 -114t21 -128.5zM626 339q0 51 -14.5 99t-44 84.5t-73.5 59t-104 22.5t-104 -22.5t-73.5 -59t-44 -84.5t-14.5 -99t14.5 -99
t44 -85t73.5 -59t104 -22t104 22t73.5 59t44 85t14.5 99zM266 880h115l88 -131h-84z" />
    <glyph glyph-name="Oacute" unicode="&#xd3;" horiz-adv-x="780" 
d="M735 339q0 -65 -21 -129t-64 -114t-108 -81t-152 -31t-152 31t-108 81t-64 114t-21 129t21 128.5t64 114t108 81.5t152 31t152 -31t108 -81.5t64 -114t21 -128.5zM626 339q0 51 -14.5 99t-44 84.5t-73.5 59t-104 22.5t-104 -22.5t-73.5 -59t-44 -84.5t-14.5 -99t14.5 -99
t44 -85t73.5 -59t104 -22t104 22t73.5 59t44 85t14.5 99zM394 749h-84l88 131h115z" />
    <glyph glyph-name="Ocircumflex" unicode="&#xd4;" horiz-adv-x="780" 
d="M735 339q0 -65 -21 -129t-64 -114t-108 -81t-152 -31t-152 31t-108 81t-64 114t-21 129t21 128.5t64 114t108 81.5t152 31t152 -31t108 -81.5t64 -114t21 -128.5zM626 339q0 51 -14.5 99t-44 84.5t-73.5 59t-104 22.5t-104 -22.5t-73.5 -59t-44 -84.5t-14.5 -99t14.5 -99
t44 -85t73.5 -59t104 -22t104 22t73.5 59t44 85t14.5 99zM462 749l-72 81l-72 -81h-83l89 131h132l89 -131h-83z" />
    <glyph glyph-name="Otilde" unicode="&#xd5;" horiz-adv-x="780" 
d="M735 339q0 -65 -21 -129t-64 -114t-108 -81t-152 -31t-152 31t-108 81t-64 114t-21 129t21 128.5t64 114t108 81.5t152 31t152 -31t108 -81.5t64 -114t21 -128.5zM626 339q0 51 -14.5 99t-44 84.5t-73.5 59t-104 22.5t-104 -22.5t-73.5 -59t-44 -84.5t-14.5 -99t14.5 -99
t44 -85t73.5 -59t104 -22t104 22t73.5 59t44 85t14.5 99zM543 869q0 -23 -5 -43t-16 -35.5t-29.5 -24.5t-45.5 -9q-16 0 -31.5 6t-29.5 13.5t-27.5 13.5t-26.5 6q-19 0 -27 -12t-8 -24h-63q0 18 4.5 38t15.5 36.5t29.5 27t47.5 10.5q18 0 33.5 -6t29.5 -13t27 -13t25 -6
q15 0 25 9t10 26h62z" />
    <glyph glyph-name="Odieresis" unicode="&#xd6;" horiz-adv-x="780" 
d="M735 339q0 -65 -21 -129t-64 -114t-108 -81t-152 -31t-152 31t-108 81t-64 114t-21 129t21 128.5t64 114t108 81.5t152 31t152 -31t108 -81.5t64 -114t21 -128.5zM626 339q0 51 -14.5 99t-44 84.5t-73.5 59t-104 22.5t-104 -22.5t-73.5 -59t-44 -84.5t-14.5 -99t14.5 -99
t44 -85t73.5 -59t104 -22t104 22t73.5 59t44 85t14.5 99zM539 807q0 -24 -16.5 -40.5t-40.5 -16.5t-41 16.5t-17 40.5t17 40.5t41 16.5t40.5 -16.5t16.5 -40.5zM354 807q0 -24 -16.5 -40.5t-40.5 -16.5t-41 16.5t-17 40.5t17 40.5t41 16.5t40.5 -16.5t16.5 -40.5z" />
    <glyph glyph-name="multiply" unicode="&#xd7;" 
d="M469 19l-169 169l-169 -169l-63 63l169 168l-169 170l64 63l169 -169l169 169l63 -63l-169 -168l169 -169z" />
    <glyph glyph-name="Oslash" unicode="&#xd8;" horiz-adv-x="782" 
d="M735 339q0 -65 -21 -129t-64 -114t-108 -81t-152 -31q-68 0 -121 18.5t-91 48.5l-68 -70l-65 62l70 72q-34 47 -52 105t-18 119q0 65 21 128.5t64 114t108 81.5t152 31q68 0 120.5 -18.5t93.5 -49.5l69 70l64 -61l-71 -75q35 -47 52 -104t17 -117zM537 554q-19 16 -55 33
t-92 17q-60 0 -104 -22.5t-73.5 -59t-44 -84.5t-14.5 -99q0 -82 35 -149zM626 339q0 40 -9.5 79t-25.5 68l-347 -363q26 -22 63 -35.5t83 -13.5q60 0 104 22t73.5 59t44 85t14.5 99z" />
    <glyph glyph-name="Ugrave" unicode="&#xd9;" horiz-adv-x="709" 
d="M640 284q0 -31 -2 -60t-9.5 -56t-21.5 -52.5t-38 -49.5q-42 -42 -97.5 -61t-117.5 -19t-117 19t-98 62q-25 25 -39 53t-21 56.5t-8.5 56t-1.5 53.5v392h105v-379q0 -23 1 -45.5t5.5 -45t14 -43t27.5 -38.5q24 -24 58.5 -37t74.5 -13q39 0 73 12t57 36q32 32 40 72t8 92
v389h107v-394zM231 880h115l88 -131h-84z" />
    <glyph glyph-name="Uacute" unicode="&#xda;" horiz-adv-x="709" 
d="M640 284q0 -31 -2 -60t-9.5 -56t-21.5 -52.5t-38 -49.5q-42 -42 -97.5 -61t-117.5 -19t-117 19t-98 62q-25 25 -39 53t-21 56.5t-8.5 56t-1.5 53.5v392h105v-379q0 -23 1 -45.5t5.5 -45t14 -43t27.5 -38.5q24 -24 58.5 -37t74.5 -13q39 0 73 12t57 36q32 32 40 72t8 92
v389h107v-394zM359 749h-84l88 131h115z" />
    <glyph glyph-name="Ucircumflex" unicode="&#xdb;" horiz-adv-x="709" 
d="M640 284q0 -31 -2 -60t-9.5 -56t-21.5 -52.5t-38 -49.5q-42 -42 -97.5 -61t-117.5 -19t-117 19t-98 62q-25 25 -39 53t-21 56.5t-8.5 56t-1.5 53.5v392h105v-379q0 -23 1 -45.5t5.5 -45t14 -43t27.5 -38.5q24 -24 58.5 -37t74.5 -13q39 0 73 12t57 36q32 32 40 72t8 92
v389h107v-394zM427 749l-72 81l-72 -81h-83l89 131h132l89 -131h-83z" />
    <glyph glyph-name="Udieresis" unicode="&#xdc;" horiz-adv-x="709" 
d="M640 284q0 -31 -2 -60t-9.5 -56t-21.5 -52.5t-38 -49.5q-42 -42 -97.5 -61t-117.5 -19t-117 19t-98 62q-25 25 -39 53t-21 56.5t-8.5 56t-1.5 53.5v392h105v-379q0 -23 1 -45.5t5.5 -45t14 -43t27.5 -38.5q24 -24 58.5 -37t74.5 -13q39 0 73 12t57 36q32 32 40 72t8 92
v389h107v-394zM504 807q0 -24 -16.5 -40.5t-40.5 -16.5t-41 16.5t-17 40.5t17 40.5t41 16.5t40.5 -16.5t16.5 -40.5zM319 807q0 -24 -16.5 -40.5t-40.5 -16.5t-41 16.5t-17 40.5t17 40.5t41 16.5t40.5 -16.5t16.5 -40.5z" />
    <glyph glyph-name="Yacute" unicode="&#xdd;" horiz-adv-x="621" 
d="M362 291v-291h-105v291l-248 387h121l183 -293l182 293h117zM314 749h-84l88 131h115z" />
    <glyph glyph-name="Thorn" unicode="&#xde;" horiz-adv-x="624" 
d="M603 356q0 -37 -11.5 -75t-39.5 -68q-39 -42 -94.5 -56t-124.5 -14h-153v-143h-105v678h105v-120h122q37 0 71 -1t63.5 -6.5t55.5 -16.5t47 -31q35 -32 49.5 -70t14.5 -77zM497 353q0 50 -27 77q-26 28 -70 35t-100 7h-120v-241h143q57 0 91 10t57 33q12 13 19 33.5
t7 45.5z" />
    <glyph glyph-name="germandbls" unicode="&#xdf;" horiz-adv-x="573" 
d="M534 192q0 -53 -19 -91.5t-50.5 -63.5t-72 -37t-83.5 -12q-51 0 -77.5 10t-31.5 13l30 76q5 -2 24.5 -8.5t47.5 -6.5q25 0 48.5 7t42 22t29.5 38t11 55q0 26 -8.5 45.5t-22.5 32.5q-15 15 -33.5 22.5t-38 11.5t-39.5 4.5t-36 0.5h-34v85h37q38 0 67.5 6t50.5 29
q12 13 19.5 30.5t7.5 40.5q0 46 -34 76.5t-88 30.5q-27 0 -51 -8.5t-41 -25.5q-23 -23 -27.5 -51t-4.5 -72v-452h-100v451q0 57 9.5 102.5t45.5 80.5q32 32 74.5 45.5t92.5 13.5t91 -13t70 -36.5t45 -57t16 -75.5q0 -36 -12 -62.5t-28.5 -45t-34 -29.5t-28.5 -14
q12 -2 35 -10.5t45.5 -28t39 -51t16.5 -78.5z" />
    <glyph glyph-name="agrave" unicode="&#xe0;" horiz-adv-x="519" 
d="M371 0l-3 60q-2 -2 -11.5 -13.5t-29 -24.5t-49 -23.5t-70.5 -10.5q-33 0 -64 9t-54 27.5t-37 47t-14 67.5q0 35 11 59.5t28 41.5q18 18 39 29t43 17t43.5 8t41.5 2h120v2q0 22 -4.5 40.5t-17.5 33.5q-14 17 -37.5 25.5t-54.5 8.5q-30 0 -54 -8.5t-41.5 -20t-28.5 -22
t-15 -14.5l-58 58q2 3 15 17.5t38 31t62 29.5t88 13q54 0 91.5 -13.5t63.5 -39.5q35 -36 42.5 -80t7.5 -103v-254h-91zM284 222q-22 0 -47.5 -1.5t-47 -9.5t-36 -24.5t-14.5 -46.5q0 -38 26 -55t61 -17q37 0 62 11.5t41 25.5q23 22 29 49t7 56v12h-81zM136 678h115l88 -131
h-84z" />
    <glyph glyph-name="aacute" unicode="&#xe1;" horiz-adv-x="519" 
d="M371 0l-3 60q-2 -2 -11.5 -13.5t-29 -24.5t-49 -23.5t-70.5 -10.5q-33 0 -64 9t-54 27.5t-37 47t-14 67.5q0 35 11 59.5t28 41.5q18 18 39 29t43 17t43.5 8t41.5 2h120v2q0 22 -4.5 40.5t-17.5 33.5q-14 17 -37.5 25.5t-54.5 8.5q-30 0 -54 -8.5t-41.5 -20t-28.5 -22
t-15 -14.5l-58 58q2 3 15 17.5t38 31t62 29.5t88 13q54 0 91.5 -13.5t63.5 -39.5q35 -36 42.5 -80t7.5 -103v-254h-91zM284 222q-22 0 -47.5 -1.5t-47 -9.5t-36 -24.5t-14.5 -46.5q0 -38 26 -55t61 -17q37 0 62 11.5t41 25.5q23 22 29 49t7 56v12h-81zM265 547h-84l88 131
h115z" />
    <glyph glyph-name="acircumflex" unicode="&#xe2;" horiz-adv-x="519" 
d="M371 0l-3 60q-2 -2 -11.5 -13.5t-29 -24.5t-49 -23.5t-70.5 -10.5q-33 0 -64 9t-54 27.5t-37 47t-14 67.5q0 35 11 59.5t28 41.5q18 18 39 29t43 17t43.5 8t41.5 2h120v2q0 22 -4.5 40.5t-17.5 33.5q-14 17 -37.5 25.5t-54.5 8.5q-30 0 -54 -8.5t-41.5 -20t-28.5 -22
t-15 -14.5l-58 58q2 3 15 17.5t38 31t62 29.5t88 13q54 0 91.5 -13.5t63.5 -39.5q35 -36 42.5 -80t7.5 -103v-254h-91zM284 222q-22 0 -47.5 -1.5t-47 -9.5t-36 -24.5t-14.5 -46.5q0 -38 26 -55t61 -17q37 0 62 11.5t41 25.5q23 22 29 49t7 56v12h-81zM331 547l-72 81
l-72 -81h-83l89 131h132l89 -131h-83z" />
    <glyph glyph-name="atilde" unicode="&#xe3;" horiz-adv-x="519" 
d="M371 0l-3 60q-2 -2 -11.5 -13.5t-29 -24.5t-49 -23.5t-70.5 -10.5q-33 0 -64 9t-54 27.5t-37 47t-14 67.5q0 35 11 59.5t28 41.5q18 18 39 29t43 17t43.5 8t41.5 2h120v2q0 22 -4.5 40.5t-17.5 33.5q-14 17 -37.5 25.5t-54.5 8.5q-30 0 -54 -8.5t-41.5 -20t-28.5 -22
t-15 -14.5l-58 58q2 3 15 17.5t38 31t62 29.5t88 13q54 0 91.5 -13.5t63.5 -39.5q35 -36 42.5 -80t7.5 -103v-254h-91zM284 222q-22 0 -47.5 -1.5t-47 -9.5t-36 -24.5t-14.5 -46.5q0 -38 26 -55t61 -17q37 0 62 11.5t41 25.5q23 22 29 49t7 56v12h-81zM413 667q0 -23 -5 -43
t-16 -35.5t-29.5 -24.5t-45.5 -9q-16 0 -31.5 6t-29.5 13.5t-27.5 13.5t-26.5 6q-19 0 -27 -12t-8 -24h-63q0 18 4.5 38t15.5 36.5t29.5 27t47.5 10.5q18 0 33.5 -6t29.5 -13t27 -13t25 -6q15 0 25 9t10 26h62z" />
    <glyph glyph-name="adieresis" unicode="&#xe4;" horiz-adv-x="519" 
d="M371 0l-3 60q-2 -2 -11.5 -13.5t-29 -24.5t-49 -23.5t-70.5 -10.5q-33 0 -64 9t-54 27.5t-37 47t-14 67.5q0 35 11 59.5t28 41.5q18 18 39 29t43 17t43.5 8t41.5 2h120v2q0 22 -4.5 40.5t-17.5 33.5q-14 17 -37.5 25.5t-54.5 8.5q-30 0 -54 -8.5t-41.5 -20t-28.5 -22
t-15 -14.5l-58 58q2 3 15 17.5t38 31t62 29.5t88 13q54 0 91.5 -13.5t63.5 -39.5q35 -36 42.5 -80t7.5 -103v-254h-91zM284 222q-22 0 -47.5 -1.5t-47 -9.5t-36 -24.5t-14.5 -46.5q0 -38 26 -55t61 -17q37 0 62 11.5t41 25.5q23 22 29 49t7 56v12h-81zM409 604
q0 -24 -16.5 -40.5t-40.5 -16.5t-41 16.5t-17 40.5t17 40.5t41 16.5t40.5 -16.5t16.5 -40.5zM224 604q0 -24 -16.5 -40.5t-40.5 -16.5t-41 16.5t-17 40.5t17 40.5t41 16.5t40.5 -16.5t16.5 -40.5z" />
    <glyph glyph-name="aring" unicode="&#xe5;" horiz-adv-x="519" 
d="M371 0l-3 60q-2 -2 -11.5 -13.5t-29 -24.5t-49 -23.5t-70.5 -10.5q-33 0 -64 9t-54 27.5t-37 47t-14 67.5q0 35 11 59.5t28 41.5q18 18 39 29t43 17t43.5 8t41.5 2h120v2q0 22 -4.5 40.5t-17.5 33.5q-14 17 -37.5 25.5t-54.5 8.5q-30 0 -54 -8.5t-41.5 -20t-28.5 -22
t-15 -14.5l-58 58q2 3 15 17.5t38 31t62 29.5t88 13q54 0 91.5 -13.5t63.5 -39.5q35 -36 42.5 -80t7.5 -103v-254h-91zM284 222q-22 0 -47.5 -1.5t-47 -9.5t-36 -24.5t-14.5 -46.5q0 -38 26 -55t61 -17q37 0 62 11.5t41 25.5q23 22 29 49t7 56v12h-81zM364 626
q0 -22 -8.5 -41t-22.5 -33t-33 -22t-41 -8t-41 8t-33.5 22t-22.5 33t-8 41t8 41t22.5 33t33.5 22t41 8t41 -8t33 -22t22.5 -33t8.5 -41zM307 626q0 20 -14 34.5t-34 14.5t-34 -14.5t-14 -34.5t14 -34.5t34 -14.5t34 14.5t14 34.5z" />
    <glyph glyph-name="ae" unicode="&#xe6;" horiz-adv-x="868" 
d="M729 289q0 17 -7 38t-22.5 40t-40 31.5t-59.5 12.5q-38 0 -63.5 -14t-42 -33.5t-23.5 -40.5t-7 -34h265zM277 217q-22 0 -46.5 -2t-44.5 -10t-33.5 -23.5t-13.5 -42.5q0 -38 26 -54.5t61 -16.5q37 0 62 11t41 26q25 23 30.5 51t5.5 61h-88zM365 298q0 22 -4.5 40.5
t-17.5 33.5q-14 17 -37.5 25.5t-54.5 8.5q-30 0 -54 -8.5t-41.5 -20t-28.5 -22t-15 -14.5l-58 58q2 3 15 17.5t38 31t62 29.5t88 13q62 0 103.5 -19.5t64.5 -55.5q31 35 75.5 55t101.5 20q16 0 35 -2t40 -8.5t41.5 -18t39.5 -30.5q45 -45 58 -101t13 -118h-367
q0 -26 8.5 -52t26 -46.5t44.5 -33t65 -12.5q33 0 59 8.5t45 19.5t30 22l16 16l59 -52q-7 -8 -22.5 -24t-41.5 -32t-62.5 -28t-85.5 -12q-70 0 -116.5 25t-76.5 68q-11 -14 -26.5 -30t-39 -30t-56 -23t-75.5 -9q-35 0 -66.5 9t-55.5 27.5t-38 47t-14 67.5q0 37 13 63t34 43
q19 15 41 24.5t45.5 15t46.5 7t43 1.5h103v6z" />
    <glyph glyph-name="ccedilla" unicode="&#xe7;" horiz-adv-x="525" 
d="M250 -11q-45 4 -84 23.5t-67 52t-44 76.5t-16 97q0 49 15.5 94.5t47 80.5t79 56t112.5 21q49 0 85 -12.5t60.5 -28.5t38.5 -31.5t19 -22.5l-64 -54q-6 7 -17.5 18.5t-28.5 21.5t-40 17.5t-52 7.5q-38 0 -66.5 -14t-47.5 -37.5t-28 -54t-9 -63.5q0 -32 9 -62t27.5 -53
t46.5 -36.5t66 -13.5q33 0 58 8.5t42.5 20t28 22t14.5 15.5l62 -53q-2 -3 -13.5 -17.5t-34 -31.5t-57 -31.5t-81.5 -17.5l-20 -30q2 1 7 1.5t7 0.5q50 0 71.5 -24t21.5 -56q0 -34 -28 -60t-79 -26q-20 0 -36 4t-27 9.5t-18 11.5t-10 9l33 41q2 -2 17 -11.5t38 -9.5
q22 0 32 10.5t10 23.5q0 14 -8.5 23t-27.5 9q-16 0 -24.5 -5t-12.5 -9l-45 29z" />
    <glyph glyph-name="egrave" unicode="&#xe8;" horiz-adv-x="549" 
d="M142 206q0 -24 9 -49t27 -44.5t45.5 -32t63.5 -12.5q33 0 59 8.5t45 19.5t30 22l16 16l59 -52q-7 -8 -22.5 -24t-41.5 -32t-62.5 -28t-85.5 -12q-60 0 -106 19.5t-76.5 53t-46.5 79t-16 98.5q0 52 16.5 98t47.5 80.5t76.5 55t103.5 20.5q16 0 35 -2t40 -8.5t41.5 -18
t39.5 -30.5q23 -23 37 -49.5t21.5 -55t10 -59t2.5 -61.5h-368zM410 283q0 17 -7 39.5t-22.5 42t-40 33t-59.5 13.5q-38 0 -63.5 -15t-42 -35.5t-23.5 -42t-7 -35.5h265zM156 678h115l88 -131h-84z" />
    <glyph glyph-name="eacute" unicode="&#xe9;" horiz-adv-x="549" 
d="M142 206q0 -24 9 -49t27 -44.5t45.5 -32t63.5 -12.5q33 0 59 8.5t45 19.5t30 22l16 16l59 -52q-7 -8 -22.5 -24t-41.5 -32t-62.5 -28t-85.5 -12q-60 0 -106 19.5t-76.5 53t-46.5 79t-16 98.5q0 52 16.5 98t47.5 80.5t76.5 55t103.5 20.5q16 0 35 -2t40 -8.5t41.5 -18
t39.5 -30.5q23 -23 37 -49.5t21.5 -55t10 -59t2.5 -61.5h-368zM410 283q0 17 -7 39.5t-22.5 42t-40 33t-59.5 13.5q-38 0 -63.5 -15t-42 -35.5t-23.5 -42t-7 -35.5h265zM275 547h-84l88 131h115z" />
    <glyph glyph-name="ecircumflex" unicode="&#xea;" horiz-adv-x="549" 
d="M142 206q0 -24 9 -49t27 -44.5t45.5 -32t63.5 -12.5q33 0 59 8.5t45 19.5t30 22l16 16l59 -52q-7 -8 -22.5 -24t-41.5 -32t-62.5 -28t-85.5 -12q-60 0 -106 19.5t-76.5 53t-46.5 79t-16 98.5q0 52 16.5 98t47.5 80.5t76.5 55t103.5 20.5q16 0 35 -2t40 -8.5t41.5 -18
t39.5 -30.5q23 -23 37 -49.5t21.5 -55t10 -59t2.5 -61.5h-368zM410 283q0 17 -7 39.5t-22.5 42t-40 33t-59.5 13.5q-38 0 -63.5 -15t-42 -35.5t-23.5 -42t-7 -35.5h265zM346 547l-72 81l-72 -81h-83l89 131h132l89 -131h-83z" />
    <glyph glyph-name="edieresis" unicode="&#xeb;" horiz-adv-x="549" 
d="M142 206q0 -24 9 -49t27 -44.5t45.5 -32t63.5 -12.5q33 0 59 8.5t45 19.5t30 22l16 16l59 -52q-7 -8 -22.5 -24t-41.5 -32t-62.5 -28t-85.5 -12q-60 0 -106 19.5t-76.5 53t-46.5 79t-16 98.5q0 52 16.5 98t47.5 80.5t76.5 55t103.5 20.5q16 0 35 -2t40 -8.5t41.5 -18
t39.5 -30.5q23 -23 37 -49.5t21.5 -55t10 -59t2.5 -61.5h-368zM410 283q0 17 -7 39.5t-22.5 42t-40 33t-59.5 13.5q-38 0 -63.5 -15t-42 -35.5t-23.5 -42t-7 -35.5h265zM427 604q0 -24 -16.5 -40.5t-40.5 -16.5t-41 16.5t-17 40.5t17 40.5t41 16.5t40.5 -16.5t16.5 -40.5z
M242 604q0 -24 -16.5 -40.5t-40.5 -16.5t-41 16.5t-17 40.5t17 40.5t41 16.5t40.5 -16.5t16.5 -40.5z" />
    <glyph glyph-name="igrave" unicode="&#xec;" horiz-adv-x="224" 
d="M63 0v475h100v-475h-100zM-1 678h115l88 -131h-84z" />
    <glyph glyph-name="iacute" unicode="&#xed;" horiz-adv-x="224" 
d="M63 0v475h100v-475h-100zM116 547h-84l88 131h115z" />
    <glyph glyph-name="icircumflex" unicode="&#xee;" horiz-adv-x="224" 
d="M63 0v475h100v-475h-100zM184 547l-72 81l-72 -81h-83l89 131h132l89 -131h-83z" />
    <glyph glyph-name="idieresis" unicode="&#xef;" horiz-adv-x="224" 
d="M63 0v475h100v-475h-100zM262 613q0 -24 -16.5 -40.5t-40.5 -16.5t-41 16.5t-17 40.5t17 40.5t41 16.5t40.5 -16.5t16.5 -40.5zM77 613q0 -24 -16.5 -40.5t-40.5 -16.5t-41 16.5t-17 40.5t17 40.5t41 16.5t40.5 -16.5t16.5 -40.5z" />
    <glyph glyph-name="eth" unicode="&#xf0;" horiz-adv-x="550" 
d="M511 243q0 -51 -14 -97.5t-43 -82t-74 -56.5t-106 -21q-57 0 -100.5 17.5t-73.5 48t-45.5 72.5t-15.5 91q0 54 19 96t50.5 70t72 42.5t82.5 14.5q22 0 39 -4t29.5 -9t20.5 -10t12 -8q-14 19 -26.5 35t-26.5 30.5t-29.5 28.5t-34.5 31l-69 -65l-55 51l67 65
q-18 16 -37 31.5t-37 31.5l65 64l40.5 -31.5t38.5 -30.5l64 61l54 -50l-62 -61q31 -30 65.5 -66t63.5 -80t47.5 -96t18.5 -113zM408 211q0 30 -9 55.5t-25.5 45t-41 30.5t-55.5 11q-62 0 -98 -36t-36 -102q0 -68 34 -106.5t97 -38.5q31 0 56 11t42.5 30.5t26.5 45t9 54.5z
" />
    <glyph glyph-name="ntilde" unicode="&#xf1;" horiz-adv-x="555" 
d="M398 0v266q0 35 -4.5 62.5t-24.5 45.5q-13 12 -32 19.5t-48 7.5q-20 0 -44 -8t-44 -27q-28 -29 -33 -68t-5 -86v-212h-100v475h95l2 -64q1 2 11.5 14.5t30 27t49 26t70.5 11.5q34 0 67 -10.5t62 -40.5q16 -16 25.5 -35t14.5 -39.5t6.5 -42t1.5 -41.5v-281h-100zM432 667
q0 -23 -5 -43t-16 -35.5t-29.5 -24.5t-45.5 -9q-16 0 -31.5 6t-29.5 13.5t-27.5 13.5t-26.5 6q-19 0 -27 -12t-8 -24h-63q0 18 4.5 38t15.5 36.5t29.5 27t47.5 10.5q18 0 33.5 -6t29.5 -13t27 -13t25 -6q15 0 25 9t10 26h62z" />
    <glyph glyph-name="ograve" unicode="&#xf2;" horiz-adv-x="589" 
d="M550 238q0 -46 -15 -91t-46.5 -81t-79.5 -58t-114 -22t-114.5 22t-80 58t-46.5 81t-15 91t15 91t46.5 81t80 58t114.5 22t114 -22t79.5 -58t46.5 -81t15 -91zM446 238q0 42 -12.5 74.5t-34.5 54.5q-39 39 -104 39q-66 0 -105 -39q-21 -22 -34 -54.5t-13 -74.5t13 -74
t34 -54q39 -39 105 -39q65 0 104 39q22 22 34.5 54t12.5 74zM176 678h115l88 -131h-84z" />
    <glyph glyph-name="oacute" unicode="&#xf3;" horiz-adv-x="589" 
d="M550 238q0 -46 -15 -91t-46.5 -81t-79.5 -58t-114 -22t-114.5 22t-80 58t-46.5 81t-15 91t15 91t46.5 81t80 58t114.5 22t114 -22t79.5 -58t46.5 -81t15 -91zM446 238q0 42 -12.5 74.5t-34.5 54.5q-39 39 -104 39q-66 0 -105 -39q-21 -22 -34 -54.5t-13 -74.5t13 -74
t34 -54q39 -39 105 -39q65 0 104 39q22 22 34.5 54t12.5 74zM295 547h-84l88 131h115z" />
    <glyph glyph-name="ocircumflex" unicode="&#xf4;" horiz-adv-x="589" 
d="M550 238q0 -46 -15 -91t-46.5 -81t-79.5 -58t-114 -22t-114.5 22t-80 58t-46.5 81t-15 91t15 91t46.5 81t80 58t114.5 22t114 -22t79.5 -58t46.5 -81t15 -91zM446 238q0 42 -12.5 74.5t-34.5 54.5q-39 39 -104 39q-66 0 -105 -39q-21 -22 -34 -54.5t-13 -74.5t13 -74
t34 -54q39 -39 105 -39q65 0 104 39q22 22 34.5 54t12.5 74zM366 547l-72 81l-72 -81h-83l89 131h132l89 -131h-83z" />
    <glyph glyph-name="otilde" unicode="&#xf5;" horiz-adv-x="589" 
d="M550 238q0 -46 -15 -91t-46.5 -81t-79.5 -58t-114 -22t-114.5 22t-80 58t-46.5 81t-15 91t15 91t46.5 81t80 58t114.5 22t114 -22t79.5 -58t46.5 -81t15 -91zM446 238q0 42 -12.5 74.5t-34.5 54.5q-39 39 -104 39q-66 0 -105 -39q-21 -22 -34 -54.5t-13 -74.5t13 -74
t34 -54q39 -39 105 -39q65 0 104 39q22 22 34.5 54t12.5 74zM449 667q0 -23 -5 -43t-16 -35.5t-29.5 -24.5t-45.5 -9q-16 0 -31.5 6t-29.5 13.5t-27.5 13.5t-26.5 6q-19 0 -27 -12t-8 -24h-63q0 18 4.5 38t15.5 36.5t29.5 27t47.5 10.5q18 0 33.5 -6t29.5 -13t27 -13t25 -6
q15 0 25 9t10 26h62z" />
    <glyph glyph-name="odieresis" unicode="&#xf6;" horiz-adv-x="589" 
d="M550 238q0 -46 -15 -91t-46.5 -81t-79.5 -58t-114 -22t-114.5 22t-80 58t-46.5 81t-15 91t15 91t46.5 81t80 58t114.5 22t114 -22t79.5 -58t46.5 -81t15 -91zM446 238q0 42 -12.5 74.5t-34.5 54.5q-39 39 -104 39q-66 0 -105 -39q-21 -22 -34 -54.5t-13 -74.5t13 -74
t34 -54q39 -39 105 -39q65 0 104 39q22 22 34.5 54t12.5 74zM444 604q0 -24 -16.5 -40.5t-40.5 -16.5t-41 16.5t-17 40.5t17 40.5t41 16.5t40.5 -16.5t16.5 -40.5zM259 604q0 -24 -16.5 -40.5t-40.5 -16.5t-41 16.5t-17 40.5t17 40.5t41 16.5t40.5 -16.5t16.5 -40.5z" />
    <glyph glyph-name="divide" unicode="&#xf7;" 
d="M43 208v88h515v-88h-515zM370 54q0 -28 -19.5 -47.5t-47.5 -19.5q-29 0 -47.5 19.5t-18.5 46.5q0 28 19 47.5t47 19.5q29 0 48 -19t19 -47zM370 448q0 -28 -19.5 -47.5t-47.5 -19.5q-29 0 -47.5 19.5t-18.5 46.5q0 28 19 47.5t47 19.5q29 0 48 -19t19 -47z" />
    <glyph glyph-name="oslash" unicode="&#xf8;" horiz-adv-x="593" 
d="M208 95q5 -4 27.5 -14t60.5 -10q65 0 104 39q22 22 34.5 54t12.5 74q0 35 -6.5 56.5t-8.5 23.5zM96 -16l-57 56l48 46q-3 4 -11 16.5t-16 32t-14 45.5t-6 58q0 46 15 91t46.5 81t80 58t114.5 22q31 0 56.5 -5t44.5 -12t32 -14.5t20 -12.5l47 46l58 -56l-49 -48
q5 -6 13 -19.5t15.5 -32.5t12.5 -44t5 -54q0 -46 -15 -91t-46.5 -81t-79.5 -58t-114 -22q-35 0 -62 6t-46 13.5t-30.5 14.5t-15.5 10zM385 380q-7 5 -29 15.5t-60 10.5q-66 0 -105 -39q-21 -22 -34 -54.5t-13 -74.5q0 -35 7 -56.5t9 -24.5z" />
    <glyph glyph-name="ugrave" unicode="&#xf9;" horiz-adv-x="552" 
d="M397 0l-2 64q-1 -2 -10.5 -14t-28.5 -26.5t-48.5 -26t-70.5 -11.5q-44 0 -75.5 12t-53.5 34q-32 32 -41.5 71t-9.5 89v283h100v-271q0 -32 4 -57t23 -43q14 -14 33.5 -21.5t47.5 -7.5q20 0 43.5 8t42.5 27q21 20 28 46t9 58q1 14 1 27.5v28.5v205h100v-475h-92zM155 678
h115l88 -131h-84z" />
    <glyph glyph-name="uacute" unicode="&#xfa;" horiz-adv-x="552" 
d="M397 0l-2 64q-1 -2 -10.5 -14t-28.5 -26.5t-48.5 -26t-70.5 -11.5q-44 0 -75.5 12t-53.5 34q-32 32 -41.5 71t-9.5 89v283h100v-271q0 -32 4 -57t23 -43q14 -14 33.5 -21.5t47.5 -7.5q20 0 43.5 8t42.5 27q21 20 28 46t9 58q1 14 1 27.5v28.5v205h100v-475h-92zM274 547
h-84l88 131h115z" />
    <glyph glyph-name="ucircumflex" unicode="&#xfb;" horiz-adv-x="552" 
d="M397 0l-2 64q-1 -2 -10.5 -14t-28.5 -26.5t-48.5 -26t-70.5 -11.5q-44 0 -75.5 12t-53.5 34q-32 32 -41.5 71t-9.5 89v283h100v-271q0 -32 4 -57t23 -43q14 -14 33.5 -21.5t47.5 -7.5q20 0 43.5 8t42.5 27q21 20 28 46t9 58q1 14 1 27.5v28.5v205h100v-475h-92zM345 547
l-72 81l-72 -81h-83l89 131h132l89 -131h-83z" />
    <glyph glyph-name="udieresis" unicode="&#xfc;" horiz-adv-x="552" 
d="M397 0l-2 64q-1 -2 -10.5 -14t-28.5 -26.5t-48.5 -26t-70.5 -11.5q-44 0 -75.5 12t-53.5 34q-32 32 -41.5 71t-9.5 89v283h100v-271q0 -32 4 -57t23 -43q14 -14 33.5 -21.5t47.5 -7.5q20 0 43.5 8t42.5 27q21 20 28 46t9 58q1 14 1 27.5v28.5v205h100v-475h-92zM423 604
q0 -24 -16.5 -40.5t-40.5 -16.5t-41 16.5t-17 40.5t17 40.5t41 16.5t40.5 -16.5t16.5 -40.5zM238 604q0 -24 -16.5 -40.5t-40.5 -16.5t-41 16.5t-17 40.5t17 40.5t41 16.5t40.5 -16.5t16.5 -40.5z" />
    <glyph glyph-name="yacute" unicode="&#xfd;" horiz-adv-x="514" 
d="M275 -82q-9 -21 -22 -42.5t-32 -38t-46 -27t-63 -10.5q-31 0 -52 6.5t-29 11.5l28 76q5 -2 16.5 -5.5t26.5 -3.5q34 0 52.5 17.5t31.5 46.5l23 52l-206 474h107l149 -360l148 360h104zM275 547h-84l88 131h115z" />
    <glyph glyph-name="thorn" unicode="&#xfe;" 
d="M458 235q0 43 -11.5 75t-31 53t-46 31.5t-57.5 10.5q-29 0 -56.5 -11t-48.5 -32t-33.5 -52.5t-12.5 -73.5q0 -40 12 -71t32.5 -52t47.5 -31.5t57 -10.5q31 0 58.5 11.5t47 33t31 51.5t11.5 68zM562 237q0 -48 -15.5 -93.5t-46 -80.5t-75.5 -56t-103 -21q-41 0 -69.5 9.5
t-47.5 21.5t-29 23.5t-13 15.5v-242h-100v864h100v-267q2 3 13.5 15.5t32.5 27t52.5 25.5t74.5 11q37 0 77 -13t73 -42.5t54.5 -78t21.5 -119.5z" />
    <glyph glyph-name="ydieresis" unicode="&#xff;" horiz-adv-x="514" 
d="M275 -82q-9 -21 -22 -42.5t-32 -38t-46 -27t-63 -10.5q-31 0 -52 6.5t-29 11.5l28 76q5 -2 16.5 -5.5t26.5 -3.5q34 0 52.5 17.5t31.5 46.5l23 52l-206 474h107l149 -360l148 360h104zM407 604q0 -24 -16.5 -40.5t-40.5 -16.5t-41 16.5t-17 40.5t17 40.5t41 16.5
t40.5 -16.5t16.5 -40.5zM222 604q0 -24 -16.5 -40.5t-40.5 -16.5t-41 16.5t-17 40.5t17 40.5t41 16.5t40.5 -16.5t16.5 -40.5z" />
    <glyph glyph-name="Idotaccent" unicode="&#x130;" horiz-adv-x="255" 
d="M75 0v678h105v-678h-105zM185 825q0 -24 -16.5 -40.5t-40.5 -16.5t-41 16.5t-17 40.5t17 40.5t41 16.5t40.5 -16.5t16.5 -40.5z" />
    <glyph glyph-name="dotlessi" unicode="&#x131;" horiz-adv-x="224" 
d="M62 0v475h100v-475h-100z" />
    <glyph glyph-name="Lslash" unicode="&#x141;" horiz-adv-x="583" 
d="M107 0v245l-51 -49l-59 61l110 103v318h105v-236l96 90l59 -62l-155 -147v-232h362v-91h-467z" />
    <glyph glyph-name="lslash" unicode="&#x142;" horiz-adv-x="318" 
d="M209 322v-322h-100v246l-52 -50l-59 61l111 104v317h100v-240l53 50l59 -61z" />
    <glyph glyph-name="OE" unicode="&#x152;" horiz-adv-x="1136" 
d="M629 0v91q-15 -20 -36.5 -39t-51 -34t-67.5 -24.5t-86 -9.5q-87 0 -151.5 31t-107.5 81t-64 114t-21 129t21 128.5t64 114t107.5 81.5t151.5 31q53 0 93.5 -11.5t69.5 -28t48 -35t30 -32.5v91h449v-90h-350v-200h325v-88h-323v-209h361v-91h-462zM625 339q0 51 -14.5 99
t-44 84.5t-73.5 59t-104 22.5t-104 -22.5t-73.5 -59t-44 -84.5t-14.5 -99t14.5 -99t44 -85t73.5 -59t104 -22t104 22t73.5 59t44 85t14.5 99z" />
    <glyph glyph-name="oe" unicode="&#x153;" horiz-adv-x="942" 
d="M435 238q0 33 -8.5 63t-26.5 53t-45.5 37t-64.5 14q-38 0 -65.5 -13.5t-45.5 -37t-27 -53.5t-9 -63q0 -35 9 -65t27.5 -53t46 -36t64.5 -13t64.5 13.5t45.5 36.5t26.5 53t8.5 64zM803 283q0 17 -7 39.5t-22.5 42t-40 33t-59.5 13.5q-38 0 -63.5 -15t-42 -35.5t-23.5 -42
t-7 -35.5h265zM677 -14q-67 0 -116 24t-78 67q-29 -41 -77 -66t-117 -25q-65 0 -112 22t-78 58t-45.5 81t-14.5 91t15 91t46 81t78.5 58t112.5 22q70 0 117 -26t76 -67q29 44 78.5 68.5t113.5 24.5q16 0 35 -2t40 -8.5t41.5 -18t39.5 -30.5q23 -23 37 -49.5t21.5 -55t10 -59
t2.5 -61.5h-368q0 -24 9 -49t27 -44.5t45.5 -32t63.5 -12.5q33 0 59 8.5t45 19.5t30 22l16 16l59 -52q-7 -8 -22.5 -24t-41.5 -32t-62.5 -28t-85.5 -12z" />
    <glyph glyph-name="Scaron" unicode="&#x160;" horiz-adv-x="647" 
d="M590 189q0 -48 -20 -86t-56 -64.5t-87 -40.5t-114 -14q-72 0 -123.5 17t-85 38.5t-50.5 41.5t-21 25l67 65q5 -5 19.5 -21t40 -33t63 -30t89.5 -13q77 0 123 27.5t46 84.5q0 31 -18.5 49.5t-48.5 31t-68.5 20.5t-78.5 17t-78.5 22t-68.5 35t-48.5 55.5t-18.5 84.5
q0 38 17 73t50 61.5t80.5 42.5t109.5 16q72 0 122 -16.5t82 -37t48 -39.5t21 -25l-67 -62q-3 4 -17 18.5t-39 31t-62 29.5t-87 13q-69 0 -109.5 -25.5t-40.5 -75.5q0 -32 18.5 -51t48.5 -31t68.5 -19.5t79 -16.5t79 -21.5t68.5 -34.5t48.5 -56t18.5 -86zM242 880l72 -81
l72 81h83l-89 -131h-132l-89 131h83z" />
    <glyph glyph-name="scaron" unicode="&#x161;" horiz-adv-x="489" 
d="M450 135q0 -32 -14.5 -59t-42 -47t-67 -31.5t-90.5 -11.5q-54 0 -92.5 12t-63.5 26.5t-38 27.5t-15 16l54 61q2 -3 13.5 -13t31 -21t48 -20t64.5 -9q50 0 81 17t31 48q0 28 -23 41t-58 20t-75 12.5t-75 19.5t-58 41.5t-23 78.5q0 30 14 56.5t39.5 46.5t62.5 31.5t83 11.5
q53 0 90 -11t60.5 -25.5t36 -28.5t16.5 -19l-57 -54q-6 6 -17 16t-28 19t-41 16t-57 7q-41 0 -71.5 -16t-30.5 -47q0 -28 23 -40t58 -18t75 -11.5t75 -20t58 -42.5t23 -80zM172 678l72 -81l72 81h83l-89 -131h-132l-89 131h83z" />
    <glyph glyph-name="Ydieresis" unicode="&#x178;" horiz-adv-x="621" 
d="M362 291v-291h-105v291l-248 387h121l183 -293l182 293h117zM463 807q0 -24 -16.5 -40.5t-40.5 -16.5t-41 16.5t-17 40.5t17 40.5t41 16.5t40.5 -16.5t16.5 -40.5zM278 807q0 -24 -16.5 -40.5t-40.5 -16.5t-41 16.5t-17 40.5t17 40.5t41 16.5t40.5 -16.5t16.5 -40.5z" />
    <glyph glyph-name="Zcaron" unicode="&#x17d;" horiz-adv-x="636" 
d="M45 0v89l403 499h-390v90h520v-88l-403 -499h416v-91h-546zM246 880l72 -81l72 81h83l-89 -131h-132l-89 131h83z" />
    <glyph glyph-name="zcaron" unicode="&#x17e;" horiz-adv-x="484" 
d="M33 0v82l283 310h-273v83h398v-81l-281 -309h291v-85h-418zM171 678l72 -81l72 81h83l-89 -131h-132l-89 131h83z" />
    <glyph glyph-name="florin" unicode="&#x192;" 
d="M566 590q-14 5 -31 10t-38 5q-26 0 -42.5 -11.5t-26.5 -28t-14.5 -35.5t-7.5 -34l-10 -46h149v-83h-166l-84 -392q-9 -44 -24 -79t-45 -59q-23 -18 -52 -27.5t-61 -9.5q-29 0 -58 7.5t-51 18.5l31 76q14 -5 31 -10t38 -5q32 0 54 19q18 14 25 37t13 53l80 371h-99v83h116
l14 67q10 44 24.5 79t43.5 58q48 39 113 39q29 0 58 -8t51 -19z" />
    <glyph glyph-name="circumflex" unicode="&#x2c6;" horiz-adv-x="346" 
d="M245 547l-72 81l-72 -81h-83l89 131h132l89 -131h-83z" />
    <glyph glyph-name="caron" unicode="&#x2c7;" horiz-adv-x="346" 
d="M101 678l72 -81l72 81h83l-89 -131h-132l-89 131h83z" />
    <glyph glyph-name="breve" unicode="&#x2d8;" horiz-adv-x="346" 
d="M323 678q0 -63 -42 -99t-108 -36t-108 36t-42 99h70q2 -31 23.5 -49.5t56.5 -18.5q34 0 55.5 18t23.5 50h71z" />
    <glyph glyph-name="dotaccent" unicode="&#x2d9;" horiz-adv-x="346" 
d="M230 622q0 -24 -16.5 -40.5t-40.5 -16.5t-41 16.5t-17 40.5t17 40.5t41 16.5t40.5 -16.5t16.5 -40.5z" />
    <glyph glyph-name="ring" unicode="&#x2da;" horiz-adv-x="346" 
d="M278 626q0 -22 -8.5 -41t-22.5 -33t-33 -22t-41 -8t-41 8t-33.5 22t-22.5 33t-8 41t8 41t22.5 33t33.5 22t41 8t41 -8t33 -22t22.5 -33t8.5 -41zM221 626q0 20 -14 34.5t-34 14.5t-34 -14.5t-14 -34.5t14 -34.5t34 -14.5t34 14.5t14 34.5z" />
    <glyph glyph-name="ogonek" unicode="&#x2db;" horiz-adv-x="352" 
d="M273 -164q-16 -15 -39.5 -25.5t-53.5 -10.5q-19 0 -37 5t-32.5 16.5t-23 29t-8.5 41.5q0 38 23 66t50 45h116q-10 -4 -28.5 -13t-36.5 -23t-31.5 -33t-13.5 -42q0 -14 10 -22.5t24 -8.5q16 0 27.5 6t17.5 11z" />
    <glyph glyph-name="tilde" unicode="&#x2dc;" horiz-adv-x="346" 
d="M328 667q0 -23 -5 -43t-16 -35.5t-29.5 -24.5t-45.5 -9q-16 0 -31.5 6t-29.5 13.5t-27.5 13.5t-26.5 6q-19 0 -27 -12t-8 -24h-63q0 18 4.5 38t15.5 36.5t29.5 27t47.5 10.5q18 0 33.5 -6t29.5 -13t27 -13t25 -6q15 0 25 9t10 26h62z" />
    <glyph glyph-name="hungarumlaut" unicode="&#x2dd;" horiz-adv-x="346" 
d="M73 547h-81l88 131h113zM234 547h-81l88 131h113z" />
    <glyph glyph-name="Omega" unicode="&#x3a9;" horiz-adv-x="781" 
d="M451 0v85q28 9 58.5 30t56 53.5t42.5 77t17 101.5q0 51 -14.5 98t-43.5 82t-73 56t-103 21t-103.5 -21t-73.5 -56t-43.5 -81.5t-14.5 -98.5q0 -57 16.5 -101.5t42 -77t56.5 -53.5t59 -30v-85h-286v91h137q-11 7 -33.5 25.5t-45 50t-39 77.5t-16.5 108q0 65 21 126.5
t63 109.5t106.5 77t151.5 29t151.5 -29t107.5 -76.5t64.5 -109t21.5 -126.5q0 -62 -17 -108t-39.5 -78.5t-45.5 -51t-34 -24.5h139v-91h-286z" />
    <glyph glyph-name="pi" unicode="&#x3c0;" 
d="M567 392h-74v-240q0 -18 2 -31t12 -23q9 -8 25 -11t33 -3v-84h-24q-29 0 -59 4.5t-55 29.5t-29 53.5t-4 53.5v251h-186v-392h-100v392h-74v83h533v-83z" />
    <glyph glyph-name="figuredash" unicode="&#x2012;" 
d="M43 208v88h515v-88h-515z" />
    <glyph glyph-name="endash" unicode="&#x2013;" horiz-adv-x="605" 
d="M45 208v88h515v-88h-515z" />
    <glyph glyph-name="emdash" unicode="&#x2014;" horiz-adv-x="958" 
d="M69 208v88h820v-88h-820z" />
    <glyph glyph-name="quoteleft" unicode="&#x2018;" horiz-adv-x="256" 
d="M144 678h67l-46 -237h-120z" />
    <glyph glyph-name="quoteright" unicode="&#x2019;" horiz-adv-x="256" 
d="M112 441h-67l46 237h120z" />
    <glyph glyph-name="quotesinglbase" unicode="&#x201a;" horiz-adv-x="244" 
d="M106 -123h-67l46 237h120z" />
    <glyph glyph-name="quotedblleft" unicode="&#x201c;" horiz-adv-x="412" 
d="M132 678h67l-46 -237h-120zM312 678h67l-46 -237h-120z" />
    <glyph glyph-name="quotedblright" unicode="&#x201d;" horiz-adv-x="412" 
d="M280 441h-67l46 237h120zM100 441h-67l46 237h120z" />
    <glyph glyph-name="quotedblbase" unicode="&#x201e;" horiz-adv-x="423" 
d="M106 -123h-67l46 237h120zM285 -123h-67l46 237h120z" />
    <glyph glyph-name="dagger" unicode="&#x2020;" 
d="M351 386v-502h-100v502h-209v89h209v203h100v-203h209v-89h-209z" />
    <glyph glyph-name="daggerdbl" unicode="&#x2021;" 
d="M351 141v-257h-100v257h-209v89h209v156h-209v89h209v203h100v-203h209v-89h-209v-156h209v-89h-209z" />
    <glyph glyph-name="bullet" unicode="&#x2022;" horiz-adv-x="350" 
d="M275 254q0 -21 -8 -39.5t-21.5 -32t-31.5 -21t-39 -7.5t-39.5 7.5t-32 21t-21 32t-7.5 39.5t7.5 39t21 31.5t32 21.5t39.5 8q42 0 71 -29t29 -71z" />
    <glyph glyph-name="ellipsis" unicode="&#x2026;" horiz-adv-x="895" 
d="M194 57q0 -28 -19.5 -47.5t-47.5 -19.5q-29 0 -47.5 19.5t-18.5 46.5q0 28 19 47.5t47 19.5q29 0 48 -19t19 -47zM514 57q0 -28 -19.5 -47.5t-47.5 -19.5q-29 0 -47.5 19.5t-18.5 46.5q0 28 19 47.5t47 19.5q29 0 48 -19t19 -47zM834 57q0 -28 -19.5 -47.5t-47.5 -19.5
q-29 0 -47.5 19.5t-18.5 46.5q0 28 19 47.5t47 19.5q29 0 48 -19t19 -47z" />
    <glyph glyph-name="perthousand" unicode="&#x2030;" horiz-adv-x="1255" 
d="M190 308q-37 0 -65 14t-46.5 39.5t-28 60.5t-9.5 76t9.5 76t28.5 60.5t47 39.5t65 14t65 -14t47 -39.5t28.5 -60.5t9.5 -76t-9.5 -76t-28.5 -60.5t-47.5 -39.5t-65.5 -14zM191 628q-24 0 -39 -12.5t-23 -32t-11 -42t-3 -43.5t3 -43.5t11 -41.5t22.5 -31.5t38.5 -12.5
t39 12.5t23 31.5t11 41.5t3 43.5t-2.5 43.5t-11 42t-23 32t-38.5 12.5zM265 -35l-64 37l401 694l64 -37zM682 -8q-37 0 -65 14t-46.5 39.5t-28 60.5t-9.5 76t9.5 76t28.5 60.5t47 39.5t65 14t65 -14t47 -39.5t28.5 -60.5t9.5 -76t-9.5 -76t-28.5 -60.5t-47.5 -39.5
t-65.5 -14zM683 312q-24 0 -39 -12.5t-23 -32t-11 -42t-3 -43.5t3 -43.5t11 -41.5t22.5 -31.5t38.5 -12.5t39 12.5t23 31.5t11 41.5t3 43.5t-2.5 43.5t-11 42t-23 32t-38.5 12.5zM1063 -8q-37 0 -65 14t-46.5 39.5t-28 60.5t-9.5 76t9.5 76t28.5 60.5t47 39.5t65 14t65 -14
t47 -39.5t28.5 -60.5t9.5 -76t-9.5 -76t-28.5 -60.5t-47.5 -39.5t-65.5 -14zM1064 312q-24 0 -39 -12.5t-23 -32t-11 -42t-3 -43.5t3 -43.5t11 -41.5t22.5 -31.5t38.5 -12.5t39 12.5t23 31.5t11 41.5t3 43.5t-2.5 43.5t-11 42t-23 32t-38.5 12.5z" />
    <glyph glyph-name="guilsinglleft" unicode="&#x2039;" horiz-adv-x="298" 
d="M183 47l-150 206l150 206l58 -40l-107 -166l107 -165z" />
    <glyph glyph-name="guilsinglright" unicode="&#x203a;" horiz-adv-x="298" 
d="M57 88l107 165l-107 166l58 40l150 -206l-150 -206z" />
    <glyph glyph-name="fraction" unicode="&#x2044;" horiz-adv-x="123" 
d="M-107 -35l-64 37l401 694l64 -37z" />
    <glyph glyph-name="uni2070" unicode="&#x2070;" horiz-adv-x="382" 
d="M190 308q-37 0 -65 14t-46.5 39.5t-28 60.5t-9.5 76t9.5 76t28.5 60.5t47 39.5t65 14t65 -14t47 -39.5t28.5 -60.5t9.5 -76t-9.5 -76t-28.5 -60.5t-47.5 -39.5t-65.5 -14zM191 628q-24 0 -39 -12.5t-23 -32t-11 -42t-3 -43.5t3 -43.5t11 -41.5t22.5 -31.5t38.5 -12.5
t39 12.5t23 31.5t11 41.5t3 43.5t-2.5 43.5t-11 42t-23 32t-38.5 12.5z" />
    <glyph glyph-name="uni2074" unicode="&#x2074;" horiz-adv-x="386" 
d="M277 393v-79h-69v79h-167v50l169 235h67v-229h58v-56h-58zM208 581l-95 -132h95v132z" />
    <glyph glyph-name="uni2075" unicode="&#x2075;" horiz-adv-x="385" 
d="M173 306q-32 0 -55 7.5t-39 17t-25 19t-13 14.5l44 43q19 -20 39 -31t48 -11q35 0 55 17.5t20 52.5q0 32 -19.5 46.5t-45.5 14.5q-46 0 -71 -42l-56 22l23 202h221v-60h-166l-10 -86q12 11 31.5 16.5t40.5 5.5q54 0 90 -30.5t36 -87.5q0 -60 -40.5 -95t-107.5 -35z" />
    <glyph glyph-name="uni2076" unicode="&#x2076;" horiz-adv-x="373" 
d="M192 308q-44 0 -73 16.5t-46 43t-24.5 59.5t-7.5 65q0 27 5.5 61t22.5 64t48 50.5t82 20.5q42 0 75.5 -15.5t53.5 -46.5l-45 -37q-15 17 -34 29t-48 12q-25 0 -42 -11t-28 -29t-16 -39.5t-5 -42.5q4 8 11 17t18 16.5t27.5 12.5t39.5 5q55 0 90 -33t35 -88
q0 -28 -10 -51.5t-28.5 -41t-44 -27.5t-56.5 -10zM194 500q-33 0 -52 -20t-19 -48q0 -29 17.5 -48t51.5 -19q30 0 48.5 20t18.5 49q0 28 -17 47t-48 19z" />
    <glyph glyph-name="uni2077" unicode="&#x2077;" horiz-adv-x="403" 
d="M103 314l157 302h-201v62h280v-52l-156 -312h-80z" />
    <glyph glyph-name="uni2078" unicode="&#x2078;" horiz-adv-x="373" 
d="M186 308q-29 0 -55 7t-46 21.5t-32 35t-12 47.5q0 18 6 32.5t15 25t20 17.5t21 9q-20 6 -35.5 27t-15.5 52q0 26 11 46t29 33.5t42.5 20t51.5 6.5t51.5 -6.5t43 -20t29.5 -33.5t11 -46q0 -30 -15.5 -51t-35.5 -27q22 -6 41.5 -28t19.5 -57q0 -27 -11.5 -47.5t-31.5 -35
t-46.5 -21.5t-55.5 -7zM186 633q-26 0 -45 -14t-19 -39q0 -26 19 -38.5t45 -12.5q27 0 45.5 12.5t18.5 38.5q0 25 -18.5 39t-45.5 14zM186 476q-29 0 -50.5 -15t-21.5 -42q0 -25 21 -40t51 -15t51 14.5t21 40.5q0 27 -21.5 42t-50.5 15z" />
    <glyph glyph-name="uni2079" unicode="&#x2079;" horiz-adv-x="373" 
d="M180 688q43 0 72.5 -16.5t46.5 -43t24.5 -59.5t7.5 -65q0 -27 -5.5 -61t-22.5 -64t-48 -50.5t-82 -20.5q-42 0 -75.5 15.5t-53.5 46.5l45 37q15 -17 34 -29t48 -12q25 0 42 11t28 29t16 39.5t5 42.5q-4 -8 -11 -17t-18 -16.5t-27.5 -12.5t-39.5 -5q-55 0 -90 33t-35 88
q0 28 10 51.5t28.5 41t44 27.5t56.5 10zM178 496q33 0 52 20t19 48q0 29 -17.5 48t-51.5 19q-30 0 -48.5 -20t-18.5 -49q0 -28 17 -47t48 -19z" />
    <glyph glyph-name="uni207D" unicode="&#x207d;" horiz-adv-x="237" 
d="M199 227q-30 19 -58.5 45.5t-50.5 60.5t-35.5 75t-13.5 89q0 46 13.5 88t36 77t51 62t58.5 45l40 -48q-25 -19 -47.5 -42.5t-40 -51.5t-27.5 -60.5t-10 -68.5t10 -68.5t27.5 -60.5t40 -51.5t47.5 -42.5z" />
    <glyph glyph-name="uni207E" unicode="&#x207e;" horiz-adv-x="237" 
d="M38 227l-41 48q25 19 47.5 42.5t39.5 51.5t27.5 60.5t10.5 68.5t-10.5 68.5t-27.5 60.5t-39.5 51.5t-47.5 42.5l40 48q30 -18 58.5 -45t51 -62t36 -77t13.5 -88q0 -48 -13.5 -89t-35.5 -75t-50.5 -60.5t-58.5 -45.5z" />
    <glyph glyph-name="uni2080" unicode="&#x2080;" horiz-adv-x="382" 
d="M190 -8q-37 0 -65 14t-46.5 39.5t-28 60.5t-9.5 76t9.5 76t28.5 60.5t47 39.5t65 14t65 -14t47 -39.5t28.5 -60.5t9.5 -76t-9.5 -76t-28.5 -60.5t-47.5 -39.5t-65.5 -14zM191 312q-24 0 -39 -12.5t-23 -32t-11 -42t-3 -43.5t3 -43.5t11 -41.5t22.5 -31.5t38.5 -12.5
t39 12.5t23 31.5t11 41.5t3 43.5t-2.5 43.5t-11 42t-23 32t-38.5 12.5z" />
    <glyph glyph-name="uni2081" unicode="&#x2081;" horiz-adv-x="399" 
d="M78 61h98v224l-82 -48l-35 52l126 75h63v-303h98v-61h-268v61z" />
    <glyph glyph-name="uni2082" unicode="&#x2082;" horiz-adv-x="393" 
d="M322 260q0 -24 -8.5 -42.5t-22 -33t-31 -26t-34.5 -20.5q-13 -7 -28 -14.5t-28 -16.5t-22.5 -20t-12.5 -25h185v-62h-259v22q0 33 7 59.5t35 52.5q21 21 47 35.5t51 28.5q23 14 36 29t13 35q0 23 -16 38t-45 15q-30 0 -51.5 -14.5t-39.5 -36.5l-47 39q4 5 14.5 17
t27.5 24t41.5 21t56.5 9q55 0 93 -29.5t38 -84.5z" />
    <glyph glyph-name="uni2083" unicode="&#x2083;" horiz-adv-x="390" 
d="M327 108q0 -55 -39.5 -85.5t-102.5 -30.5q-51 0 -85.5 18.5t-54.5 47.5l48 41q6 -6 13.5 -14t18.5 -15q11 -6 25 -12t33 -6q33 0 51 14.5t18 38.5q0 19 -9 29.5t-22 15.5t-28 6t-28 1h-31v58h28q14 0 28.5 1t26.5 5.5t19.5 14t7.5 27.5q0 15 -12 32.5t-44 17.5
q-29 0 -49 -13t-39 -33l-46 40q12 14 21.5 22t20.5 16q16 11 39 19t54 8q55 0 91 -29t36 -76q0 -33 -16.5 -53t-34.5 -26q9 -3 20 -9t20.5 -15.5t15.5 -23.5t6 -32z" />
    <glyph glyph-name="uni2084" unicode="&#x2084;" horiz-adv-x="386" 
d="M277 79v-79h-69v79h-167v50l169 235h67v-229h58v-56h-58zM208 267l-95 -132h95v132z" />
    <glyph glyph-name="uni2085" unicode="&#x2085;" horiz-adv-x="385" 
d="M173 -8q-32 0 -55 7.5t-39 17t-25 19t-13 14.5l44 43q19 -20 39 -31t48 -11q35 0 55 17.5t20 52.5q0 32 -19.5 46.5t-45.5 14.5q-46 0 -71 -42l-56 22l23 202h221v-60h-166l-10 -86q12 11 31.5 16.5t40.5 5.5q54 0 90 -30.5t36 -87.5q0 -60 -40.5 -95t-107.5 -35z" />
    <glyph glyph-name="uni2086" unicode="&#x2086;" horiz-adv-x="373" 
d="M192 -8q-44 0 -73 16.5t-46 43t-24.5 59.5t-7.5 65q0 27 5.5 61t22.5 64t48 50.5t82 20.5q42 0 75.5 -15.5t53.5 -46.5l-45 -37q-15 17 -34 29t-48 12q-25 0 -42 -11t-28 -29t-16 -39.5t-5 -42.5q4 8 11 17t18 16.5t27.5 12.5t39.5 5q55 0 90 -33t35 -88q0 -28 -10 -51.5
t-28.5 -41t-44 -27.5t-56.5 -10zM194 184q-33 0 -52 -20t-19 -48q0 -29 17.5 -48t51.5 -19q30 0 48.5 20t18.5 49q0 28 -17 47t-48 19z" />
    <glyph glyph-name="uni2087" unicode="&#x2087;" horiz-adv-x="403" 
d="M103 0l157 302h-201v62h280v-52l-156 -312h-80z" />
    <glyph glyph-name="uni2088" unicode="&#x2088;" horiz-adv-x="373" 
d="M186 -8q-29 0 -55 7t-46 21.5t-32 35t-12 47.5q0 18 6 32.5t15 25t20 17.5t21 9q-20 6 -35.5 27t-15.5 52q0 26 11 46t29 33.5t42.5 20t51.5 6.5t51.5 -6.5t43 -20t29.5 -33.5t11 -46q0 -30 -15.5 -51t-35.5 -27q22 -6 41.5 -28t19.5 -57q0 -27 -11.5 -47.5t-31.5 -35
t-46.5 -21.5t-55.5 -7zM186 317q-26 0 -45 -14t-19 -39q0 -26 19 -38.5t45 -12.5q27 0 45.5 12.5t18.5 38.5q0 25 -18.5 39t-45.5 14zM186 160q-29 0 -50.5 -15t-21.5 -42q0 -25 21 -40t51 -15t51 14.5t21 40.5q0 27 -21.5 42t-50.5 15z" />
    <glyph glyph-name="uni2089" unicode="&#x2089;" horiz-adv-x="373" 
d="M180 372q43 0 72.5 -16.5t46.5 -43t24.5 -59.5t7.5 -65q0 -27 -5.5 -61t-22.5 -64t-48 -50.5t-82 -20.5q-42 0 -75.5 15.5t-53.5 46.5l45 37q15 -17 34 -29t48 -12q25 0 42 11t28 29t16 39.5t5 42.5q-4 -8 -11 -17t-18 -16.5t-27.5 -12.5t-39.5 -5q-55 0 -90 33t-35 88
q0 28 10 51.5t28.5 41t44 27.5t56.5 10zM178 180q33 0 52 20t19 48q0 29 -17.5 48t-51.5 19q-30 0 -48.5 -20t-18.5 -49q0 -28 17 -47t48 -19z" />
    <glyph glyph-name="uni208D" unicode="&#x208d;" horiz-adv-x="237" 
d="M199 -88q-30 19 -58.5 45.5t-50.5 60.5t-35.5 75t-13.5 89q0 46 13.5 88t36 77t51 62t58.5 45l40 -48q-25 -19 -47.5 -42.5t-40 -51.5t-27.5 -60.5t-10 -68.5t10 -68.5t27.5 -60.5t40 -51.5t47.5 -42.5z" />
    <glyph glyph-name="uni208E" unicode="&#x208e;" horiz-adv-x="237" 
d="M-3 -40q25 19 47.5 42.5t39.5 51.5t27.5 60.5t10.5 68.5t-10.5 68.5t-27.5 60.5t-39.5 51.5t-47.5 42.5l40 48q30 -18 58.5 -45t51 -62t36 -77t13.5 -88q0 -48 -13.5 -89t-35.5 -75t-50.5 -60.5t-58.5 -45.5z" />
    <glyph glyph-name="franc" unicode="&#x20a3;" horiz-adv-x="0" 
 />
    <glyph glyph-name="lira" unicode="&#x20a4;" horiz-adv-x="0" 
 />
    <glyph glyph-name="peseta" unicode="&#x20a7;" horiz-adv-x="0" 
 />
    <glyph glyph-name="Euro" unicode="&#x20ac;" 
d="M579 95q-8 -12 -24.5 -31t-42.5 -36.5t-64 -30.5t-89 -13t-89.5 14t-67.5 36t-48.5 49.5t-32 53.5t-18.5 48t-7 34h-83v82h77q-1 7 -1.5 15.5t-0.5 19.5q0 8 0.5 19t1.5 19h-77v83h85q4 34 20 75t46 77t77 60.5t114 24.5q51 0 88.5 -13t63.5 -31t41.5 -36.5t23.5 -30.5
l-68 -51q-6 7 -16.5 20t-27 25t-41.5 21t-60 9q-44 0 -73.5 -18t-47.5 -42.5t-26 -49.5t-11 -40h226v-83h-234q-1 -7 -1.5 -18.5t-0.5 -19.5q0 -11 0.5 -19.5t1.5 -15.5h234v-82h-228q1 -11 10 -35.5t28 -49.5t49.5 -44t75.5 -19q35 0 61 9t43.5 21.5t28 25t15.5 19.5z" />
    <glyph glyph-name="afii61352" unicode="&#x2116;" horiz-adv-x="1308" 
 />
    <glyph glyph-name="trademark" unicode="&#x2122;" horiz-adv-x="813" 
d="M686 298v261l-96 -261h-63l-95 261v-261h-72v380h96l103 -281l104 281h93v-380h-70zM198 611v-313h-77v313h-112v67h301v-67h-112z" />
    <glyph glyph-name="onethird" unicode="&#x2153;" horiz-adv-x="899" 
d="M78 375h98v224l-82 -48l-35 52l126 75h63v-303h98v-61h-268v61zM289 -35l-64 37l401 694l64 -37zM836 108q0 -55 -39.5 -85.5t-102.5 -30.5q-51 0 -85.5 18.5t-54.5 47.5l48 41q6 -6 13.5 -14t18.5 -15q11 -6 25 -12t33 -6q33 0 51 14.5t18 38.5q0 19 -9 29.5t-22 15.5
t-28 6t-28 1h-31v58h28q14 0 28.5 1t26.5 5.5t19.5 14t7.5 27.5q0 15 -12 32.5t-44 17.5q-29 0 -49 -13t-39 -33l-46 40q12 14 21.5 22t20.5 16q16 11 39 19t54 8q55 0 91 -29t36 -76q0 -33 -16.5 -53t-34.5 -26q9 -3 20 -9t20.5 -15.5t15.5 -23.5t6 -32z" />
    <glyph glyph-name="twothirds" unicode="&#x2154;" horiz-adv-x="892" 
d="M281 -35l-64 37l401 694l64 -37zM322 574q0 -24 -8.5 -42.5t-22 -33t-31 -26t-34.5 -20.5q-13 -7 -28 -14.5t-28 -16.5t-22.5 -20t-12.5 -25h185v-62h-259v22q0 33 7 59.5t35 52.5q21 21 47 35.5t51 28.5q23 14 36 29t13 35q0 23 -16 38t-45 15q-30 0 -51.5 -14.5
t-39.5 -36.5l-47 39q4 5 14.5 17t27.5 24t41.5 21t56.5 9q55 0 93 -29.5t38 -84.5zM829 108q0 -55 -39.5 -85.5t-102.5 -30.5q-51 0 -85.5 18.5t-54.5 47.5l48 41q6 -6 13.5 -14t18.5 -15q11 -6 25 -12t33 -6q33 0 51 14.5t18 38.5q0 19 -9 29.5t-22 15.5t-28 6t-28 1h-31
v58h28q14 0 28.5 1t26.5 5.5t19.5 14t7.5 27.5q0 15 -12 32.5t-44 17.5q-29 0 -49 -13t-39 -33l-46 40q12 14 21.5 22t20.5 16q16 11 39 19t54 8q55 0 91 -29t36 -76q0 -33 -16.5 -53t-34.5 -26q9 -3 20 -9t20.5 -15.5t15.5 -23.5t6 -32z" />
    <glyph glyph-name="oneeighth" unicode="&#x215b;" horiz-adv-x="881" 
d="M293 -35l-64 37l401 694l64 -37zM694 -8q-29 0 -55 7t-46 21.5t-32 35t-12 47.5q0 18 6 32.5t15 25t20 17.5t21 9q-20 6 -35.5 27t-15.5 52q0 26 11 46t29 33.5t42.5 20t51.5 6.5t51.5 -6.5t43 -20t29.5 -33.5t11 -46q0 -30 -15.5 -51t-35.5 -27q22 -6 41.5 -28t19.5 -57
q0 -27 -11.5 -47.5t-31.5 -35t-46.5 -21.5t-55.5 -7zM694 317q-26 0 -45 -14t-19 -39q0 -26 19 -38.5t45 -12.5q27 0 45.5 12.5t18.5 38.5q0 25 -18.5 39t-45.5 14zM694 160q-29 0 -50.5 -15t-21.5 -42q0 -25 21 -40t51 -15t51 14.5t21 40.5q0 27 -21.5 42t-50.5 15zM78 375
h98v224l-82 -48l-35 52l126 75h63v-303h98v-61h-268v61z" />
    <glyph glyph-name="threeeighths" unicode="&#x215c;" horiz-adv-x="861" 
d="M273 -35l-64 37l401 694l64 -37zM674 -8q-29 0 -55 7t-46 21.5t-32 35t-12 47.5q0 18 6 32.5t15 25t20 17.5t21 9q-20 6 -35.5 27t-15.5 52q0 26 11 46t29 33.5t42.5 20t51.5 6.5t51.5 -6.5t43 -20t29.5 -33.5t11 -46q0 -30 -15.5 -51t-35.5 -27q22 -6 41.5 -28t19.5 -57
q0 -27 -11.5 -47.5t-31.5 -35t-46.5 -21.5t-55.5 -7zM674 317q-26 0 -45 -14t-19 -39q0 -26 19 -38.5t45 -12.5q27 0 45.5 12.5t18.5 38.5q0 25 -18.5 39t-45.5 14zM674 160q-29 0 -50.5 -15t-21.5 -42q0 -25 21 -40t51 -15t51 14.5t21 40.5q0 27 -21.5 42t-50.5 15z
M327 424q0 -55 -39.5 -85.5t-102.5 -30.5q-51 0 -85.5 18.5t-54.5 47.5l48 41q6 -6 13.5 -14t18.5 -15q11 -6 25 -12t33 -6q33 0 51 14.5t18 38.5q0 19 -9 29.5t-22 15.5t-28 6t-28 1h-31v58h28q14 0 28.5 1t26.5 5.5t19.5 14t7.5 27.5q0 15 -12 32.5t-44 17.5
q-29 0 -49 -13t-39 -33l-46 40q12 14 21.5 22t20.5 16q16 11 39 19t54 8q55 0 91 -29t36 -76q0 -33 -16.5 -53t-34.5 -26q9 -3 20 -9t20.5 -15.5t15.5 -23.5t6 -32z" />
    <glyph glyph-name="fiveeighths" unicode="&#x215d;" horiz-adv-x="841" 
d="M253 -35l-64 37l401 694l64 -37zM654 -8q-29 0 -55 7t-46 21.5t-32 35t-12 47.5q0 18 6 32.5t15 25t20 17.5t21 9q-20 6 -35.5 27t-15.5 52q0 26 11 46t29 33.5t42.5 20t51.5 6.5t51.5 -6.5t43 -20t29.5 -33.5t11 -46q0 -30 -15.5 -51t-35.5 -27q22 -6 41.5 -28t19.5 -57
q0 -27 -11.5 -47.5t-31.5 -35t-46.5 -21.5t-55.5 -7zM654 317q-26 0 -45 -14t-19 -39q0 -26 19 -38.5t45 -12.5q27 0 45.5 12.5t18.5 38.5q0 25 -18.5 39t-45.5 14zM654 160q-29 0 -50.5 -15t-21.5 -42q0 -25 21 -40t51 -15t51 14.5t21 40.5q0 27 -21.5 42t-50.5 15z
M173 306q-32 0 -55 7.5t-39 17t-25 19t-13 14.5l44 43q19 -20 39 -31t48 -11q35 0 55 17.5t20 52.5q0 32 -19.5 46.5t-45.5 14.5q-46 0 -71 -42l-56 22l23 202h221v-60h-166l-10 -86q12 11 31.5 16.5t40.5 5.5q54 0 90 -30.5t36 -87.5q0 -60 -40.5 -95t-107.5 -35z" />
    <glyph glyph-name="seveneighths" unicode="&#x215e;" horiz-adv-x="808" 
d="M220 -35l-64 37l401 694l64 -37zM621 -8q-29 0 -55 7t-46 21.5t-32 35t-12 47.5q0 18 6 32.5t15 25t20 17.5t21 9q-20 6 -35.5 27t-15.5 52q0 26 11 46t29 33.5t42.5 20t51.5 6.5t51.5 -6.5t43 -20t29.5 -33.5t11 -46q0 -30 -15.5 -51t-35.5 -27q22 -6 41.5 -28t19.5 -57
q0 -27 -11.5 -47.5t-31.5 -35t-46.5 -21.5t-55.5 -7zM621 317q-26 0 -45 -14t-19 -39q0 -26 19 -38.5t45 -12.5q27 0 45.5 12.5t18.5 38.5q0 25 -18.5 39t-45.5 14zM621 160q-29 0 -50.5 -15t-21.5 -42q0 -25 21 -40t51 -15t51 14.5t21 40.5q0 27 -21.5 42t-50.5 15z
M103 314l157 302h-201v62h280v-52l-156 -312h-80z" />
    <glyph glyph-name="partialdiff" unicode="&#x2202;" 
d="M53 223q0 49 16 89t44.5 69t68.5 45t89 16q47 0 81 -13.5t56.5 -31t35 -33.5t15.5 -22v15q0 42 -9 86t-30 80.5t-56 60t-87 23.5q-35 0 -61.5 -10t-44.5 -23t-28.5 -24.5t-13.5 -15.5l-66 55q3 4 15.5 21t38 35.5t66 33.5t98.5 15t101 -17.5t73.5 -47t50 -67t31 -78.5
t15.5 -82t4 -76q0 -62 -12.5 -123t-42.5 -109.5t-80 -78.5t-125 -30q-55 0 -100 18t-76.5 50t-49 75.5t-17.5 94.5zM436 209q0 31 -10.5 57.5t-29.5 46t-46 31t-61 11.5q-63 0 -98.5 -40t-35.5 -101q0 -31 9.5 -57.5t27.5 -46t43.5 -31t57.5 -11.5q68 0 105.5 40t37.5 101z
" />
    <glyph glyph-name="uni2206" unicode="&#x2206;" 
d="M-12 0l260 678h102l263 -678h-625zM299 552l-171 -459h343z" />
    <glyph glyph-name="product" unicode="&#x220f;" horiz-adv-x="683" 
d="M587 588v-588h-105v588h-281v-588h-105v588h-75v90h641v-90h-75z" />
    <glyph glyph-name="summation" unicode="&#x2211;" horiz-adv-x="620" 
d="M45 0v91l264 256l-250 240v91h515v-90h-374l250 -241l-265 -256h402v-91h-542z" />
    <glyph glyph-name="minus" unicode="&#x2212;" 
d="M43 208v88h515v-88h-515z" />
    <glyph glyph-name="radical" unicode="&#x221a;" 
d="M363 0h-95l-124 303h-93v88h150l110 -281l177 584l85 -29z" />
    <glyph glyph-name="infinity" unicode="&#x221e;" horiz-adv-x="734" 
d="M677 341q0 -32 -10 -63.5t-29.5 -56t-48 -39.5t-66.5 -15q-34 0 -59.5 13t-44 30t-30 35t-17.5 28q-6 -11 -18 -28.5t-30.5 -35t-45 -30t-61.5 -12.5q-39 0 -68.5 14t-50 37.5t-31 54.5t-10.5 66q0 33 10.5 64t30.5 55t49.5 38.5t67.5 14.5q29 0 51.5 -10t41.5 -24
q22 -16 37 -34.5t24 -31.5q6 10 17.5 27t29.5 33.5t44 28.5t61 12q37 0 66.5 -14.5t49 -38.5t30 -54.5t10.5 -63.5zM601 342q0 38 -22 65.5t-64 27.5q-23 0 -41.5 -12t-32.5 -30q-13 -16 -20.5 -29t-11.5 -21q5 -9 14.5 -26t23 -34t31 -29.5t38.5 -12.5q22 0 38 8.5t26.5 23
t15.5 32.5t5 37zM331 345q-2 5 -12.5 19t-27.5 31q-17 18 -37 30t-41 12t-36 -9t-24.5 -23.5t-14 -32.5t-4.5 -36t5 -35.5t15.5 -31t26 -21.5t36.5 -8q22 0 40.5 12.5t35.5 32.5q15 18 24 34t14 26z" />
    <glyph glyph-name="integral" unicode="&#x222b;" 
d="M508 596q-4 2 -20.5 7t-42.5 5q-23 0 -40 -5.5t-31 -19.5q-17 -17 -20 -42t-3 -57v-476q0 -53 -10.5 -93t-45.5 -72q-26 -23 -59 -33t-71 -10t-64.5 7t-35.5 12l28 78q4 -2 20.5 -7t42.5 -5q47 0 71 24q17 17 20.5 42.5t3.5 59.5v474q0 53 10 93t45 72q26 23 59 33t71 10
t64.5 -7t35.5 -12z" />
    <glyph glyph-name="approxequal" unicode="&#x2248;" 
d="M558 374q-8 -12 -21 -28.5t-32 -31t-44.5 -25t-57.5 -10.5t-55.5 6.5t-46.5 14.5q-24 8 -46.5 16t-48.5 8q-49 0 -92 -56l-70 51q30 47 69 71t81 24q35 0 60 -6.5t48 -15.5q23 -8 43.5 -15.5t43.5 -7.5q34 0 55.5 14.5t43.5 41.5zM558 185q-8 -12 -21 -28.5t-32 -31
t-44.5 -25t-57.5 -10.5t-55.5 6.5t-46.5 14.5q-24 8 -46.5 16t-48.5 8q-49 0 -92 -56l-70 51q30 47 69 71t81 24q35 0 60 -6.5t48 -15.5q23 -8 43.5 -15.5t43.5 -7.5q34 0 55.5 14.5t43.5 41.5z" />
    <glyph glyph-name="notequal" unicode="&#x2260;" 
d="M256 114l-87 -125l-69 46l55 79h-112v88h173l71 102h-244v88h304l89 127l68 -47l-55 -80h109v-88h-169l-72 -102h241v-88h-302z" />
    <glyph glyph-name="lessequal" unicode="&#x2264;" 
d="M43 0v88h515v-88h-515zM43 339v95l515 206v-97l-408 -157l408 -156v-97z" />
    <glyph glyph-name="greaterequal" unicode="&#x2265;" 
d="M43 0v88h515v-88h-515zM43 133v97l408 156l-408 157v97l515 -206v-95z" />
    <glyph glyph-name="lozenge" unicode="&#x25ca;" 
d="M351 0h-101l-233 339l234 339h100l233 -339zM301 598l-179 -259l179 -260l179 260z" />
    <glyph glyph-name="uniE000" unicode="&#xe000;" horiz-adv-x="735" 
d="M208 392v-392h-100v392h-105v83h105v27q0 40 9 76t40 67q28 28 62.5 38t70.5 10q25 0 45 -4.5t35 -10t24.5 -11t12.5 -7.5q-9 -18 -18 -35t-17 -35q-14 7 -31 13t-41 6q-40 0 -63 -21q-17 -15 -23 -38.5t-6 -52.5v-22h231v27q0 40 9 76t40 67q28 28 62.5 38t70.5 10
q25 0 45 -4.5t35 -10t24.5 -11t12.5 -7.5q-9 -18 -18 -35t-17 -35q-14 7 -31 13t-41 6q-40 0 -63 -21q-17 -15 -23 -38.5t-6 -52.5v-22h168v-83h-168v-392h-100v392h-231z" />
    <glyph glyph-name="uniE002" unicode="&#xe002;" 
d="M579 95q-8 -12 -24.5 -31t-42.5 -36.5t-64 -30.5t-89 -13t-89.5 14t-67.5 36t-48.5 49.5t-32 53.5t-18.5 48t-7 34h-83v82h77q-1 7 -1.5 15.5t-0.5 19.5q0 8 0.5 19t1.5 19h-77v83h85q4 34 20 75t46 77t77 60.5t114 24.5q51 0 88.5 -13t63.5 -31t41.5 -36.5t23.5 -30.5
l-68 -51q-6 7 -16.5 20t-27 25t-41.5 21t-60 9q-44 0 -73.5 -18t-47.5 -42.5t-26 -49.5t-11 -40h226v-83h-234q-1 -7 -1.5 -18.5t-0.5 -19.5q0 -11 0.5 -19.5t1.5 -15.5h234v-82h-228q1 -11 10 -35.5t28 -49.5t49.5 -44t75.5 -19q35 0 61 9t43.5 21.5t28 25t15.5 19.5z" />
    <glyph glyph-name="uniE003" unicode="&#xe003;" horiz-adv-x="932" 
d="M208 392v-392h-100v392h-105v83h105v27q0 40 9 76t40 67q28 28 62.5 38t70.5 10q25 0 45 -4.5t35 -10t24.5 -11t12.5 -7.5q-9 -18 -18 -35t-17 -35q-14 7 -31 13t-41 6q-21 0 -36.5 -5.5t-26.5 -15.5q-17 -15 -23 -38.5t-6 -52.5v-22h231v27q0 40 9 76t40 67
q28 28 62.5 38t70.5 10q25 0 45 -4.5t35 -10t24.5 -11t12.5 -7.5q-9 -18 -18 -35t-17 -35q-14 7 -31 13t-41 6q-21 0 -36.5 -5.5t-26.5 -15.5q-17 -15 -23 -38.5t-6 -52.5v-22h168v-83h-168v-392h-100v392h-231zM881 622q0 -26 -17 -43t-44 -17q-26 0 -43.5 17t-17.5 43
q0 25 17.5 42.5t43.5 17.5t43.5 -17.5t17.5 -42.5zM770 0v475h100v-475h-100z" />
    <glyph glyph-name="uniE004" unicode="&#xe004;" horiz-adv-x="933" 
d="M208 392v-392h-100v392h-105v83h105v27q0 40 9 76t40 67q28 28 62.5 38t70.5 10q25 0 45 -4.5t35 -10t24.5 -11t12.5 -7.5q-9 -18 -18 -35t-17 -35q-14 7 -31 13t-41 6q-21 0 -36.5 -5.5t-26.5 -15.5q-17 -15 -23 -38.5t-6 -52.5v-22h231v27q0 40 9 76t40 67
q28 28 62.5 38t70.5 10q25 0 45 -4.5t35 -10t24.5 -11t12.5 -7.5q-9 -18 -18 -35t-17 -35q-14 7 -31 13t-41 6q-21 0 -36.5 -5.5t-26.5 -15.5q-17 -15 -23 -38.5t-6 -52.5v-22h168v-83h-168v-392h-100v392h-231zM770 0v678h100v-678h-100z" />
    <glyph glyph-name="uniE005" unicode="&#xe005;" 
d="M407 660q-9 -18 -18 -35t-17 -35q-14 7 -31 13t-41 6q-21 0 -36.5 -5.5t-26.5 -15.5q-17 -15 -23 -38.5t-6 -52.5v-22h168v-83h-168v-392h-100v392h-105v83h105v27q0 40 9 76t40 67q28 28 62.5 38t70.5 10q25 0 45 -4.5t35 -10t24.5 -11t12.5 -7.5zM539 24
q0 -25 -1 -48.5t-5.5 -45t-13.5 -41.5t-26 -37q-23 -23 -55.5 -37.5t-79.5 -14.5q-49 0 -78 12.5t-40 20.5l40 71q7 -5 24 -12t46 -7q23 0 39.5 8t26.5 21q14 17 18.5 39t4.5 58v464h100v-452v1zM550 622q0 -26 -17 -43t-44 -17q-26 0 -43.5 17t-17.5 43q0 25 17.5 42.5
t43.5 17.5t43.5 -17.5t17.5 -42.5z" />
    <glyph glyph-name="uniE006" unicode="&#xe006;" horiz-adv-x="1148" 
d="M523 171q0 -44 -18 -78.5t-50.5 -58t-78 -36t-100.5 -12.5q-81 0 -145 27.5t-104 81.5l65 64q42 -45 85.5 -65.5t97.5 -20.5q68 0 104.5 25t36.5 70q0 34 -27.5 51.5t-69 28t-89.5 20.5t-89.5 29t-69 53.5t-27.5 94.5q0 35 15.5 67t45 56t72.5 38t97 14q34 0 68.5 -6
t66.5 -18.5t59.5 -33t47.5 -49.5l-65 -60q-11 14 -28 28.5t-40 26.5t-50.5 19.5t-58.5 7.5q-60 0 -92.5 -22.5t-32.5 -63.5q0 -36 27.5 -53t69.5 -27.5t90 -19.5t90 -27.5t69.5 -53.5t27.5 -97zM1097 171q0 -44 -18 -78.5t-50.5 -58t-78 -36t-100.5 -12.5q-81 0 -145 27.5
t-104 81.5l65 64q42 -45 85.5 -65.5t97.5 -20.5q68 0 104.5 25t36.5 70q0 34 -27.5 51.5t-69 28t-89.5 20.5t-89.5 29t-69 53.5t-27.5 94.5q0 35 15.5 67t45 56t72.5 38t97 14q34 0 68.5 -6t66.5 -18.5t59.5 -33t47.5 -49.5l-65 -60q-11 14 -28 28.5t-40 26.5t-50.5 19.5
t-58.5 7.5q-60 0 -92.5 -22.5t-32.5 -63.5q0 -36 27.5 -53t69.5 -27.5t90 -19.5t90 -27.5t69.5 -53.5t27.5 -97z" />
    <glyph glyph-name="uniE007" unicode="&#xe007;" horiz-adv-x="346" 
d="M46 880h115l88 -131h-84z" />
    <glyph glyph-name="uniE008" unicode="&#xe008;" horiz-adv-x="360" 
d="M195 749h-84l88 131h115z" />
    <glyph glyph-name="uniE009" unicode="&#xe009;" horiz-adv-x="346" 
d="M245 749l-72 81l-72 -81h-83l89 131h132l89 -131h-83z" />
    <glyph glyph-name="uniE00A" unicode="&#xe00a;" horiz-adv-x="346" 
d="M328 869q0 -23 -5 -43t-16 -35.5t-29.5 -24.5t-45.5 -9q-16 0 -31.5 6t-29.5 13.5t-27.5 13.5t-26.5 6q-19 0 -27 -12t-8 -24h-63q0 18 4.5 38t15.5 36.5t29.5 27t47.5 10.5q18 0 33.5 -6t29.5 -13t27 -13t25 -6q15 0 25 9t10 26h62z" />
    <glyph glyph-name="uniE00B" unicode="&#xe00b;" horiz-adv-x="346" 
d="M28 779v73h290v-73h-290z" />
    <glyph glyph-name="uniE00C" unicode="&#xe00c;" horiz-adv-x="346" 
d="M323 882q0 -63 -42 -99t-108 -36t-108 36t-42 99h70q2 -31 23.5 -49.5t56.5 -18.5q34 0 55.5 18t23.5 50h71z" />
    <glyph glyph-name="uniE00D" unicode="&#xe00d;" horiz-adv-x="346" 
d="M230 807q0 -24 -16.5 -40.5t-40.5 -16.5t-41 16.5t-17 40.5t17 40.5t41 16.5t40.5 -16.5t16.5 -40.5z" />
    <glyph glyph-name="uniE00E" unicode="&#xe00e;" horiz-adv-x="360" 
d="M330 807q0 -24 -16.5 -40.5t-40.5 -16.5t-41 16.5t-17 40.5t17 40.5t41 16.5t40.5 -16.5t16.5 -40.5zM145 807q0 -24 -16.5 -40.5t-40.5 -16.5t-41 16.5t-17 40.5t17 40.5t41 16.5t40.5 -16.5t16.5 -40.5z" />
    <glyph glyph-name="uniE00F" unicode="&#xe00f;" horiz-adv-x="346" 
d="M278 816q0 -22 -8.5 -41t-22.5 -33t-33 -22t-41 -8t-41 8t-33.5 22t-22.5 33t-8 41t8 41t22.5 33t33.5 22t41 8t41 -8t33 -22t22.5 -33t8.5 -41zM221 816q0 20 -14 34.5t-34 14.5t-34 -14.5t-14 -34.5t14 -34.5t34 -14.5t34 14.5t14 34.5z" />
    <glyph glyph-name="uniE010" unicode="&#xe010;" horiz-adv-x="343" 
d="M272 -121q0 -34 -28 -60t-79 -26q-20 0 -36 4t-27 9.5t-18 11.5t-10 9l33 41q2 -2 17 -11.5t38 -9.5q22 0 32 10.5t10 23.5q0 14 -8.5 23t-27.5 9q-16 0 -24.5 -5t-12.5 -9l-45 29l45 73h63l-29 -44q2 1 7 1.5t7 0.5q50 0 71.5 -24t21.5 -56z" />
    <glyph glyph-name="uniE011" unicode="&#xe011;" horiz-adv-x="346" 
d="M73 749h-81l88 131h113zM234 749h-81l88 131h113z" />
    <glyph glyph-name="uniE012" unicode="&#xe012;" horiz-adv-x="352" 
d="M273 -164q-16 -15 -39.5 -25.5t-53.5 -10.5q-19 0 -37 5t-32.5 16.5t-23 29t-8.5 41.5q0 38 23 66t50 45h116q-10 -4 -28.5 -13t-36.5 -23t-31.5 -33t-13.5 -42q0 -14 10 -22.5t24 -8.5q16 0 27.5 6t17.5 11z" />
    <glyph glyph-name="uniE013" unicode="&#xe013;" horiz-adv-x="346" 
d="M101 880l72 -81l72 81h83l-89 -131h-132l-89 131h83z" />
    <glyph glyph-name="uniE014" unicode="&#xe014;" horiz-adv-x="0" 
 />
    <glyph glyph-name="uniE015" unicode="&#xe015;" horiz-adv-x="0" 
 />
    <glyph glyph-name="uniE016" unicode="&#xe016;" horiz-adv-x="750" 
d="M208 392v-392h-100v392h-105v83h105v27q0 40 9 76t40 67q28 28 62.5 38t70.5 10q25 0 45 -4.5t35 -10t24.5 -11t12.5 -7.5q-9 -18 -18 -35t-17 -35q-14 7 -31 13t-41 6q-21 0 -36.5 -5.5t-26.5 -15.5q-17 -15 -23 -38.5t-6 -52.5v-22h231v151h100v-151h169v-83h-169v-211
q0 -21 3 -44t20 -40q14 -14 32 -19.5t42 -5.5t43.5 5t24.5 7l25 -75q-5 -2 -34 -12.5t-77 -10.5q-15 0 -32 1.5t-35 6.5t-35 13.5t-32 22.5q-14 13 -23 27.5t-14 31t-6.5 37t-1.5 46.5v220h-231z" />
    <glyph glyph-name="uniE017" unicode="&#xe017;" 
d="M400 379h149v-83h-198v-73h192v-82h-192v-141h-100v141h-190v82h190v73h-196v83h146l-176 299h113q31 -58 62 -113q26 -48 54.5 -98.5t49.5 -88.5l164 300h109z" />
    <glyph glyph-name="uniE018" unicode="&#xe018;" 
d="M566 590q-14 5 -31 10t-38 5q-26 0 -42.5 -11.5t-26.5 -28t-14.5 -35.5t-7.5 -34l-10 -46h149v-83h-166l-84 -392q-9 -44 -24 -79t-45 -59q-23 -18 -52 -27.5t-61 -9.5q-29 0 -58 7.5t-51 18.5l31 76q14 -5 31 -10t38 -5q32 0 54 19q18 14 25 37t13 53l80 371h-99v83h116
l14 67q10 44 24.5 79t43.5 58q48 39 113 39q29 0 58 -8t51 -19z" />
    <glyph glyph-name="uniE019" unicode="&#xe019;" horiz-adv-x="539" 
d="M487 71q-1 -2 -10.5 -15.5t-29.5 -30t-51 -31.5t-74 -19v-78h-75v78q-51 6 -87.5 27.5t-60.5 53t-35.5 71t-11.5 81.5t11.5 80.5t35.5 69.5t61 52.5t87 28.5v77h75v-76q57 -5 99.5 -32.5t64.5 -61.5l-65 -52q-21 26 -42.5 39t-56.5 20v-291q34 5 58 22t43 40zM247 351
q-48 -14 -71.5 -53.5t-23.5 -90.5q0 -52 23 -90.5t72 -52.5v287z" />
    <glyph glyph-name="uniE01A" unicode="&#xe01a;" horiz-adv-x="539" 
d="M436 465q-23 29 -55 49t-77 20q-25 0 -44.5 -9t-32.5 -23t-20 -32.5t-7 -36.5q0 -32 6 -53t13 -38h169v-81h-152q1 -5 2.5 -15t1.5 -20q0 -57 -18.5 -92t-37.5 -49h303v-85h-432v77q47 22 67.5 57t20.5 82q0 22 -5 45h-83v81h64q-7 19 -12.5 40t-5.5 48q0 41 15 75.5
t41 60t62.5 40t79.5 14.5q39 0 70.5 -9.5t56 -24t43 -32.5t31.5 -36z" />
    <glyph glyph-name="uniE01B" unicode="&#xe01b;" 
d="M566 590q-14 5 -31 10t-38 5q-26 0 -42.5 -11.5t-26.5 -28t-14.5 -35.5t-7.5 -34l-10 -46h149v-83h-166l-84 -392q-9 -44 -24 -79t-45 -59q-23 -18 -52 -27.5t-61 -9.5q-29 0 -58 7.5t-51 18.5l31 76q14 -5 31 -10t38 -5q32 0 54 19q18 14 25 37t13 53l80 371h-99v83h116
l14 67q10 44 24.5 79t43.5 58q48 39 113 39q29 0 58 -8t51 -19z" />
    <glyph glyph-name="uniE01C" unicode="&#xe01c;" horiz-adv-x="539" 
d="M365 342h126v-81h-173v-62h167v-80h-167v-119h-97v119h-166v80h166v62h-172v81h125l-155 264h110l143 -265l142 265h105z" />
    <glyph glyph-name="uniE01D" unicode="&#xe01d;" horiz-adv-x="539" 
d="M520 89q-32 -53 -83 -78t-115 -25q-65 0 -109 24.5t-71 58t-40 67.5t-16 54h-72v80h70q-1 6 -1.5 14t-0.5 16q0 5 0.5 14t1.5 16h-70v80h74q4 31 18 67.5t41.5 68t69.5 53t101 21.5q60 0 110.5 -24t85.5 -80q-16 -12 -32.5 -24t-32.5 -25q-23 33 -53 50.5t-75 17.5
q-36 0 -60 -14.5t-39.5 -34.5t-23.5 -41t-11 -35h199v-80h-206q-1 -7 -1.5 -16t-0.5 -14q0 -8 0.5 -16t1.5 -14h206v-80h-200q2 -12 10 -32t24.5 -39.5t42 -33.5t61.5 -14q85 0 130 68q17 -12 33 -24.5t33 -25.5z" />
    <glyph glyph-name="uniE01E" unicode="&#xe01e;" horiz-adv-x="539" 
d="M491 168q0 -37 -13.5 -68t-37.5 -54t-58 -38t-76 -19v-81h-77v81q-42 4 -74 18.5t-55 32t-37.5 34.5t-20.5 27l64 54q20 -28 51 -49.5t72 -29.5v184q-29 7 -59 18.5t-55.5 31.5t-41.5 51t-16 79q0 35 12.5 65.5t35 54.5t54.5 39t70 20v79h77v-79q45 -5 78 -20.5t55 -33
t33 -33t13 -19.5l-61 -55q-25 30 -54 49.5t-63 23.5v-188q31 -7 63.5 -17.5t59.5 -30t44 -50t17 -77.5zM229 533q-13 -3 -26.5 -9t-25 -17t-18.5 -27t-7 -39q0 -20 7 -33.5t18.5 -22.5t25 -14.5t26.5 -8.5v171zM396 164q0 19 -7.5 32.5t-20 22.5t-28.5 14.5t-33 10.5v-170
q15 2 30.5 7t28.5 15t21.5 26.5t8.5 41.5z" />
    <glyph glyph-name="uniE01F" unicode="&#xe01f;" 
d="M494 530q-4 4 -15 17t-30 26t-45 23.5t-60 10.5q-29 0 -52 -10.5t-39 -27.5t-24 -39t-8 -44q0 -35 5.5 -57t14.5 -50h199v-83h-181q1 -4 3 -17t2 -28q0 -34 -7 -60.5t-17 -46.5t-22 -34t-21 -22h350v-88h-484v80q53 25 77 65.5t24 94.5q0 22 -2.5 36.5t-4.5 19.5h-94v83
h74q-5 14 -12.5 43t-7.5 62q0 45 16.5 83.5t45.5 66.5t69.5 44t88.5 16q54 0 94 -15t67.5 -34.5t42.5 -37t19 -23.5z" />
    <glyph glyph-name="uniE020" unicode="&#xe020;" 
d="M551 185q0 -41 -15.5 -75t-43 -59.5t-66.5 -42t-86 -21.5v-91h-84v91q-56 6 -96 24.5t-65.5 39t-38 38t-14.5 21.5l69 54q2 -3 11.5 -15t27.5 -26t44 -27.5t62 -19.5v219q-33 8 -67.5 20.5t-63 34.5t-47 57t-18.5 88q0 38 14.5 72t40 60.5t61.5 43.5t80 22v89h84v-89
q52 -5 90 -23t63 -37.5t37 -36t13 -19.5l-67 -55q-4 4 -14 16t-27 25t-40.5 25t-54.5 17v-224q36 -8 73.5 -20t68 -34t50 -56t19.5 -86zM256 604q-18 -4 -35 -12t-30.5 -21.5t-21.5 -32.5t-8 -44q0 -27 11 -44.5t26.5 -28t31.5 -15.5t26 -8v206zM449 182q0 22 -9.5 38.5
t-24.5 28t-34.5 19t-40.5 12.5v-206q18 3 37.5 10t35.5 19.5t26 31.5t10 47z" />
    <glyph glyph-name="uniE021" unicode="&#xe021;" 
d="M543 87q0 -1 -10.5 -15.5t-33 -32.5t-57 -34.5t-82.5 -20.5v-88h-84v89q-56 6 -97.5 29.5t-68.5 59t-40.5 79.5t-13.5 91t13.5 90.5t41 78.5t69 58.5t96.5 30.5v87h84v-86q45 -4 78.5 -19t56 -32t34 -31.5t13.5 -17.5l-66 -53q-3 3 -10.5 12t-21.5 19.5t-34.5 20
t-49.5 14.5v-345q29 4 50 14.5t35 21.5t22 20.5t10 12.5zM276 414q-57 -13 -86.5 -61.5t-29.5 -109.5q0 -63 28 -109t88 -61v341z" />
    <glyph glyph-name="uniE022" unicode="&#xe022;" horiz-adv-x="241" 
d="M69 0v606h103v-606h-103z" />
    <glyph glyph-name="uniE033" unicode="&#xe033;" horiz-adv-x="644" 
d="M407 660q-9 -18 -18 -35t-17 -35q-14 7 -31 13t-41 6q-21 0 -36.5 -5.5t-26.5 -15.5q-17 -15 -23 -38.5t-6 -52.5v-22h168v-83h-168v-392h-100v392h-105v83h105v27q0 40 9 76t40 67q28 28 62.5 38t70.5 10q25 0 45 -4.5t35 -10t24.5 -11t12.5 -7.5zM539 24
q0 -25 -1 -48.5t-5.5 -45t-13.5 -41.5t-26 -37q-23 -23 -55.5 -37.5t-79.5 -14.5q-49 0 -78 12.5t-40 20.5l40 71q7 -5 24 -12t46 -7q23 0 39.5 8t26.5 21q14 17 18.5 39t4.5 58v464h100v-452v1zM550 622q0 -26 -17 -43t-44 -17q-26 0 -43.5 17t-17.5 43q0 25 17.5 42.5
t43.5 17.5t43.5 -17.5t17.5 -42.5z" />
    <glyph glyph-name="uniF62C" unicode="&#xf62c;" horiz-adv-x="237" 
d="M199 -88q-30 19 -58.5 45.5t-50.5 60.5t-35.5 75t-13.5 89q0 46 13.5 88t36 77t51 62t58.5 45l40 -48q-25 -19 -47.5 -42.5t-40 -51.5t-27.5 -60.5t-10 -68.5t10 -68.5t27.5 -60.5t40 -51.5t47.5 -42.5z" />
    <glyph glyph-name="uniF62D" unicode="&#xf62d;" horiz-adv-x="237" 
d="M-3 -40q25 19 47.5 42.5t39.5 51.5t27.5 60.5t10.5 68.5t-10.5 68.5t-27.5 60.5t-39.5 51.5t-47.5 42.5l40 48q30 -18 58.5 -45t51 -62t36 -77t13.5 -88q0 -48 -13.5 -89t-35.5 -75t-50.5 -60.5t-58.5 -45.5z" />
    <glyph glyph-name="uniF639" unicode="&#xf639;" 
d="M560 339q0 -79 -17 -144t-50 -111.5t-81.5 -72.5t-111.5 -26q-64 0 -112.5 26t-81 72.5t-49 111.5t-16.5 144t17 144t50 112t81.5 73t111.5 26q64 0 112.5 -26t81 -73t49 -112t16.5 -144zM453 339q0 39 -5 86t-21 87t-46 67t-80 27t-80 -27t-46.5 -67t-21.5 -87t-5 -86
q0 -40 5 -86.5t21 -86.5t46 -66.5t80 -26.5t80 26.5t46.5 66.5t21.5 86.5t5 86.5z" />
    <glyph glyph-name="uniF63A" unicode="&#xf63a;" 
d="M527 489q0 -58 -25 -98t-63 -69.5t-82.5 -52.5t-83.5 -48t-66 -56t-29 -75h346v-90h-451v18q0 32 2.5 60.5t10 55t22.5 51.5t40 50q40 40 88 67t90 53t70.5 56.5t28.5 77.5q0 56 -35.5 87t-92.5 31q-38 0 -67.5 -12t-51 -27.5t-34.5 -30t-17 -20.5l-64 58q4 5 19.5 24
t45 40t72 38t100.5 17q49 0 90.5 -14t72 -40t47.5 -64t17 -87z" />
    <glyph glyph-name="uniF63B" unicode="&#xf63b;" 
d="M526 189q0 -47 -17.5 -84.5t-50 -64t-77.5 -41t-100 -14.5q-58 0 -100.5 14.5t-71.5 33.5t-45 36.5t-20 23.5l64 59q4 -5 16.5 -18t33.5 -27t50.5 -24.5t67.5 -10.5q64 0 104.5 29t40.5 89q0 39 -17 62t-43.5 34.5t-59 14.5t-62.5 3h-45v88h40q29 0 59.5 2.5t55 13t40 32
t15.5 58.5q0 17 -5.5 36t-19.5 35.5t-37 27t-57 10.5q-35 0 -62.5 -10t-48 -23t-33 -26.5t-18.5 -19.5l-62 59q4 5 20 22.5t43.5 36t68 33.5t94.5 15q49 0 89 -14t69 -39t45 -59.5t16 -74.5q0 -39 -12.5 -67t-30 -46.5t-36 -29t-30.5 -14.5q12 -3 33.5 -12.5t43 -28.5
t37 -48.5t15.5 -71.5z" />
    <glyph glyph-name="uniF63C" unicode="&#xf63c;" 
d="M459 153v-153h-99v153h-323v85l318 440h104v-441h106v-84h-106zM360 543l-223 -306h223v306z" />
    <glyph glyph-name="uniF63D" unicode="&#xf63d;" 
d="M539 222q0 -54 -18.5 -98t-52 -74.5t-81.5 -47.5t-108 -17q-56 0 -97.5 14t-68.5 31.5t-41 32.5t-15 17l61 63q7 -7 20 -19t33 -23.5t46.5 -20t59.5 -8.5q71 0 114 37.5t43 110.5q0 35 -11.5 60t-30.5 40.5t-44 23t-51 7.5q-37 0 -62.5 -10.5t-42 -24t-24.5 -25t-9 -14.5
l-80 33l39 368h379v-86h-303l-24 -210q24 23 62 38.5t88 15.5q47 0 87 -14.5t69.5 -42t46 -67.5t16.5 -90z" />
    <glyph glyph-name="uniF63E" unicode="&#xf63e;" 
d="M556 223q0 -51 -17.5 -94.5t-49 -75.5t-76.5 -50t-100 -18q-75 0 -125 30t-80 78.5t-42.5 109.5t-12.5 123q0 35 4 76t15.5 82t31 78.5t50 67t73.5 47t101 17.5t98.5 -15t66 -33.5t38 -35.5t15.5 -21l-66 -55q-3 4 -13.5 15.5t-28.5 24.5t-44.5 23t-61.5 10
q-52 0 -87 -23.5t-56 -60t-30 -80.5t-9 -86v-15q3 6 15.5 22t35 33.5t56.5 31t81 13.5q49 0 89 -16t68.5 -45t44.5 -69t16 -89zM173 209q0 -61 37.5 -101t105.5 -40q31 0 56.5 11.5t43.5 31t28 46t10 57.5q0 61 -35.5 101t-98.5 40q-34 0 -61 -11.5t-46 -31t-29.5 -46
t-10.5 -57.5z" />
    <glyph glyph-name="uniF63F" unicode="&#xf63f;" 
d="M262 0h-116l287 589h-376v89h487v-82z" />
    <glyph glyph-name="uniF640" unicode="&#xf640;" 
d="M553 184q0 -48 -20 -85t-54 -62.5t-80 -39t-98 -13.5q-53 0 -99 13t-80 38.5t-54 62.5t-20 85q0 40 15 70t35.5 50t42 31t33.5 14q-12 4 -30 14.5t-35 29.5t-29 46t-12 65q0 46 18 82t49.5 60t74 36.5t90.5 12.5q49 0 91.5 -12.5t74 -36.5t49.5 -59.5t18 -81.5
q0 -37 -12 -64.5t-29 -46t-35 -29.5t-30 -15q12 -3 33 -14t42 -31t36 -49.5t15 -70.5zM300 610q-26 0 -49.5 -6t-42 -19.5t-29.5 -34.5t-11 -50q0 -30 11 -51.5t29.5 -35t42 -19.5t49.5 -6t50 6.5t42.5 20t29.5 34.5t11 51q0 29 -11 49.5t-29.5 34t-42.5 20t-50 6.5z
M448 185q0 31 -12.5 54t-33 38.5t-47.5 23t-55 7.5t-54.5 -7.5t-47.5 -23t-33.5 -38.5t-12.5 -54q0 -30 12.5 -52t33.5 -36.5t47.5 -21.5t54.5 -7t55 7t47.5 21.5t33 36.5t12.5 52z" />
    <glyph glyph-name="uniF641" unicode="&#xf641;" 
d="M45 456q0 51 17.5 94.5t49 75.5t76.5 50t100 18q75 0 125 -30t80 -78.5t42.5 -109.5t12.5 -123q0 -35 -4 -76t-15.5 -82t-31 -78.5t-50 -67t-73.5 -47t-101 -17.5t-98.5 15t-66 33.5t-38 35.5t-15.5 21l66 55q3 -4 13.5 -16t28.5 -24.5t44.5 -22.5t61.5 -10q52 0 87 23.5
t56 60t30 80.5t9 86v15q-3 -6 -15.5 -22t-35 -33.5t-56.5 -31t-81 -13.5q-49 0 -89 16t-68.5 45t-44.5 69t-16 89zM428 470q0 61 -37.5 101t-105.5 40q-32 0 -57.5 -11.5t-43.5 -31t-27.5 -46t-9.5 -57.5q0 -61 35.5 -101t98.5 -40q34 0 61 11.5t46 31t29.5 46t10.5 57.5z
" />
    <glyph glyph-name="uniF643" unicode="&#xf643;" horiz-adv-x="539" 
d="M504 303q0 -70 -15.5 -128t-45 -100t-73.5 -65.5t-101 -23.5t-100.5 23.5t-73 65.5t-44.5 100t-15 128q0 69 15.5 127.5t45 100.5t73.5 65.5t101 23.5t100.5 -23.5t73 -65.5t44.5 -100.5t15 -127.5zM400 303q0 34 -4.5 74.5t-18.5 75.5t-39.5 58t-67.5 23t-67.5 -23
t-39.5 -58t-18.5 -75.5t-4.5 -74.5q0 -35 4.5 -75.5t18.5 -75t39.5 -57.5t67.5 -23t67.5 23t39.5 57.5t18.5 75t4.5 75.5z" />
    <glyph glyph-name="uniF644" unicode="&#xf644;" horiz-adv-x="539" 
d="M86 0v85h158v412l-137 -87l-48 74l194 122h93v-521h157v-85h-417z" />
    <glyph glyph-name="uniF645" unicode="&#xf645;" horiz-adv-x="539" 
d="M473 435q0 -40 -13.5 -70.5t-35 -54t-49.5 -42t-57 -34.5t-59 -33.5t-55 -42.5q-12 -12 -22 -28.5t-12 -42.5h300v-87h-403v30q0 27 2.5 51.5t9.5 47t20 44t34 42.5q35 35 76 58t81 49q36 23 59.5 48.5t23.5 65.5q0 46 -29 72t-77 26t-83.5 -22.5t-64.5 -57.5l-62 55
q37 53 90.5 82t122.5 29q43 0 80.5 -12.5t64.5 -36t42.5 -58t15.5 -78.5z" />
    <glyph glyph-name="uniF646" unicode="&#xf646;" horiz-adv-x="539" 
d="M472 174q0 -44 -16 -79t-45 -59t-69 -37t-89 -13q-59 0 -108 19.5t-85 57.5q-6 7 -11 13.5t-10 12.5l63 56q12 -14 26 -27t31.5 -23.5t39.5 -16.5t50 -6q56 0 88.5 25.5t32.5 75.5q0 40 -22 62q-23 23 -58 28t-70 5h-47v84h42q25 0 50 2.5t45.5 11.5t33.5 27t13 50
q0 14 -5 30t-16.5 30t-30.5 23t-48 9q-43 0 -79 -19.5t-63 -51.5l-60 56q12 18 31.5 35.5t45.5 32t57.5 23.5t69.5 9q43 0 79 -12.5t62 -35t40.5 -54t14.5 -68.5q0 -31 -10 -55.5t-24.5 -42t-30 -28t-27.5 -12.5q13 -3 31.5 -12t35.5 -25.5t29.5 -41.5t12.5 -59z" />
    <glyph glyph-name="uniF647" unicode="&#xf647;" horiz-adv-x="539" 
d="M411 135v-135h-98v135h-282v78l283 393h97v-389h93v-82h-93zM313 467l-180 -250h180v250z" />
    <glyph glyph-name="uniF648" unicode="&#xf648;" horiz-adv-x="539" 
d="M484 201q0 -49 -16.5 -88.5t-46.5 -67.5t-72.5 -43.5t-95.5 -15.5q-57 0 -104 18.5t-79 51.5q-7 7 -11 12t-7 9l60 60q28 -31 61.5 -48t77.5 -17q60 0 95.5 31.5t35.5 94.5q0 28 -9 49t-24.5 35t-36 21t-43.5 7q-80 0 -119 -68l-78 33l35 331h341v-84h-267l-18 -172
q20 21 55.5 32.5t70.5 11.5q42 0 77.5 -13t62 -38t41 -61t14.5 -81z" />
    <glyph glyph-name="uniF649" unicode="&#xf649;" horiz-adv-x="539" 
d="M498 201q0 -46 -15.5 -85t-44 -68t-68.5 -45.5t-88 -16.5q-68 0 -113 27.5t-72 71t-38 98.5t-11 109q0 30 3.5 66t13.5 72.5t27.5 70.5t44.5 60.5t65.5 42.5t90.5 16q129 0 196 -95l-60 -55q-25 27 -58 46t-75 19q-44 0 -73 -21.5t-47 -53.5t-25.5 -69.5t-7.5 -70.5
q25 38 67 58.5t93 20.5q43 0 79 -14.5t62 -40.5t40 -62.5t14 -80.5zM398 193q0 53 -29.5 86.5t-82.5 33.5q-57 0 -89.5 -35.5t-32.5 -88.5q0 -52 31 -86t88 -34q26 0 47 9.5t36 26t23.5 39.5t8.5 49z" />
    <glyph glyph-name="uniF64A" unicode="&#xf64a;" horiz-adv-x="539" 
d="M239 0h-111l251 520h-327v86h435v-77z" />
    <glyph glyph-name="uniF64B" unicode="&#xf64b;" horiz-adv-x="539" 
d="M495 167q0 -43 -18 -76.5t-48.5 -57t-71.5 -35.5t-87 -12t-87 12t-71.5 35.5t-48.5 57t-18 76.5q0 34 11.5 59.5t28 43t34.5 28t31 14.5q-13 4 -28 14.5t-28.5 27.5t-22.5 40t-9 53q0 42 16.5 74.5t44.5 54.5t66 33t81 11t80.5 -11t66 -33t45 -54t16.5 -74q0 -30 -9 -53
t-22 -40t-28.5 -27.5t-28.5 -14.5q17 -5 35.5 -17t34 -30.5t25.5 -43t10 -55.5zM381 444q0 24 -9 42t-24.5 30t-35.5 17.5t-42 5.5t-42 -5.5t-35.5 -17.5t-24.5 -30t-9 -42q0 -25 9 -42.5t24.5 -29t35.5 -17t42 -5.5t42 5.5t35.5 17t24.5 29.5t9 42zM394 168q0 26 -10 45.5
t-27.5 32.5t-40 19.5t-46.5 6.5t-46.5 -6.5t-40 -19.5t-27.5 -32.5t-10 -45.5q0 -24 10 -43t27.5 -31.5t40 -19t46.5 -6.5t46.5 6.5t40 19t27.5 31t10 43.5z" />
    <glyph glyph-name="uniF64C" unicode="&#xf64c;" horiz-adv-x="539" 
d="M41 405q0 46 15.5 85t44 68t68.5 45.5t88 16.5q67 0 112 -27.5t72 -71t38.5 -98.5t11.5 -109q0 -30 -3.5 -66t-13.5 -72.5t-27.5 -70.5t-44.5 -60.5t-65.5 -42.5t-90.5 -16q-129 0 -196 95l60 55q25 -27 58 -46t75 -19q43 0 72.5 21.5t47.5 53.5t25.5 69.5t7.5 70.5
q-25 -38 -67 -58.5t-93 -20.5q-44 0 -79.5 14.5t-61.5 40.5t-40 62.5t-14 80.5zM141 413q0 -53 29.5 -86.5t82.5 -33.5q57 0 89.5 35.5t32.5 88.5q0 52 -31 86t-88 34q-26 0 -47 -9.5t-36 -26t-23.5 -39.5t-8.5 -49z" />
    <glyph glyph-name="uniF64E" unicode="&#xf64e;" horiz-adv-x="539" 
d="M520 89q-32 -53 -83 -78t-115 -25q-65 0 -109 24.5t-71 58t-40 67.5t-16 54h-72v80h70q-1 6 -1.5 14t-0.5 16q0 5 0.5 14t1.5 16h-70v80h74q4 31 18 67.5t41.5 68t69.5 53t101 21.5q60 0 110.5 -24t85.5 -80q-16 -12 -32.5 -24t-32.5 -25q-23 33 -53 50.5t-75 17.5
q-36 0 -60 -14.5t-39.5 -34.5t-23.5 -41t-11 -35h199v-80h-206q-1 -7 -1.5 -16t-0.5 -14q0 -8 0.5 -16t1.5 -14h206v-80h-200q2 -12 10 -32t24.5 -39.5t42 -33.5t61.5 -14q85 0 130 68q17 -12 33 -24.5t33 -25.5z" />
    <glyph glyph-name="uniF64F" unicode="&#xf64f;" 
d="M566 590q-14 5 -31 10t-38 5q-26 0 -42.5 -11.5t-26.5 -28t-14.5 -35.5t-7.5 -34l-10 -46h149v-83h-166l-84 -392q-9 -44 -24 -79t-45 -59q-23 -18 -52 -27.5t-61 -9.5q-29 0 -58 7.5t-51 18.5l31 76q14 -5 31 -10t38 -5q32 0 54 19q18 14 25 37t13 53l80 371h-99v83h116
l14 67q10 44 24.5 79t43.5 58q48 39 113 39q29 0 58 -8t51 -19z" />
    <glyph glyph-name="uniF651" unicode="&#xf651;" horiz-adv-x="539" 
d="M436 465q-23 29 -55 49t-77 20q-25 0 -44.5 -9t-32.5 -23t-20 -32.5t-7 -36.5q0 -32 6 -53t13 -38h169v-81h-152q1 -5 2.5 -15t1.5 -20q0 -57 -18.5 -92t-37.5 -49h303v-85h-432v77q47 22 67.5 57t20.5 82q0 22 -5 45h-83v81h64q-7 19 -12.5 40t-5.5 48q0 41 15 75.5
t41 60t62.5 40t79.5 14.5q39 0 70.5 -9.5t56 -24t43 -32.5t31.5 -36z" />
    <glyph glyph-name="uniF652" unicode="&#xf652;" horiz-adv-x="539" 
d="M365 342h126v-81h-173v-62h167v-80h-167v-119h-97v119h-166v80h166v62h-172v81h125l-155 264h110l143 -265l142 265h105z" />
    <glyph glyph-name="uniF653" unicode="&#xf653;" horiz-adv-x="539" 
d="M491 168q0 -37 -13.5 -68t-37.5 -54t-58 -38t-76 -19v-81h-77v81q-42 4 -74 18.5t-55 32t-37.5 34.5t-20.5 27l64 54q20 -28 51 -49.5t72 -29.5v184q-29 7 -59 18.5t-55.5 31.5t-41.5 51t-16 79q0 35 12.5 65.5t35 54.5t54.5 39t70 20v79h77v-79q45 -5 78 -20.5t55 -33
t33 -33t13 -19.5l-61 -55q-25 30 -54 49.5t-63 23.5v-188q31 -7 63.5 -17.5t59.5 -30t44 -50t17 -77.5zM229 533q-13 -3 -26.5 -9t-25 -17t-18.5 -27t-7 -39q0 -20 7 -33.5t18.5 -22.5t25 -14.5t26.5 -8.5v171zM396 164q0 19 -7.5 32.5t-20 22.5t-28.5 14.5t-33 10.5v-170
q15 2 30.5 7t28.5 15t21.5 26.5t8.5 41.5z" />
    <glyph glyph-name="uniF654" unicode="&#xf654;" horiz-adv-x="539" 
d="M487 71q-1 -2 -10.5 -15.5t-29.5 -30t-51 -31.5t-74 -19v-78h-75v78q-51 6 -87.5 27.5t-60.5 53t-35.5 71t-11.5 81.5t11.5 80.5t35.5 69.5t61 52.5t87 28.5v77h75v-76q57 -5 99.5 -32.5t64.5 -61.5l-65 -52q-21 26 -42.5 39t-56.5 20v-291q34 5 58 22t43 40zM247 351
q-48 -14 -71.5 -53.5t-23.5 -90.5q0 -52 23 -90.5t72 -52.5v287z" />
    <glyph glyph-name="uniF655" unicode="&#xf655;" horiz-adv-x="382" 
d="M190 -8q-37 0 -65 14t-46.5 39.5t-28 60.5t-9.5 76t9.5 76t28.5 60.5t47 39.5t65 14t65 -14t47 -39.5t28.5 -60.5t9.5 -76t-9.5 -76t-28.5 -60.5t-47.5 -39.5t-65.5 -14zM191 312q-24 0 -39 -12.5t-23 -32t-11 -42t-3 -43.5t3 -43.5t11 -41.5t22.5 -31.5t38.5 -12.5
t39 12.5t23 31.5t11 41.5t3 43.5t-2.5 43.5t-11 42t-23 32t-38.5 12.5z" />
    <glyph glyph-name="uniF656" unicode="&#xf656;" horiz-adv-x="399" 
d="M78 61h98v224l-82 -48l-35 52l126 75h63v-303h98v-61h-268v61z" />
    <glyph glyph-name="uniF657" unicode="&#xf657;" horiz-adv-x="393" 
d="M322 260q0 -24 -8.5 -42.5t-22 -33t-31 -26t-34.5 -20.5q-13 -7 -28 -14.5t-28 -16.5t-22.5 -20t-12.5 -25h185v-62h-259v22q0 33 7 59.5t35 52.5q21 21 47 35.5t51 28.5q23 14 36 29t13 35q0 23 -16 38t-45 15q-30 0 -51.5 -14.5t-39.5 -36.5l-47 39q4 5 14.5 17
t27.5 24t41.5 21t56.5 9q55 0 93 -29.5t38 -84.5z" />
    <glyph glyph-name="uniF658" unicode="&#xf658;" horiz-adv-x="390" 
d="M327 108q0 -55 -39.5 -85.5t-102.5 -30.5q-51 0 -85.5 18.5t-54.5 47.5l48 41q6 -6 13.5 -14t18.5 -15q11 -6 25 -12t33 -6q33 0 51 14.5t18 38.5q0 19 -9 29.5t-22 15.5t-28 6t-28 1h-31v58h28q14 0 28.5 1t26.5 5.5t19.5 14t7.5 27.5q0 15 -12 32.5t-44 17.5
q-29 0 -49 -13t-39 -33l-46 40q12 14 21.5 22t20.5 16q16 11 39 19t54 8q55 0 91 -29t36 -76q0 -33 -16.5 -53t-34.5 -26q9 -3 20 -9t20.5 -15.5t15.5 -23.5t6 -32z" />
    <glyph glyph-name="uniF659" unicode="&#xf659;" horiz-adv-x="386" 
d="M277 79v-79h-69v79h-167v50l169 235h67v-229h58v-56h-58zM208 267l-95 -132h95v132z" />
    <glyph glyph-name="uniF65A" unicode="&#xf65a;" horiz-adv-x="385" 
d="M173 -8q-32 0 -55 7.5t-39 17t-25 19t-13 14.5l44 43q19 -20 39 -31t48 -11q35 0 55 17.5t20 52.5q0 32 -19.5 46.5t-45.5 14.5q-46 0 -71 -42l-56 22l23 202h221v-60h-166l-10 -86q12 11 31.5 16.5t40.5 5.5q54 0 90 -30.5t36 -87.5q0 -60 -40.5 -95t-107.5 -35z" />
    <glyph glyph-name="uniF65B" unicode="&#xf65b;" horiz-adv-x="373" 
d="M192 -8q-44 0 -73 16.5t-46 43t-24.5 59.5t-7.5 65q0 27 5.5 61t22.5 64t48 50.5t82 20.5q42 0 75.5 -15.5t53.5 -46.5l-45 -37q-15 17 -34 29t-48 12q-25 0 -42 -11t-28 -29t-16 -39.5t-5 -42.5q4 8 11 17t18 16.5t27.5 12.5t39.5 5q55 0 90 -33t35 -88q0 -28 -10 -51.5
t-28.5 -41t-44 -27.5t-56.5 -10zM194 184q-33 0 -52 -20t-19 -48q0 -29 17.5 -48t51.5 -19q30 0 48.5 20t18.5 49q0 28 -17 47t-48 19z" />
    <glyph glyph-name="uniF65C" unicode="&#xf65c;" horiz-adv-x="403" 
d="M103 0l157 302h-201v62h280v-52l-156 -312h-80z" />
    <glyph glyph-name="uniF65D" unicode="&#xf65d;" horiz-adv-x="373" 
d="M186 -8q-29 0 -55 7t-46 21.5t-32 35t-12 47.5q0 18 6 32.5t15 25t20 17.5t21 9q-20 6 -35.5 27t-15.5 52q0 26 11 46t29 33.5t42.5 20t51.5 6.5t51.5 -6.5t43 -20t29.5 -33.5t11 -46q0 -30 -15.5 -51t-35.5 -27q22 -6 41.5 -28t19.5 -57q0 -27 -11.5 -47.5t-31.5 -35
t-46.5 -21.5t-55.5 -7zM186 317q-26 0 -45 -14t-19 -39q0 -26 19 -38.5t45 -12.5q27 0 45.5 12.5t18.5 38.5q0 25 -18.5 39t-45.5 14zM186 160q-29 0 -50.5 -15t-21.5 -42q0 -25 21 -40t51 -15t51 14.5t21 40.5q0 27 -21.5 42t-50.5 15z" />
    <glyph glyph-name="uniF65E" unicode="&#xf65e;" horiz-adv-x="373" 
d="M180 372q43 0 72.5 -16.5t46.5 -43t24.5 -59.5t7.5 -65q0 -27 -5.5 -61t-22.5 -64t-48 -50.5t-82 -20.5q-42 0 -75.5 15.5t-53.5 46.5l45 37q15 -17 34 -29t48 -12q25 0 42 11t28 29t16 39.5t5 42.5q-4 -8 -11 -17t-18 -16.5t-27.5 -12.5t-39.5 -5q-55 0 -90 33t-35 88
q0 28 10 51.5t28.5 41t44 27.5t56.5 10zM178 180q33 0 52 20t19 48q0 29 -17.5 48t-51.5 19q-30 0 -48.5 -20t-18.5 -49q0 -28 17 -47t48 -19z" />
    <glyph glyph-name="uniF661" unicode="&#xf661;" horiz-adv-x="382" 
d="M190 308q-37 0 -65 14t-46.5 39.5t-28 60.5t-9.5 76t9.5 76t28.5 60.5t47 39.5t65 14t65 -14t47 -39.5t28.5 -60.5t9.5 -76t-9.5 -76t-28.5 -60.5t-47.5 -39.5t-65.5 -14zM191 628q-24 0 -39 -12.5t-23 -32t-11 -42t-3 -43.5t3 -43.5t11 -41.5t22.5 -31.5t38.5 -12.5
t39 12.5t23 31.5t11 41.5t3 43.5t-2.5 43.5t-11 42t-23 32t-38.5 12.5z" />
    <glyph glyph-name="uniF662" unicode="&#xf662;" horiz-adv-x="399" 
d="M78 375h98v224l-82 -48l-35 52l126 75h63v-303h98v-61h-268v61z" />
    <glyph glyph-name="uniF663" unicode="&#xf663;" horiz-adv-x="393" 
d="M322 574q0 -24 -8.5 -42.5t-22 -33t-31 -26t-34.5 -20.5q-13 -7 -28 -14.5t-28 -16.5t-22.5 -20t-12.5 -25h185v-62h-259v22q0 33 7 59.5t35 52.5q21 21 47 35.5t51 28.5q23 14 36 29t13 35q0 23 -16 38t-45 15q-30 0 -51.5 -14.5t-39.5 -36.5l-47 39q4 5 14.5 17
t27.5 24t41.5 21t56.5 9q55 0 93 -29.5t38 -84.5z" />
    <glyph glyph-name="uniF664" unicode="&#xf664;" horiz-adv-x="390" 
d="M327 424q0 -55 -39.5 -85.5t-102.5 -30.5q-51 0 -85.5 18.5t-54.5 47.5l48 41q6 -6 13.5 -14t18.5 -15q11 -6 25 -12t33 -6q33 0 51 14.5t18 38.5q0 19 -9 29.5t-22 15.5t-28 6t-28 1h-31v58h28q14 0 28.5 1t26.5 5.5t19.5 14t7.5 27.5q0 15 -12 32.5t-44 17.5
q-29 0 -49 -13t-39 -33l-46 40q12 14 21.5 22t20.5 16q16 11 39 19t54 8q55 0 91 -29t36 -76q0 -33 -16.5 -53t-34.5 -26q9 -3 20 -9t20.5 -15.5t15.5 -23.5t6 -32z" />
    <glyph glyph-name="uniF665" unicode="&#xf665;" horiz-adv-x="386" 
d="M277 393v-79h-69v79h-167v50l169 235h67v-229h58v-56h-58zM208 581l-95 -132h95v132z" />
    <glyph glyph-name="uniF666" unicode="&#xf666;" horiz-adv-x="385" 
d="M173 306q-32 0 -55 7.5t-39 17t-25 19t-13 14.5l44 43q19 -20 39 -31t48 -11q35 0 55 17.5t20 52.5q0 32 -19.5 46.5t-45.5 14.5q-46 0 -71 -42l-56 22l23 202h221v-60h-166l-10 -86q12 11 31.5 16.5t40.5 5.5q54 0 90 -30.5t36 -87.5q0 -60 -40.5 -95t-107.5 -35z" />
    <glyph glyph-name="uniF667" unicode="&#xf667;" horiz-adv-x="373" 
d="M192 308q-44 0 -73 16.5t-46 43t-24.5 59.5t-7.5 65q0 27 5.5 61t22.5 64t48 50.5t82 20.5q42 0 75.5 -15.5t53.5 -46.5l-45 -37q-15 17 -34 29t-48 12q-25 0 -42 -11t-28 -29t-16 -39.5t-5 -42.5q4 8 11 17t18 16.5t27.5 12.5t39.5 5q55 0 90 -33t35 -88
q0 -28 -10 -51.5t-28.5 -41t-44 -27.5t-56.5 -10zM194 500q-33 0 -52 -20t-19 -48q0 -29 17.5 -48t51.5 -19q30 0 48.5 20t18.5 49q0 28 -17 47t-48 19z" />
    <glyph glyph-name="uniF668" unicode="&#xf668;" horiz-adv-x="403" 
d="M103 314l157 302h-201v62h280v-52l-156 -312h-80z" />
    <glyph glyph-name="uniF669" unicode="&#xf669;" horiz-adv-x="373" 
d="M186 308q-29 0 -55 7t-46 21.5t-32 35t-12 47.5q0 18 6 32.5t15 25t20 17.5t21 9q-20 6 -35.5 27t-15.5 52q0 26 11 46t29 33.5t42.5 20t51.5 6.5t51.5 -6.5t43 -20t29.5 -33.5t11 -46q0 -30 -15.5 -51t-35.5 -27q22 -6 41.5 -28t19.5 -57q0 -27 -11.5 -47.5t-31.5 -35
t-46.5 -21.5t-55.5 -7zM186 633q-26 0 -45 -14t-19 -39q0 -26 19 -38.5t45 -12.5q27 0 45.5 12.5t18.5 38.5q0 25 -18.5 39t-45.5 14zM186 476q-29 0 -50.5 -15t-21.5 -42q0 -25 21 -40t51 -15t51 14.5t21 40.5q0 27 -21.5 42t-50.5 15z" />
    <glyph glyph-name="uniF66A" unicode="&#xf66a;" horiz-adv-x="373" 
d="M180 688q43 0 72.5 -16.5t46.5 -43t24.5 -59.5t7.5 -65q0 -27 -5.5 -61t-22.5 -64t-48 -50.5t-82 -20.5q-42 0 -75.5 15.5t-53.5 46.5l45 37q15 -17 34 -29t48 -12q25 0 42 11t28 29t16 39.5t5 42.5q-4 -8 -11 -17t-18 -16.5t-27.5 -12.5t-39.5 -5q-55 0 -90 33t-35 88
q0 28 10 51.5t28.5 41t44 27.5t56.5 10zM178 496q33 0 52 20t19 48q0 29 -17.5 48t-51.5 19q-30 0 -48.5 -20t-18.5 -49q0 -28 17 -47t48 -19z" />
    <glyph glyph-name="uniF66B" unicode="&#xf66b;" horiz-adv-x="237" 
d="M199 227q-30 19 -58.5 45.5t-50.5 60.5t-35.5 75t-13.5 89q0 46 13.5 88t36 77t51 62t58.5 45l40 -48q-25 -19 -47.5 -42.5t-40 -51.5t-27.5 -60.5t-10 -68.5t10 -68.5t27.5 -60.5t40 -51.5t47.5 -42.5z" />
    <glyph glyph-name="uniF66C" unicode="&#xf66c;" horiz-adv-x="237" 
d="M38 227l-41 48q25 19 47.5 42.5t39.5 51.5t27.5 60.5t10.5 68.5t-10.5 68.5t-27.5 60.5t-39.5 51.5t-47.5 42.5l40 48q30 -18 58.5 -45t51 -62t36 -77t13.5 -88q0 -48 -13.5 -89t-35.5 -75t-50.5 -60.5t-58.5 -45.5z" />
    <glyph glyph-name="uniF6DC" unicode="&#xf6dc;" 
d="M95 0v88h182v483l-162 -101q-10 15 -19 28q-8 11 -16 23.5t-14 22.5l216 134h98v-590h180v-88h-465z" />
    <glyph glyph-name="uniF6F9" unicode="&#xf6f9;" horiz-adv-x="503" 
d="M83 0v209l-40 -39l-59 60l99 93v283h103v-202l78 74l58 -59l-136 -129v-202h313v-88h-416z" />
    <glyph glyph-name="uniF6FA" unicode="&#xf6fa;" horiz-adv-x="1011" 
d="M556 0v73q-14 -17 -33 -32.5t-44.5 -27.5t-58.5 -19.5t-73 -7.5q-78 0 -136 27.5t-96.5 72.5t-57 102t-18.5 116q0 58 18.5 114.5t57 101.5t96.5 72.5t136 27.5q43 0 76.5 -8.5t59.5 -22t44 -29t29 -28.5v74h404v-88h-309v-168h287v-86h-285v-176h319v-88h-416zM552 304
q0 44 -12.5 85t-38 73t-64 51t-89.5 19t-89.5 -19t-64 -51t-38.5 -73t-13 -85q0 -45 13 -86.5t38.5 -73.5t64 -51t89.5 -19t89.5 19t64 51t38 73.5t12.5 86.5z" />
    <glyph glyph-name="uniF6FD" unicode="&#xf6fd;" horiz-adv-x="573" 
d="M522 171q0 -44 -18 -78.5t-50.5 -58t-78 -36t-100.5 -12.5q-81 0 -145 27.5t-104 81.5l65 64q42 -45 85.5 -65.5t97.5 -20.5q68 0 104.5 25t36.5 70q0 34 -27.5 51.5t-69 28t-89.5 20.5t-89.5 29t-69 53.5t-27.5 94.5q0 35 15.5 67t45 56t72.5 38t97 14q34 0 68.5 -6
t66.5 -18.5t59.5 -33t47.5 -49.5l-65 -60q-11 14 -28 28.5t-40 26.5t-50.5 19.5t-58.5 7.5q-60 0 -92.5 -22.5t-32.5 -63.5q0 -36 27.5 -53t69.5 -27.5t90 -19.5t90 -27.5t69.5 -53.5t27.5 -97zM202 808l72 -81l72 81h83l-89 -131h-132l-89 131h83z" />
    <glyph glyph-name="uniF6FF" unicode="&#xf6ff;" horiz-adv-x="565" 
d="M39 0v83l348 435h-337v88h464v-83l-348 -435h359v-88h-486zM210 808l72 -81l72 81h83l-89 -131h-132l-89 131h83z" />
    <glyph glyph-name="uniF726" unicode="&#xf726;" horiz-adv-x="588" 
d="M474 0l-56 63q-35 -38 -83 -57.5t-104 -19.5q-42 0 -79.5 11t-65 32.5t-43.5 54t-16 74.5q0 36 11 63.5t30 49.5t44.5 40t54.5 34q-13 14 -25 28.5t-21.5 30t-15 34.5t-5.5 42q0 30 12 56t34 44.5t53 29t69 10.5q30 0 58 -8.5t49.5 -25t34.5 -41t13 -56.5
q0 -31 -10.5 -55.5t-27.5 -44t-39 -35.5t-45 -29l113 -127q5 9 9.5 21.5t8.5 26.5t7 28.5t4 26.5h85q-2 -49 -18.5 -95.5t-36.5 -75.5l115 -130h-114zM335 484q0 24 -17 41.5t-52 17.5q-32 0 -52.5 -15.5t-20.5 -44.5q0 -32 18 -54.5t38 -44.5q13 9 28.5 18.5t28 21t21 26.5
t8.5 34zM221 283q-18 -11 -35.5 -22t-31 -25t-22 -32t-8.5 -42q0 -42 32 -67.5t80 -25.5q28 0 49 6.5t36 16t25 19t15 15.5z" />
    <glyph glyph-name="uniF730" unicode="&#xf730;" horiz-adv-x="539" 
d="M504 303q0 -70 -15.5 -128t-45 -100t-73.5 -65.5t-101 -23.5t-100.5 23.5t-73 65.5t-44.5 100t-15 128q0 69 15.5 127.5t45 100.5t73.5 65.5t101 23.5t100.5 -23.5t73 -65.5t44.5 -100.5t15 -127.5zM400 303q0 34 -4.5 74.5t-18.5 75.5t-39.5 58t-67.5 23t-67.5 -23
t-39.5 -58t-18.5 -75.5t-4.5 -74.5q0 -35 4.5 -75.5t18.5 -75t39.5 -57.5t67.5 -23t67.5 23t39.5 57.5t18.5 75t4.5 75.5z" />
    <glyph glyph-name="uniF731" unicode="&#xf731;" horiz-adv-x="539" 
d="M86 0v85h158v412l-137 -87l-48 74l194 122h93v-521h157v-85h-417z" />
    <glyph glyph-name="uniF732" unicode="&#xf732;" horiz-adv-x="539" 
d="M473 435q0 -40 -13.5 -70.5t-35 -54t-49.5 -42t-57 -34.5t-59 -33.5t-55 -42.5q-12 -12 -22 -28.5t-12 -42.5h300v-87h-403v30q0 27 2.5 51.5t9.5 47t20 44t34 42.5q35 35 76 58t81 49q36 23 59.5 48.5t23.5 65.5q0 46 -29 72t-77 26t-83.5 -22.5t-64.5 -57.5l-62 55
q37 53 90.5 82t122.5 29q43 0 80.5 -12.5t64.5 -36t42.5 -58t15.5 -78.5z" />
    <glyph glyph-name="uniF733" unicode="&#xf733;" horiz-adv-x="539" 
d="M472 174q0 -44 -16 -79t-45 -59t-69 -37t-89 -13q-59 0 -108 19.5t-85 57.5q-6 7 -11 13.5t-10 12.5l63 56q12 -14 26 -27t31.5 -23.5t39.5 -16.5t50 -6q56 0 88.5 25.5t32.5 75.5q0 40 -22 62q-23 23 -58 28t-70 5h-47v84h42q25 0 50 2.5t45.5 11.5t33.5 27t13 50
q0 14 -5 30t-16.5 30t-30.5 23t-48 9q-43 0 -79 -19.5t-63 -51.5l-60 56q12 18 31.5 35.5t45.5 32t57.5 23.5t69.5 9q43 0 79 -12.5t62 -35t40.5 -54t14.5 -68.5q0 -31 -10 -55.5t-24.5 -42t-30 -28t-27.5 -12.5q13 -3 31.5 -12t35.5 -25.5t29.5 -41.5t12.5 -59z" />
    <glyph glyph-name="uniF734" unicode="&#xf734;" horiz-adv-x="539" 
d="M411 135v-135h-98v135h-282v78l283 393h97v-389h93v-82h-93zM313 467l-180 -250h180v250z" />
    <glyph glyph-name="uniF735" unicode="&#xf735;" horiz-adv-x="539" 
d="M484 201q0 -49 -16.5 -88.5t-46.5 -67.5t-72.5 -43.5t-95.5 -15.5q-57 0 -104 18.5t-79 51.5q-7 7 -11 12t-7 9l60 60q28 -31 61.5 -48t77.5 -17q60 0 95.5 31.5t35.5 94.5q0 28 -9 49t-24.5 35t-36 21t-43.5 7q-80 0 -119 -68l-78 33l35 331h341v-84h-267l-18 -172
q20 21 55.5 32.5t70.5 11.5q42 0 77.5 -13t62 -38t41 -61t14.5 -81z" />
    <glyph glyph-name="uniF736" unicode="&#xf736;" horiz-adv-x="539" 
d="M498 201q0 -46 -15.5 -85t-44 -68t-68.5 -45.5t-88 -16.5q-68 0 -113 27.5t-72 71t-38 98.5t-11 109q0 30 3.5 66t13.5 72.5t27.5 70.5t44.5 60.5t65.5 42.5t90.5 16q129 0 196 -95l-60 -55q-25 27 -58 46t-75 19q-44 0 -73 -21.5t-47 -53.5t-25.5 -69.5t-7.5 -70.5
q25 38 67 58.5t93 20.5q43 0 79 -14.5t62 -40.5t40 -62.5t14 -80.5zM398 193q0 53 -29.5 86.5t-82.5 33.5q-57 0 -89.5 -35.5t-32.5 -88.5q0 -52 31 -86t88 -34q26 0 47 9.5t36 26t23.5 39.5t8.5 49z" />
    <glyph glyph-name="uniF737" unicode="&#xf737;" horiz-adv-x="539" 
d="M239 0h-111l251 520h-327v86h435v-77z" />
    <glyph glyph-name="uniF738" unicode="&#xf738;" horiz-adv-x="539" 
d="M495 167q0 -43 -18 -76.5t-48.5 -57t-71.5 -35.5t-87 -12t-87 12t-71.5 35.5t-48.5 57t-18 76.5q0 34 11.5 59.5t28 43t34.5 28t31 14.5q-13 4 -28 14.5t-28.5 27.5t-22.5 40t-9 53q0 42 16.5 74.5t44.5 54.5t66 33t81 11t80.5 -11t66 -33t45 -54t16.5 -74q0 -30 -9 -53
t-22 -40t-28.5 -27.5t-28.5 -14.5q17 -5 35.5 -17t34 -30.5t25.5 -43t10 -55.5zM381 444q0 24 -9 42t-24.5 30t-35.5 17.5t-42 5.5t-42 -5.5t-35.5 -17.5t-24.5 -30t-9 -42q0 -25 9 -42.5t24.5 -29t35.5 -17t42 -5.5t42 5.5t35.5 17t24.5 29.5t9 42zM394 168q0 26 -10 45.5
t-27.5 32.5t-40 19.5t-46.5 6.5t-46.5 -6.5t-40 -19.5t-27.5 -32.5t-10 -45.5q0 -24 10 -43t27.5 -31.5t40 -19t46.5 -6.5t46.5 6.5t40 19t27.5 31t10 43.5z" />
    <glyph glyph-name="uniF739" unicode="&#xf739;" horiz-adv-x="539" 
d="M41 405q0 46 15.5 85t44 68t68.5 45.5t88 16.5q67 0 112 -27.5t72 -71t38.5 -98.5t11.5 -109q0 -30 -3.5 -66t-13.5 -72.5t-27.5 -70.5t-44.5 -60.5t-65.5 -42.5t-90.5 -16q-129 0 -196 95l60 55q25 -27 58 -46t75 -19q43 0 72.5 21.5t47.5 53.5t25.5 69.5t7.5 70.5
q-25 -38 -67 -58.5t-93 -20.5q-44 0 -79.5 14.5t-61.5 40.5t-40 62.5t-14 80.5zM141 413q0 -53 29.5 -86.5t82.5 -33.5q57 0 89.5 35.5t32.5 88.5q0 52 -31 86t-88 34q-26 0 -47 -9.5t-36 -26t-23.5 -39.5t-8.5 -49z" />
    <glyph glyph-name="uniF761" unicode="&#xf761;" horiz-adv-x="617" 
d="M504 0l-59 142h-276l-59 -142h-107l251 606h108l252 -606h-110zM412 230q-20 50 -39 98q-17 41 -35 86t-31 78l-104 -262h209z" />
    <glyph glyph-name="uniF762" unicode="&#xf762;" horiz-adv-x="595" 
d="M556 178q0 -32 -9.5 -61t-29.5 -53q-19 -23 -44.5 -36t-55.5 -19t-63 -7.5t-67 -1.5h-218v606h222q30 0 58.5 -1t54.5 -5.5t48.5 -14.5t40.5 -28q20 -21 30.5 -47.5t10.5 -55.5q0 -30 -8.5 -54t-21 -41.5t-28 -28t-28.5 -14.5q56 -13 82 -52t26 -86zM430 436
q0 31 -12.5 48.5t-32 26t-43.5 10t-48 1.5h-123v-172h127q26 0 50 2.5t42 11.5t29 26t11 46zM451 179q0 31 -12.5 48t-33.5 25.5t-48.5 10.5t-56.5 2h-129v-178h146q21 0 41 2t37 8q23 8 39.5 27t16.5 55z" />
    <glyph glyph-name="uniF763" unicode="&#xf763;" horiz-adv-x="616" 
d="M590 96q-12 -16 -34.5 -35t-53.5 -35.5t-71.5 -28t-88.5 -11.5q-74 0 -131 24.5t-95 67t-57.5 100.5t-19.5 125q0 66 19.5 123.5t58 100.5t95 68t130.5 25q42 0 76 -7.5t61 -20t47.5 -28t35.5 -31.5q13 -15 21 -27l-65 -57q-3 4 -6.5 8t-8.5 9q-30 32 -70.5 49t-87.5 17
q-52 0 -89.5 -19t-62 -50.5t-36 -73t-11.5 -86.5t12 -86.5t37 -73t62 -50.5t87 -19q53 0 100.5 21.5t84.5 60.5z" />
    <glyph glyph-name="uniF764" unicode="&#xf764;" horiz-adv-x="646" 
d="M607 306q0 -69 -22 -127.5t-66 -99.5q-43 -41 -93.5 -57.5t-105.5 -19.5q-16 -1 -31 -1.5t-29 -0.5h-191v606h191q34 0 69 -1.5t68 -8.5t64 -21.5t58 -39.5q45 -42 66.5 -101t21.5 -128zM500 307q0 48 -14.5 92t-45.5 74q-17 17 -37.5 26.5t-42.5 14t-45 5.5t-46 1h-97
v-433h82q24 0 48 1t47 5.5t45 14.5t42 28q32 30 48 75t16 96z" />
    <glyph glyph-name="uniF765" unicode="&#xf765;" horiz-adv-x="551" 
d="M69 0v606h432v-88h-329v-168h307v-86h-307v-176h340v-88h-443z" />
    <glyph glyph-name="uniF766" unicode="&#xf766;" horiz-adv-x="504" 
d="M172 518v-171h295v-86h-295v-261h-103v606h420v-88h-317z" />
    <glyph glyph-name="uniF767" unicode="&#xf767;" horiz-adv-x="662" 
d="M523 0l-2 68q-14 -20 -35 -35.5t-46.5 -26t-54.5 -15.5t-58 -5q-70 0 -124 24t-90.5 67t-55 100.5t-18.5 125.5q0 66 20.5 123.5t59.5 100.5t96 68t131 25q60 0 104 -15t73 -34t44.5 -37.5t20.5 -24.5q-16 -15 -32 -29.5t-32 -28.5q-38 41 -81 61t-96 20q-51 0 -89 -19
t-63 -51t-37 -73.5t-12 -86.5q0 -47 11.5 -88.5t35.5 -72.5t61 -49.5t88 -18.5q49 0 82 15.5t53 38.5t28.5 50.5t8.5 50.5v17h-177v86h268v-331h-82z" />
    <glyph glyph-name="uniF768" unicode="&#xf768;" horiz-adv-x="645" 
d="M473 0v263h-301v-263h-103v606h103v-255h301v255h103v-606h-103z" />
    <glyph glyph-name="uniF769" unicode="&#xf769;" horiz-adv-x="241" 
d="M69 0v606h103v-606h-103z" />
    <glyph glyph-name="uniF76A" unicode="&#xf76a;" horiz-adv-x="460" 
d="M397 221q0 -49 -8.5 -94t-45.5 -83q-25 -25 -65 -41.5t-92 -16.5q-47 0 -80 12.5t-55.5 30t-35.5 34.5t-18 26l69 55q8 -12 17.5 -22.5t20.5 -19.5q14 -12 34 -20.5t47 -8.5q33 0 53 11t32 27q17 21 19.5 51.5t2.5 64.5v379h105v-385z" />
    <glyph glyph-name="uniF76B" unicode="&#xf76b;" horiz-adv-x="576" 
d="M446 0l-274 281v-281h-103v606h103v-270l272 270h126l-298 -293l307 -313h-133z" />
    <glyph glyph-name="uniF76C" unicode="&#xf76c;" horiz-adv-x="488" 
d="M69 0v606h103v-518h313v-88h-416z" />
    <glyph glyph-name="uniF76D" unicode="&#xf76d;" horiz-adv-x="777" 
d="M613 0v471l-181 -471h-88l-181 471v-471h-94v606h137l183 -476l183 476h136v-606h-95z" />
    <glyph glyph-name="uniF76E" unicode="&#xf76e;" horiz-adv-x="645" 
d="M478 0l-311 443v-443h-98v606h100l309 -440v440h98v-606h-98z" />
    <glyph glyph-name="uniF76F" unicode="&#xf76f;" horiz-adv-x="694" 
d="M655 303q0 -58 -19 -115t-57 -102t-96 -72.5t-136 -27.5t-136 27.5t-96 72.5t-57 102t-19 115t19 115t57 102t96 72.5t136 27.5t136 -27.5t96 -72.5t57 -102t19 -115zM548 303q0 44 -12.5 85.5t-37 73.5t-62.5 51t-89 19t-89 -19t-62.5 -51t-37 -73.5t-12.5 -85.5
t12.5 -85.5t37 -73.5t62.5 -51t89 -19t89 19t62.5 51t37 73.5t12.5 85.5z" />
    <glyph glyph-name="uniF770" unicode="&#xf770;" horiz-adv-x="555" 
d="M540 422q0 -32 -10 -66.5t-36 -61.5q-35 -38 -85 -50.5t-110 -12.5h-127v-231h-103v606h203q32 0 62 -1t56.5 -6t49.5 -15t43 -28q32 -29 44.5 -64t12.5 -70zM436 420q0 20 -6 38t-18 30q-23 22 -59 28t-84 6h-97v-207h114q29 0 56 3.5t48 15t33.5 32t12.5 54.5z" />
    <glyph glyph-name="uniF771" unicode="&#xf771;" horiz-adv-x="694" 
d="M655 303q0 -47 -10 -84.5t-23.5 -66t-28 -48t-24.5 -29.5l81 -74l-59 -61l-92 82q-16 -9 -54 -22.5t-98 -13.5q-78 0 -136 27.5t-96 72.5t-57 102t-19 115t19 115t57 102t96 72.5t136 27.5t136 -27.5t96 -72.5t57 -102t19 -115zM548 303q0 44 -12.5 85.5t-37 73.5
t-62.5 51t-89 19t-89 -19t-62.5 -51t-37 -73.5t-12.5 -85.5q0 -45 12.5 -86t37 -73t62.5 -51t89 -19q31 0 51.5 6t28.5 10l-87 77l60 62l96 -87q6 7 15 20.5t17 33.5t14 47t6 60z" />
    <glyph glyph-name="uniF772" unicode="&#xf772;" horiz-adv-x="596" 
d="M461 0q-47 67 -85 120q-17 23 -32 44.5t-27 38.5q-14 20 -27 38h-118v-241h-103v606h224q28 0 55 -1.5t52.5 -7t48 -16.5t42.5 -30q28 -29 39.5 -61t11.5 -63q0 -71 -40.5 -114.5t-102.5 -60.5l182 -252h-120zM439 424q0 42 -23 65q-24 24 -59 28.5t-73 4.5h-112v-197
h104q30 0 59.5 2.5t52.5 12.5t37 29.5t14 54.5z" />
    <glyph glyph-name="uniF773" unicode="&#xf773;" horiz-adv-x="574" 
d="M523 171q0 -44 -18 -78.5t-50.5 -58t-78 -36t-100.5 -12.5q-81 0 -145 27.5t-104 81.5l65 64q42 -45 85.5 -65.5t97.5 -20.5q68 0 104.5 25t36.5 70q0 34 -27.5 51.5t-69 28t-89.5 20.5t-89.5 29t-69 53.5t-27.5 94.5q0 35 15.5 67t45 56t72.5 38t97 14q34 0 68.5 -6
t66.5 -18.5t59.5 -33t47.5 -49.5l-65 -60q-11 14 -28 28.5t-40 26.5t-50.5 19.5t-58.5 7.5q-60 0 -92.5 -22.5t-32.5 -63.5q0 -36 27.5 -53t69.5 -27.5t90 -19.5t90 -27.5t69.5 -53.5t27.5 -97z" />
    <glyph glyph-name="uniF774" unicode="&#xf774;" horiz-adv-x="511" 
d="M307 518v-518h-103v518h-201v88h505v-88h-201z" />
    <glyph glyph-name="uniF775" unicode="&#xf775;" horiz-adv-x="635" 
d="M572 253q0 -27 -2 -52.5t-8.5 -50t-19 -47.5t-34.5 -44q-38 -38 -87 -55.5t-104 -17.5t-104 17.5t-87 55.5q-23 22 -35.5 47t-18.5 50.5t-7.5 50.5t-1.5 48v351h103v-356q0 -41 7 -74.5t32 -59.5q20 -20 49.5 -31t63.5 -11q38 0 64 11t46 30q27 26 34 60.5t7 78.5v352
h103v-353z" />
    <glyph glyph-name="uniF776" unicode="&#xf776;" horiz-adv-x="594" 
d="M349 0h-104l-242 606h113l183 -480l184 480h108z" />
    <glyph glyph-name="uniF777" unicode="&#xf777;" horiz-adv-x="883" 
d="M690 0h-106l-143 452l-141 -452h-106l-185 606h108l136 -451l140 451h99l143 -451l135 451h104z" />
    <glyph glyph-name="uniF778" unicode="&#xf778;" horiz-adv-x="547" 
d="M426 0l-154 232l-155 -232h-114l212 316l-195 290h118l138 -209l139 209h111l-194 -289l212 -317h-118z" />
    <glyph glyph-name="uniF779" unicode="&#xf779;" horiz-adv-x="553" 
d="M327 260v-260h-103v260l-221 346h118l158 -253l157 253h114z" />
    <glyph glyph-name="uniF77A" unicode="&#xf77a;" horiz-adv-x="565" 
d="M39 0v83l348 435h-337v88h464v-83l-348 -435h359v-88h-486z" />
    <glyph glyph-name="uniF7E0" unicode="&#xf7e0;" horiz-adv-x="617" 
d="M504 0l-59 142h-276l-59 -142h-107l251 606h108l252 -606h-110zM412 230q-20 50 -39 98q-17 41 -35 86t-31 78l-104 -262h209zM183 808h115l88 -131h-84z" />
    <glyph glyph-name="uniF7E1" unicode="&#xf7e1;" horiz-adv-x="617" 
d="M504 0l-59 142h-276l-59 -142h-107l251 606h108l252 -606h-110zM412 230q-20 50 -39 98q-17 41 -35 86t-31 78l-104 -262h209zM314 677h-84l88 131h115z" />
    <glyph glyph-name="uniF7E2" unicode="&#xf7e2;" horiz-adv-x="617" 
d="M504 0l-59 142h-276l-59 -142h-107l251 606h108l252 -606h-110zM412 230q-20 50 -39 98q-17 41 -35 86t-31 78l-104 -262h209zM380 677l-72 81l-72 -81h-83l89 131h132l89 -131h-83z" />
    <glyph glyph-name="uniF7E3" unicode="&#xf7e3;" horiz-adv-x="617" 
d="M504 0l-59 142h-276l-59 -142h-107l251 606h108l252 -606h-110zM412 230q-20 50 -39 98q-17 41 -35 86t-31 78l-104 -262h209zM463 797q0 -23 -5 -43t-16 -35.5t-29.5 -24.5t-45.5 -9q-16 0 -31.5 6t-29.5 13.5t-27.5 13.5t-26.5 6q-19 0 -27 -12t-8 -24h-63q0 18 4.5 38
t15.5 36.5t29.5 27t47.5 10.5q18 0 33.5 -6t29.5 -13t27 -13t25 -6q15 0 25 9t10 26h62z" />
    <glyph glyph-name="uniF7E4" unicode="&#xf7e4;" horiz-adv-x="617" 
d="M504 0l-59 142h-276l-59 -142h-107l251 606h108l252 -606h-110zM412 230q-20 50 -39 98q-17 41 -35 86t-31 78l-104 -262h209zM457 744q0 -24 -16.5 -40.5t-40.5 -16.5t-41 16.5t-17 40.5t17 40.5t41 16.5t40.5 -16.5t16.5 -40.5zM272 744q0 -24 -16.5 -40.5t-40.5 -16.5
t-41 16.5t-17 40.5t17 40.5t41 16.5t40.5 -16.5t16.5 -40.5z" />
    <glyph glyph-name="uniF7E5" unicode="&#xf7e5;" horiz-adv-x="617" 
d="M504 0l-59 142h-276l-59 -142h-107l251 606h108l252 -606h-110zM412 230q-20 50 -39 98q-17 41 -35 86t-31 78l-104 -262h209zM412 751q0 -22 -8.5 -41t-22.5 -33t-33 -22t-41 -8t-41 8t-33.5 22t-22.5 33t-8 41t8 41t22.5 33t33.5 22t41 8t41 -8t33 -22t22.5 -33
t8.5 -41zM355 751q0 20 -14 34.5t-34 14.5t-34 -14.5t-14 -34.5t14 -34.5t34 -14.5t34 14.5t14 34.5z" />
    <glyph glyph-name="uniF7E6" unicode="&#xf7e6;" horiz-adv-x="936" 
d="M479 0v150h-226l-94 -150h-116l388 606h455v-88h-304v-168h284v-86h-284v-176h315v-88h-418zM479 523l-176 -287h176v287z" />
    <glyph glyph-name="uniF7E7" unicode="&#xf7e7;" horiz-adv-x="616" 
d="M294 -11q-57 7 -104 31.5t-80.5 65t-52 95.5t-18.5 122q0 66 19.5 123.5t58 100.5t95 68t130.5 25q42 0 76 -7.5t61 -20t47.5 -28t35.5 -31.5q13 -15 21 -27l-65 -57q-3 4 -6.5 8t-8.5 9q-30 32 -70.5 49t-87.5 17q-52 0 -89.5 -19t-62 -50.5t-36 -73t-11.5 -86.5
t12 -86.5t37 -73t62 -50.5t87 -19q53 0 100.5 21.5t84.5 60.5l61 -60q-12 -16 -34 -34.5t-52 -35t-68 -28t-82 -11.5l-19 -30q2 1 7 1.5t7 0.5q50 0 71.5 -24t21.5 -56q0 -34 -28 -60t-79 -26q-20 0 -36 4t-27 9.5t-18 11.5t-10 9l33 41q2 -2 17 -11.5t38 -9.5q22 0 32 10.5
t10 23.5q0 14 -8.5 23t-27.5 9q-16 0 -24.5 -5t-12.5 -9l-45 29z" />
    <glyph glyph-name="uniF7E8" unicode="&#xf7e8;" horiz-adv-x="551" 
d="M69 0v606h432v-88h-329v-168h307v-86h-307v-176h340v-88h-443zM165 808h115l88 -131h-84z" />
    <glyph glyph-name="uniF7E9" unicode="&#xf7e9;" horiz-adv-x="551" 
d="M69 0v606h432v-88h-329v-168h307v-86h-307v-176h340v-88h-443zM296 677h-84l88 131h115z" />
    <glyph glyph-name="uniF7EA" unicode="&#xf7ea;" horiz-adv-x="551" 
d="M69 0v606h432v-88h-329v-168h307v-86h-307v-176h340v-88h-443zM361 677l-72 81l-72 -81h-83l89 131h132l89 -131h-83z" />
    <glyph glyph-name="uniF7EB" unicode="&#xf7eb;" horiz-adv-x="551" 
d="M69 0v606h432v-88h-329v-168h307v-86h-307v-176h340v-88h-443zM439 744q0 -24 -16.5 -40.5t-40.5 -16.5t-41 16.5t-17 40.5t17 40.5t41 16.5t40.5 -16.5t16.5 -40.5zM254 744q0 -24 -16.5 -40.5t-40.5 -16.5t-41 16.5t-17 40.5t17 40.5t41 16.5t40.5 -16.5t16.5 -40.5z
" />
    <glyph glyph-name="uniF7EC" unicode="&#xf7ec;" horiz-adv-x="241" 
d="M69 0v606h103v-606h-103zM-9 808h115l88 -131h-84z" />
    <glyph glyph-name="uniF7ED" unicode="&#xf7ed;" horiz-adv-x="241" 
d="M69 0v606h103v-606h-103zM130 677h-84l88 131h115z" />
    <glyph glyph-name="uniF7EE" unicode="&#xf7ee;" horiz-adv-x="241" 
d="M69 0v606h103v-606h-103zM192 677l-72 81l-72 -81h-83l89 131h132l89 -131h-83z" />
    <glyph glyph-name="uniF7EF" unicode="&#xf7ef;" horiz-adv-x="241" 
d="M69 0v606h103v-606h-103zM270 744q0 -24 -16.5 -40.5t-40.5 -16.5t-41 16.5t-17 40.5t17 40.5t41 16.5t40.5 -16.5t16.5 -40.5zM85 744q0 -24 -16.5 -40.5t-40.5 -16.5t-41 16.5t-17 40.5t17 40.5t41 16.5t40.5 -16.5t16.5 -40.5z" />
    <glyph glyph-name="uniF7F0" unicode="&#xf7f0;" horiz-adv-x="656" 
d="M79 606h191q34 0 69 -1.5t68 -8.5t64 -21.5t58 -39.5q45 -42 66.5 -101t21.5 -128t-22 -127.5t-66 -99.5q-43 -41 -93.5 -57.5t-105.5 -19.5q-16 -1 -31 -1.5t-29 -0.5h-191v264h-91v85h91v257zM182 87h82q24 0 48 1t47 5.5t45 14.5t42 28q32 30 48 75t16 96
q0 48 -14.5 92t-45.5 74q-17 17 -37.5 26.5t-42.5 14t-45 5.5t-46 1h-97v-171h161v-85h-161v-177z" />
    <glyph glyph-name="uniF7F1" unicode="&#xf7f1;" horiz-adv-x="645" 
d="M478 0l-311 443v-443h-98v606h100l309 -440v440h98v-606h-98zM477 797q0 -23 -5 -43t-16 -35.5t-29.5 -24.5t-45.5 -9q-16 0 -31.5 6t-29.5 13.5t-27.5 13.5t-26.5 6q-19 0 -27 -12t-8 -24h-63q0 18 4.5 38t15.5 36.5t29.5 27t47.5 10.5q18 0 33.5 -6t29.5 -13t27 -13
t25 -6q15 0 25 9t10 26h62z" />
    <glyph glyph-name="uniF7F2" unicode="&#xf7f2;" horiz-adv-x="694" 
d="M655 303q0 -58 -19 -115t-57 -102t-96 -72.5t-136 -27.5t-136 27.5t-96 72.5t-57 102t-19 115t19 115t57 102t96 72.5t136 27.5t136 -27.5t96 -72.5t57 -102t19 -115zM548 303q0 44 -12.5 85.5t-37 73.5t-62.5 51t-89 19t-89 -19t-62.5 -51t-37 -73.5t-12.5 -85.5
t12.5 -85.5t37 -73.5t62.5 -51t89 -19t89 19t62.5 51t37 73.5t12.5 85.5zM221 808h115l88 -131h-84z" />
    <glyph glyph-name="uniF7F3" unicode="&#xf7f3;" horiz-adv-x="694" 
d="M655 303q0 -58 -19 -115t-57 -102t-96 -72.5t-136 -27.5t-136 27.5t-96 72.5t-57 102t-19 115t19 115t57 102t96 72.5t136 27.5t136 -27.5t96 -72.5t57 -102t19 -115zM548 303q0 44 -12.5 85.5t-37 73.5t-62.5 51t-89 19t-89 -19t-62.5 -51t-37 -73.5t-12.5 -85.5
t12.5 -85.5t37 -73.5t62.5 -51t89 -19t89 19t62.5 51t37 73.5t12.5 85.5zM353 677h-84l88 131h115z" />
    <glyph glyph-name="uniF7F4" unicode="&#xf7f4;" horiz-adv-x="694" 
d="M655 303q0 -58 -19 -115t-57 -102t-96 -72.5t-136 -27.5t-136 27.5t-96 72.5t-57 102t-19 115t19 115t57 102t96 72.5t136 27.5t136 -27.5t96 -72.5t57 -102t19 -115zM548 303q0 44 -12.5 85.5t-37 73.5t-62.5 51t-89 19t-89 -19t-62.5 -51t-37 -73.5t-12.5 -85.5
t12.5 -85.5t37 -73.5t62.5 -51t89 -19t89 19t62.5 51t37 73.5t12.5 85.5zM419 677l-72 81l-72 -81h-83l89 131h132l89 -131h-83z" />
    <glyph glyph-name="uniF7F5" unicode="&#xf7f5;" horiz-adv-x="694" 
d="M655 303q0 -58 -19 -115t-57 -102t-96 -72.5t-136 -27.5t-136 27.5t-96 72.5t-57 102t-19 115t19 115t57 102t96 72.5t136 27.5t136 -27.5t96 -72.5t57 -102t19 -115zM548 303q0 44 -12.5 85.5t-37 73.5t-62.5 51t-89 19t-89 -19t-62.5 -51t-37 -73.5t-12.5 -85.5
t12.5 -85.5t37 -73.5t62.5 -51t89 -19t89 19t62.5 51t37 73.5t12.5 85.5zM500 795q0 -23 -5 -43t-16 -35.5t-29.5 -24.5t-45.5 -9q-16 0 -31.5 6t-29.5 13.5t-27.5 13.5t-26.5 6q-19 0 -27 -12t-8 -24h-63q0 18 4.5 38t15.5 36.5t29.5 27t47.5 10.5q18 0 33.5 -6t29.5 -13
t27 -13t25 -6q15 0 25 9t10 26h62z" />
    <glyph glyph-name="uniF7F6" unicode="&#xf7f6;" horiz-adv-x="694" 
d="M655 303q0 -58 -19 -115t-57 -102t-96 -72.5t-136 -27.5t-136 27.5t-96 72.5t-57 102t-19 115t19 115t57 102t96 72.5t136 27.5t136 -27.5t96 -72.5t57 -102t19 -115zM548 303q0 44 -12.5 85.5t-37 73.5t-62.5 51t-89 19t-89 -19t-62.5 -51t-37 -73.5t-12.5 -85.5
t12.5 -85.5t37 -73.5t62.5 -51t89 -19t89 19t62.5 51t37 73.5t12.5 85.5zM496 742q0 -24 -16.5 -40.5t-40.5 -16.5t-41 16.5t-17 40.5t17 40.5t41 16.5t40.5 -16.5t16.5 -40.5zM311 742q0 -24 -16.5 -40.5t-40.5 -16.5t-41 16.5t-17 40.5t17 40.5t41 16.5t40.5 -16.5
t16.5 -40.5z" />
    <glyph glyph-name="uniF7F8" unicode="&#xf7f8;" horiz-adv-x="696" 
d="M347 -14q-62 0 -110 17.5t-79 43.5l-60 -62l-59 56l61 64q-8 10 -18 28.5t-20 43.5t-16.5 56.5t-6.5 69.5q0 58 19 115t57 102t96 72.5t136 27.5q67 0 115.5 -19.5t74.5 -41.5l60 63l60 -56l-63 -66q31 -42 46 -94t15 -103q0 -58 -19 -115t-57 -102t-96 -72.5t-136 -27.5
zM347 532q-51 0 -89 -19t-62.5 -51t-37 -73.5t-12.5 -85.5q0 -39 8.5 -73t18.5 -51l299 311q-19 17 -51 29.5t-74 12.5zM223 116q20 -17 51 -29.5t73 -12.5q51 0 89 19t62.5 51t37 73.5t12.5 85.5q0 35 -8 68.5t-19 55.5z" />
    <glyph glyph-name="uniF7F9" unicode="&#xf7f9;" horiz-adv-x="635" 
d="M572 253q0 -27 -2 -52.5t-8.5 -50t-19 -47.5t-34.5 -44q-38 -38 -87 -55.5t-104 -17.5t-104 17.5t-87 55.5q-23 22 -35.5 47t-18.5 50.5t-7.5 50.5t-1.5 48v351h103v-356q0 -41 7 -74.5t32 -59.5q20 -20 49.5 -31t63.5 -11q38 0 64 11t46 30q27 26 34 60.5t7 78.5v352
h103v-353zM193 808h115l88 -131h-84z" />
    <glyph glyph-name="uniF7FA" unicode="&#xf7fa;" horiz-adv-x="635" 
d="M572 253q0 -27 -2 -52.5t-8.5 -50t-19 -47.5t-34.5 -44q-38 -38 -87 -55.5t-104 -17.5t-104 17.5t-87 55.5q-23 22 -35.5 47t-18.5 50.5t-7.5 50.5t-1.5 48v351h103v-356q0 -41 7 -74.5t32 -59.5q20 -20 49.5 -31t63.5 -11q38 0 64 11t46 30q27 26 34 60.5t7 78.5v352
h103v-353zM323 677h-84l88 131h115z" />
    <glyph glyph-name="uniF7FB" unicode="&#xf7fb;" horiz-adv-x="635" 
d="M572 253q0 -27 -2 -52.5t-8.5 -50t-19 -47.5t-34.5 -44q-38 -38 -87 -55.5t-104 -17.5t-104 17.5t-87 55.5q-23 22 -35.5 47t-18.5 50.5t-7.5 50.5t-1.5 48v351h103v-356q0 -41 7 -74.5t32 -59.5q20 -20 49.5 -31t63.5 -11q38 0 64 11t46 30q27 26 34 60.5t7 78.5v352
h103v-353zM390 677l-72 81l-72 -81h-83l89 131h132l89 -131h-83z" />
    <glyph glyph-name="uniF7FC" unicode="&#xf7fc;" horiz-adv-x="635" 
d="M572 253q0 -27 -2 -52.5t-8.5 -50t-19 -47.5t-34.5 -44q-38 -38 -87 -55.5t-104 -17.5t-104 17.5t-87 55.5q-23 22 -35.5 47t-18.5 50.5t-7.5 50.5t-1.5 48v351h103v-356q0 -41 7 -74.5t32 -59.5q20 -20 49.5 -31t63.5 -11q38 0 64 11t46 30q27 26 34 60.5t7 78.5v352
h103v-353zM467 744q0 -24 -16.5 -40.5t-40.5 -16.5t-41 16.5t-17 40.5t17 40.5t41 16.5t40.5 -16.5t16.5 -40.5zM282 744q0 -24 -16.5 -40.5t-40.5 -16.5t-41 16.5t-17 40.5t17 40.5t41 16.5t40.5 -16.5t16.5 -40.5z" />
    <glyph glyph-name="uniF7FD" unicode="&#xf7fd;" horiz-adv-x="553" 
d="M327 260v-260h-103v260l-221 346h118l158 -253l157 253h114zM281 677h-84l88 131h115z" />
    <glyph glyph-name="uniF7FE" unicode="&#xf7fe;" horiz-adv-x="555" 
d="M540 330q0 -32 -10 -66.5t-36 -61.5q-35 -38 -85 -50.5t-110 -12.5h-127v-139h-103v606h103v-92h100q32 0 62 -1t56.5 -6t49.5 -15t43 -28q32 -29 44.5 -64t12.5 -70zM436 328q0 20 -6 38t-18 30q-23 22 -59 28t-84 6h-97v-207h114q29 0 56 3.5t48 15t33.5 32t12.5 54.5z
" />
    <glyph glyph-name="uniF7FF" unicode="&#xf7ff;" horiz-adv-x="553" 
d="M327 260v-260h-103v260l-221 346h118l158 -253l157 253h114zM428 744q0 -24 -16.5 -40.5t-40.5 -16.5t-41 16.5t-17 40.5t17 40.5t41 16.5t40.5 -16.5t16.5 -40.5zM243 744q0 -24 -16.5 -40.5t-40.5 -16.5t-41 16.5t-17 40.5t17 40.5t41 16.5t40.5 -16.5t16.5 -40.5z" />
    <glyph glyph-name="uniF8FF" unicode="&#xf8ff;" horiz-adv-x="902" 
d="M857 386q0 -84 -31.5 -157t-86 -127.5t-129 -86t-159.5 -31.5t-159 31.5t-129 86t-86.5 128t-31.5 156.5q0 84 31.5 157.5t86.5 128t129 86t159 31.5t159.5 -31.5t129 -86.5t86 -128t31.5 -157zM779 386q0 67 -26 126.5t-70.5 104t-104 70.5t-127.5 26q-67 0 -126.5 -26
t-104.5 -70.5t-71 -103.5t-26 -126q0 -52 16 -99.5t44.5 -88t67.5 -71t86 -47.5v229h-106v69h106v30q0 50 9 83t38 62q24 24 55.5 34.5t69.5 10.5q46 0 71.5 -10t28.5 -12l-24 -61q-8 3 -27 8t-40 5t-41 -6t-35 -21q-16 -16 -20.5 -38.5t-4.5 -54.5v-30h170v-69h-170v-248
q8 -1 16.5 -1.5t17.5 -0.5q67 0 126.5 26t104.5 70.5t71 103.5t26 126z" />
    <glyph glyph-name="uniFB00" unicode="&#xfb00;" horiz-adv-x="808" 
d="M208 392v-392h-100v392h-105v83h105v27q0 40 9 76t40 67q28 28 62.5 38t70.5 10q25 0 45 -4.5t35 -10t24.5 -11t12.5 -7.5q-9 -18 -18 -35t-17 -35q-14 7 -31 13t-41 6q-21 0 -36.5 -5.5t-26.5 -15.5q-17 -15 -23 -38.5t-6 -52.5v-22h231v27q0 40 9 76t40 67
q28 28 62.5 38t70.5 10q25 0 45 -4.5t35 -10t24.5 -11t12.5 -7.5q-9 -18 -18 -35t-17 -35q-14 7 -31 13t-41 6q-21 0 -36.5 -5.5t-26.5 -15.5q-17 -15 -23 -38.5t-6 -52.5v-22h168v-83h-168v-392h-100v392h-231z" />
    <glyph glyph-name="uniFB01" unicode="&#xfb01;" 
d="M407 660q-9 -18 -18 -35t-17 -35q-14 7 -31 13t-41 6q-21 0 -36.5 -5.5t-26.5 -15.5q-17 -15 -23 -38.5t-6 -52.5v-22h168v-83h-168v-392h-100v392h-105v83h105v27q0 40 9 76t40 67q28 28 62.5 38t70.5 10q25 0 45 -4.5t35 -10t24.5 -11t12.5 -7.5zM550 622
q0 -26 -17 -43t-44 -17q-26 0 -43.5 17t-17.5 43q0 25 17.5 42.5t43.5 17.5t43.5 -17.5t17.5 -42.5zM439 0v475h100v-475h-100z" />
    <glyph glyph-name="uniFB02" unicode="&#xfb02;" horiz-adv-x="602" 
d="M407 660q-9 -18 -18 -35t-17 -35q-14 7 -31 13t-41 6q-21 0 -36.5 -5.5t-26.5 -15.5q-17 -15 -23 -38.5t-6 -52.5v-22h168v-83h-168v-392h-100v392h-105v83h105v27q0 40 9 76t40 67q28 28 62.5 38t70.5 10q25 0 45 -4.5t35 -10t24.5 -11t12.5 -7.5zM439 0v678h100v-678
h-100z" />
    <glyph glyph-name="uniFB03" unicode="&#xfb03;" horiz-adv-x="1032" 
d="M208 392v-392h-100v392h-105v83h105v27q0 40 9 76t40 67q28 28 62.5 38t70.5 10q25 0 45 -4.5t35 -10t24.5 -11t12.5 -7.5q-9 -18 -18 -35t-17 -35q-14 7 -31 13t-41 6q-21 0 -36.5 -5.5t-26.5 -15.5q-17 -15 -23 -38.5t-6 -52.5v-22h231v27q0 40 9 76t40 67
q28 28 62.5 38t70.5 10q25 0 45 -4.5t35 -10t24.5 -11t12.5 -7.5q-9 -18 -18 -35t-17 -35q-14 7 -31 13t-41 6q-21 0 -36.5 -5.5t-26.5 -15.5q-17 -15 -23 -38.5t-6 -52.5v-22h168v-83h-168v-392h-100v392h-231zM881 622q0 -26 -17 -43t-44 -17q-26 0 -43.5 17t-17.5 43
q0 25 17.5 42.5t43.5 17.5t43.5 -17.5t17.5 -42.5zM770 0v475h100v-475h-100z" />
    <glyph glyph-name="uniFB04" unicode="&#xfb04;" horiz-adv-x="1034" 
d="M208 392v-392h-100v392h-105v83h105v27q0 40 9 76t40 67q28 28 62.5 38t70.5 10q25 0 45 -4.5t35 -10t24.5 -11t12.5 -7.5q-9 -18 -18 -35t-17 -35q-14 7 -31 13t-41 6q-21 0 -36.5 -5.5t-26.5 -15.5q-17 -15 -23 -38.5t-6 -52.5v-22h231v27q0 40 9 76t40 67
q28 28 62.5 38t70.5 10q25 0 45 -4.5t35 -10t24.5 -11t12.5 -7.5q-9 -18 -18 -35t-17 -35q-14 7 -31 13t-41 6q-21 0 -36.5 -5.5t-26.5 -15.5q-17 -15 -23 -38.5t-6 -52.5v-22h168v-83h-168v-392h-100v392h-231zM770 0v678h100v-678h-100z" />
    <glyph glyph-name="glyph330" horiz-adv-x="767" 
 />
    <glyph glyph-name="glyph367" horiz-adv-x="500" 
 />
    <glyph glyph-name="glyph382" horiz-adv-x="1148" 
d="M523 171q0 -44 -18 -78.5t-50.5 -58t-78 -36t-100.5 -12.5q-81 0 -145 27.5t-104 81.5l65 64q42 -45 85.5 -65.5t97.5 -20.5q68 0 104.5 25t36.5 70q0 34 -27.5 51.5t-69 28t-89.5 20.5t-89.5 29t-69 53.5t-27.5 94.5q0 35 15.5 67t45 56t72.5 38t97 14q34 0 68.5 -6
t66.5 -18.5t59.5 -33t47.5 -49.5l-65 -60q-11 14 -28 28.5t-40 26.5t-50.5 19.5t-58.5 7.5q-60 0 -92.5 -22.5t-32.5 -63.5q0 -36 27.5 -53t69.5 -27.5t90 -19.5t90 -27.5t69.5 -53.5t27.5 -97zM1097 171q0 -44 -18 -78.5t-50.5 -58t-78 -36t-100.5 -12.5q-81 0 -145 27.5
t-104 81.5l65 64q42 -45 85.5 -65.5t97.5 -20.5q68 0 104.5 25t36.5 70q0 34 -27.5 51.5t-69 28t-89.5 20.5t-89.5 29t-69 53.5t-27.5 94.5q0 35 15.5 67t45 56t72.5 38t97 14q34 0 68.5 -6t66.5 -18.5t59.5 -33t47.5 -49.5l-65 -60q-11 14 -28 28.5t-40 26.5t-50.5 19.5
t-58.5 7.5q-60 0 -92.5 -22.5t-32.5 -63.5q0 -36 27.5 -53t69.5 -27.5t90 -19.5t90 -27.5t69.5 -53.5t27.5 -97z" />
    <glyph glyph-name="glyph411" horiz-adv-x="628" 
d="M407 660q-9 -18 -18 -35t-17 -35q-14 7 -31 13t-41 6q-21 0 -36.5 -5.5t-26.5 -15.5q-17 -15 -23 -38.5t-6 -52.5v-22h168v-83h-168v-392h-100v392h-105v83h105v27q0 40 9 76t40 67q28 28 62.5 38t70.5 10q25 0 45 -4.5t35 -10t24.5 -11t12.5 -7.5zM577 622
q0 -26 -17 -43t-44 -17q-26 0 -43.5 17t-17.5 43q0 25 17.5 42.5t43.5 17.5t43.5 -17.5t17.5 -42.5zM466 0v475h100v-475h-100z" />
  </font>
</defs>
</svg>
